<svg width="51" height="14" viewBox="0 0 51 14" fill="none" xmlns="http://www.w3.org/2000/svg">
<path d="M4.5 10.3148C3.64 10.3148 2.865 10.1398 2.175 9.78984C1.495 9.42984 0.96 8.93484 0.57 8.30484C0.19 7.67484 0 6.95984 0 6.15984C0 5.35984 0.19 4.64484 0.57 4.01484C0.96 3.38484 1.495 2.89484 2.175 2.54484C2.865 2.18484 3.64 2.00484 4.5 2.00484C5.35 2.00484 6.09 2.18484 6.72 2.54484C7.36 2.89484 7.825 3.39984 8.115 4.05984L6.3 5.03484C5.88 4.29484 5.275 3.92484 4.485 3.92484C3.875 3.92484 3.37 4.12484 2.97 4.52484C2.57 4.92484 2.37 5.46984 2.37 6.15984C2.37 6.84984 2.57 7.39484 2.97 7.79484C3.37 8.19484 3.875 8.39484 4.485 8.39484C5.285 8.39484 5.89 8.02484 6.3 7.28484L8.115 8.27484C7.825 8.91484 7.36 9.41484 6.72 9.77484C6.09 10.1348 5.35 10.3148 4.5 10.3148Z" fill="#A6AFBD"/>
<path d="M11.727 3.18984C12.007 2.79984 12.382 2.50484 12.852 2.30484C13.332 2.10484 13.882 2.00484 14.502 2.00484V4.16484C14.242 4.14484 14.067 4.13484 13.977 4.13484C13.307 4.13484 12.782 4.32484 12.402 4.70484C12.022 5.07484 11.832 5.63484 11.832 6.38484V10.1948H9.49195V2.12484H11.727V3.18984Z" fill="#A6AFBD"/>
<path d="M24.0819 2.12484V8.84484C24.0819 10.3248 23.7069 11.4248 22.9569 12.1448C22.2069 12.8648 21.1169 13.2248 19.6869 13.2248C18.9269 13.2248 18.2069 13.1298 17.5269 12.9398C16.8569 12.7498 16.2919 12.4748 15.8319 12.1148L16.7619 10.4348C17.1019 10.7148 17.5169 10.9348 18.0069 11.0948C18.4969 11.2548 18.9919 11.3348 19.4919 11.3348C20.2719 11.3348 20.8419 11.1548 21.2019 10.7948C21.5619 10.4348 21.7419 9.88484 21.7419 9.14484V8.87484C21.4419 9.17484 21.0869 9.40484 20.6769 9.56484C20.2669 9.72484 19.8269 9.80484 19.3569 9.80484C18.2969 9.80484 17.4569 9.50484 16.8369 8.90484C16.2169 8.29484 15.9069 7.38484 15.9069 6.17484V2.12484H18.2469V5.82984C18.2469 7.13984 18.7919 7.79484 19.8819 7.79484C20.4419 7.79484 20.8919 7.61484 21.2319 7.25484C21.5719 6.88484 21.7419 6.33984 21.7419 5.61984V2.12484H24.0819Z" fill="#A6AFBD"/>
<path d="M30.4348 2.00484C31.2948 2.00484 32.0448 2.17484 32.6848 2.51484C33.3248 2.85484 33.8198 3.33984 34.1698 3.96984C34.5198 4.59984 34.6948 5.33484 34.6948 6.17484C34.6948 6.99484 34.5298 7.71984 34.1998 8.34984C33.8698 8.96984 33.4048 9.45484 32.8048 9.80484C32.2048 10.1448 31.5148 10.3148 30.7348 10.3148C29.7048 10.3148 28.8998 9.98984 28.3198 9.33984V13.1048H25.9798V6.18984C25.9798 5.35984 26.1648 4.62984 26.5348 3.99984C26.9048 3.36984 27.4248 2.87984 28.0948 2.52984C28.7648 2.17984 29.5448 2.00484 30.4348 2.00484ZM30.3298 8.39484C30.9398 8.39484 31.4348 8.18984 31.8148 7.77984C32.1948 7.36984 32.3848 6.83484 32.3848 6.17484C32.3848 5.50484 32.1948 4.96484 31.8148 4.55484C31.4348 4.13484 30.9398 3.92484 30.3298 3.92484C29.7198 3.92484 29.2248 4.12984 28.8448 4.53984C28.4748 4.94984 28.2898 5.48984 28.2898 6.15984C28.2898 6.82984 28.4748 7.36984 28.8448 7.77984C29.2148 8.18984 29.7098 8.39484 30.3298 8.39484Z" fill="#A6AFBD"/>
<path d="M41.1586 9.80484C40.9286 9.97484 40.6436 10.1048 40.3036 10.1948C39.9736 10.2748 39.6286 10.3148 39.2686 10.3148C38.2986 10.3148 37.5536 10.0698 37.0336 9.57984C36.5136 9.08984 36.2536 8.36984 36.2536 7.41984V0.339844H38.5936V2.30484H40.5886V4.10484H38.5936V7.38984C38.5936 7.72984 38.6786 7.99484 38.8486 8.18484C39.0186 8.36484 39.2636 8.45484 39.5836 8.45484C39.9436 8.45484 40.2636 8.35484 40.5436 8.15484L41.1586 9.80484Z" fill="#A6AFBD"/>
<path d="M46.0562 10.3148C45.2062 10.3148 44.4412 10.1398 43.7612 9.78984C43.0912 9.42984 42.5662 8.93484 42.1862 8.30484C41.8062 7.67484 41.6162 6.95984 41.6162 6.15984C41.6162 5.35984 41.8062 4.64484 42.1862 4.01484C42.5662 3.38484 43.0912 2.89484 43.7612 2.54484C44.4412 2.18484 45.2062 2.00484 46.0562 2.00484C46.9062 2.00484 47.6662 2.18484 48.3362 2.54484C49.0062 2.89484 49.5312 3.38484 49.9112 4.01484C50.2912 4.64484 50.4812 5.35984 50.4812 6.15984C50.4812 6.95984 50.2912 7.67484 49.9112 8.30484C49.5312 8.93484 49.0062 9.42984 48.3362 9.78984C47.6662 10.1398 46.9062 10.3148 46.0562 10.3148ZM46.0562 8.39484C46.6562 8.39484 47.1462 8.19484 47.5262 7.79484C47.9162 7.38484 48.1112 6.83984 48.1112 6.15984C48.1112 5.47984 47.9162 4.93984 47.5262 4.53984C47.1462 4.12984 46.6562 3.92484 46.0562 3.92484C45.4562 3.92484 44.9612 4.12984 44.5712 4.53984C44.1812 4.93984 43.9862 5.47984 43.9862 6.15984C43.9862 6.83984 44.1812 7.38484 44.5712 7.79484C44.9612 8.19484 45.4562 8.39484 46.0562 8.39484Z" fill="#A6AFBD"/>
</svg>
