<svg width="137" height="26" viewBox="0 0 137 26" fill="none" xmlns="http://www.w3.org/2000/svg">
<g clip-path="url(#clip0_159_543)">
<path d="M60.0562 17.0362V12.0373C60.0562 10.1511 58.8531 8.88137 56.9169 8.86471C56.3655 8.82906 55.8146 8.94196 55.3216 9.19167C54.8287 9.44137 54.4117 9.81872 54.1142 10.2844C53.8431 9.83254 53.4552 9.46218 52.9912 9.21232C52.5273 8.96247 52.0046 8.84238 51.4781 8.86471C51.0197 8.84257 50.5634 8.94035 50.1543 9.14841C49.7452 9.35646 49.3974 9.6676 49.1453 10.0511V9.05133H47.409V17.0362H49.162V12.6139C49.162 11.2275 49.9285 10.4943 51.1149 10.4943C52.3013 10.4943 52.8512 11.2442 52.8512 12.5972V17.0362H54.5941V12.6139C54.5941 11.2275 55.3939 10.4943 56.547 10.4943C57.7001 10.4943 58.2999 11.2442 58.2999 12.5972V17.0362H60.0562ZM85.9937 9.058H83.1577V6.63854H81.4047V9.058H79.7851V10.6443H81.4047V14.2802C81.4047 16.1331 82.1213 17.2362 84.1741 17.2362C84.9409 17.2386 85.6928 17.025 86.3436 16.6196L85.8437 15.1333C85.3779 15.4108 84.8493 15.5656 84.3074 15.5832C83.441 15.5832 83.1544 15.05 83.1544 14.2502V10.6443H85.9904L85.9937 9.058ZM100.8 8.85804C100.377 8.8457 99.958 8.94786 99.5881 9.15374C99.218 9.35962 98.9103 9.66159 98.6975 10.0278V9.058H96.9779V17.0362H98.7142V12.5639C98.7142 11.2308 99.2807 10.511 100.417 10.511C100.789 10.5056 101.158 10.5736 101.504 10.711L102.037 9.07466C101.64 8.93274 101.222 8.85948 100.8 8.85804ZM78.4154 9.69119C77.4324 9.10716 76.3022 8.81797 75.1595 8.85804C73.1399 8.85804 71.8269 9.82783 71.8269 11.4108C71.8269 12.7138 72.7933 13.5137 74.5796 13.7636L75.3961 13.8802C76.3459 14.0136 76.7991 14.2635 76.7991 14.7134C76.7991 15.3299 76.1659 15.6832 74.9795 15.6832C74.0224 15.7136 73.083 15.42 72.3135 14.85L71.5236 16.1997C72.5347 16.9067 73.7462 17.27 74.9795 17.2362C77.2823 17.2362 78.6187 16.1497 78.6187 14.6334C78.6187 13.2304 77.5656 12.4972 75.8327 12.2473L75.0162 12.1306C74.2663 12.0307 73.6631 11.8807 73.6631 11.3475C73.6631 10.7643 74.2297 10.4144 75.1828 10.4144C76.0561 10.4273 76.9117 10.6624 77.6689 11.0975L78.4154 9.69119ZM124.912 8.85804C124.488 8.8457 124.069 8.94786 123.699 9.15374C123.329 9.35962 123.022 9.66159 122.809 10.0278V9.058H121.089V17.0362H122.825V12.5639C122.825 11.2308 123.392 10.511 124.528 10.511C124.9 10.5056 125.269 10.5736 125.615 10.711L126.148 9.07466C125.751 8.93274 125.333 8.85948 124.912 8.85804ZM102.553 13.0471C102.553 15.4666 104.24 17.2362 106.809 17.2362C107.851 17.2877 108.874 16.9477 109.678 16.283L108.845 14.88C108.245 15.3371 107.513 15.5884 106.759 15.5965C105.373 15.5965 104.356 14.5768 104.356 13.0438C104.356 11.5108 105.376 10.5077 106.759 10.491C107.513 10.4992 108.245 10.7504 108.845 11.2075L109.678 9.8045C108.874 9.13981 107.851 8.79983 106.809 8.85138C104.24 8.85138 102.553 10.621 102.553 13.0404V13.0471ZM118.81 13.0471V9.048H117.073V10.0178C116.777 9.63579 116.394 9.33025 115.956 9.12674C115.518 8.92323 115.037 8.82767 114.554 8.84805C112.318 8.84805 110.555 10.601 110.555 13.0371C110.555 15.4732 112.308 17.2262 114.554 17.2262C115.037 17.2465 115.518 17.151 115.956 16.9475C116.394 16.744 116.777 16.4384 117.073 16.0564V17.0229H118.81V13.0471ZM112.351 13.0471C112.351 11.6441 113.268 10.4943 114.771 10.4943C116.207 10.4943 117.173 11.5974 117.173 13.0471C117.173 14.4968 116.207 15.5999 114.771 15.5999C113.268 15.5999 112.351 14.4468 112.351 13.0471ZM91.4025 8.85804C89.0697 8.85804 87.4301 10.561 87.4301 13.0471C87.4301 15.5832 89.133 17.2362 91.5191 17.2362C92.7106 17.2779 93.8756 16.8793 94.7917 16.1164L93.9419 14.83C93.2791 15.3604 92.4579 15.6536 91.6091 15.6632C90.4894 15.6632 89.4729 15.1466 89.223 13.7103H95.1483C95.165 13.4937 95.1817 13.2771 95.1817 13.0438C95.1817 10.5577 93.6287 8.85471 91.3925 8.85471L91.4025 8.85804ZM91.3692 10.411C92.4889 10.411 93.2054 11.1109 93.3887 12.3473H89.253C89.4363 11.1942 90.1361 10.411 91.3725 10.411H91.3692ZM134.909 13.0471V5.85205H133.173V10.0245C132.877 9.64245 132.494 9.33692 132.056 9.13341C131.617 8.9299 131.137 8.83433 130.654 8.85471C128.418 8.85471 126.655 10.6077 126.655 13.0438C126.655 15.4799 128.408 17.2328 130.654 17.2328C131.137 17.2532 131.617 17.1576 132.056 16.9541C132.494 16.7506 132.877 16.4451 133.173 16.0631V17.0295H134.909V13.0471ZM128.458 13.0471C128.458 11.6441 129.374 10.4943 130.877 10.4943C132.313 10.4943 133.28 11.5974 133.28 13.0471C133.28 14.4968 132.313 15.5999 130.877 15.5999C129.374 15.5999 128.458 14.4468 128.458 13.0471ZM69.8373 13.0471V9.048H68.1011V10.0178C67.805 9.63903 67.4229 9.33628 66.9865 9.1346C66.5501 8.93292 66.072 8.83811 65.5916 8.85804C63.3555 8.85804 61.5925 10.611 61.5925 13.0471C61.5925 15.4832 63.3455 17.2362 65.5916 17.2362C66.0745 17.2565 66.5552 17.161 66.9935 16.9575C67.4318 16.754 67.815 16.4484 68.1111 16.0664V17.0329H69.8473L69.8373 13.0471ZM63.3788 13.0471C63.3788 11.6441 64.2952 10.4943 65.7982 10.4943C67.2346 10.4943 68.201 11.5974 68.201 13.0471C68.201 14.4968 67.2346 15.5999 65.7982 15.5999C64.2952 15.5999 63.3788 14.4501 63.3788 13.0471Z" fill="#A6AFBD"/>
<path d="M37.5891 19.3656C38.7835 17.4574 39.417 15.2516 39.4171 13.0004C39.4176 10.7489 38.7846 8.54262 37.5904 6.63392C36.3962 4.72521 34.689 3.19106 32.664 2.20689C30.639 1.22271 28.3779 0.828227 26.1392 1.06854C24.2456 1.27182 22.4326 1.92238 20.8474 2.96035C22.2916 4.14801 23.4633 5.63405 24.2815 7.31773C25.1418 9.08799 25.5888 11.0305 25.5888 12.9987C25.5888 14.9669 25.1418 16.9094 24.2815 18.6797C23.4633 20.3633 22.2916 21.8494 20.8474 23.0371C22.4323 24.0749 24.245 24.7254 26.1384 24.9288C28.3767 25.1692 30.6376 24.775 32.6625 23.7912C34.6874 22.8075 36.3946 21.2738 37.5891 19.3656Z" fill="#A6AFBD"/>
<path d="M19.1621 23.041C17.5772 24.0784 15.7647 24.7285 13.8715 24.9316C11.6333 25.1716 9.37268 24.7772 7.34804 23.7933C5.32339 22.8094 3.6164 21.2757 2.42216 19.3675C1.22792 17.4594 0.594604 15.2537 0.594604 13.0027C0.594604 10.7516 1.22792 8.54598 2.42216 6.63782C3.6164 4.72967 5.32339 3.19599 7.34804 2.21208C9.37268 1.22817 11.6333 0.83372 13.8715 1.07381C15.7647 1.27689 17.5772 1.92701 19.1621 2.96435C17.7176 4.15111 16.5456 5.63676 15.7276 7.32031C14.8676 9.09041 14.4214 11.0329 14.4228 13.0009C14.4209 14.9695 14.8668 16.9127 15.7269 18.6834C16.5449 20.3676 17.7171 21.8539 19.1621 23.041Z" fill="#A6AFBD"/>
<path d="M19.9958 22.4283C18.5707 21.3074 17.4186 19.8776 16.6264 18.2465C15.8325 16.612 15.4209 14.8182 15.4228 13.001C15.4214 11.1844 15.8332 9.39128 16.6271 7.75733C17.2746 6.4246 18.1625 5.22626 19.2432 4.2211L19.2466 4.21798C19.4777 4.00324 19.7175 3.79732 19.9658 3.6008L19.9958 3.57711L20.0051 3.5698L19.9958 3.5625H20.0089L20.0047 3.56582L20.0226 3.57994C20.1949 3.71588 20.3632 3.85632 20.5274 4.0011C20.6017 4.06664 20.6751 4.13306 20.7477 4.20035C20.7536 4.20579 20.7595 4.21124 20.7653 4.21669L20.7666 4.21793C21.2402 4.65885 21.6768 5.13682 22.0723 5.6469C22.579 6.30031 23.0184 7.00642 23.3821 7.75482C24.1762 9.38887 24.5888 11.1819 24.5888 12.9987C24.5888 14.8155 24.1762 16.6085 23.3821 18.2426C22.5888 19.875 21.4354 21.3062 20.0089 22.4283H19.9958Z" fill="#A6AFBD"/>
</g>
<defs>
<clipPath id="clip0_159_543">
<rect width="136" height="26" fill="white" transform="translate(0.0946045)"/>
</clipPath>
</defs>
</svg>
