<svg width="60" height="16" viewBox="0 0 60 16" fill="none" xmlns="http://www.w3.org/2000/svg">
<path fill-rule="evenodd" clip-rule="evenodd" d="M5.86226 0.00273032C6.38629 -0.000404622 7.94368 -0.140671 8.60336 2.08575C9.04773 3.58549 9.75558 6.04213 10.7269 9.45568H11.1225C12.1642 5.85688 12.8797 3.40023 13.2692 2.08575C13.9358 -0.163863 15.6021 0.00277441 16.2687 0.00277441L21.4113 0.00278082V16H16.1698V6.57256H15.8183L12.8965 16H8.95293L6.03107 6.56557H5.67959V16H0.43811V0.00278082L5.86226 0.00273032ZM28.938 0.00278082V9.43721H29.3561L32.9103 1.67935C33.6002 0.135509 35.0707 0.00278082 35.0707 0.00278082H40.1428V16H34.7919V6.56557H34.3738L30.8893 14.3234C30.1993 15.8603 28.6592 16 28.6592 16H23.587V0.00278082H28.938ZM58.6381 7.60476C57.8917 9.71989 55.5477 11.2347 52.9526 11.2347H47.3411V16H42.2526V7.60476H58.6381Z" fill="#A6AFBD"/>
<path fill-rule="evenodd" clip-rule="evenodd" d="M53.1981 0.00244141H41.9858C42.2527 3.56397 45.3198 6.61286 48.4949 6.61286H58.9917C59.5975 3.65282 57.5122 0.00244141 53.1981 0.00244141Z" fill="#A6AFBD"/>
</svg>
