<svg width="50" height="16" viewBox="0 0 50 16" fill="none" xmlns="http://www.w3.org/2000/svg">
<path d="M21.4234 15.7692H17.4186L19.9234 0.280762H23.9281L21.4234 15.7692Z" fill="#A6AFBD"/>
<path d="M35.9412 0.659404C35.1513 0.346018 33.8984 0 32.3492 0C28.3943 0 25.6093 2.10895 25.5923 5.12412C25.5594 7.3487 27.5862 8.58429 29.1021 9.32604C30.6516 10.084 31.1782 10.5787 31.1782 11.2543C31.1625 12.292 29.9262 12.7702 28.7732 12.7702C27.1743 12.7702 26.3175 12.5237 25.0157 11.9463L24.4883 11.6989L23.9279 15.1757C24.8672 15.6036 26.5977 15.9833 28.3943 16C32.5965 16 35.3322 13.9237 35.3646 10.7105C35.3806 8.94739 34.3103 7.59639 32.003 6.49242C30.6023 5.78374 29.7445 5.30589 29.7445 4.58078C29.7609 3.92161 30.47 3.24642 32.0512 3.24642C33.353 3.21337 34.3096 3.5263 35.0344 3.83947L35.3966 4.00394L35.9412 0.659404Z" fill="#A6AFBD"/>
<path d="M41.2638 10.2822C41.5937 9.3924 42.8627 5.94865 42.8627 5.94865C42.8462 5.98172 43.1919 5.04244 43.3896 4.46581L43.6695 5.8004C43.6695 5.8004 44.4279 9.50781 44.5926 10.2822C43.9667 10.2822 42.0549 10.2822 41.2638 10.2822ZM46.2073 0.280762H43.1096C42.1543 0.280762 41.4285 0.560641 41.0163 1.56585L35.0677 15.769H39.2699C39.2699 15.769 39.9617 13.8573 40.1104 13.4456C40.5714 13.4456 44.6592 13.4456 45.2522 13.4456C45.3672 13.9893 45.7301 15.769 45.7301 15.769H49.4382L46.2073 0.280762Z" fill="#A6AFBD"/>
<path d="M14.0722 0.280762L10.1501 10.8424L9.72156 8.70037C8.99646 6.22876 6.72238 3.54339 4.18463 2.20816L7.77708 15.7527H12.0121L18.307 0.280762H14.0722Z" fill="#A6AFBD"/>
<path d="M6.50929 0.280762H0.0659181L0 0.59371C5.02622 1.87901 8.355 4.97718 9.72264 8.70103L8.32193 1.5827C8.09132 0.59349 7.38264 0.313393 6.50929 0.280762Z" fill="#A6AFBD"/>
</svg>
