<svg width="166" height="166" viewBox="0 0 166 166" fill="none" xmlns="http://www.w3.org/2000/svg">
<rect width="166" height="166" rx="83" fill="#50505A"/>
<path d="M122 44L121.659 44.8047C117.319 55.0336 110.017 63.7296 100.693 69.7731L89.6783 76.9122C88.6317 77.5905 88 78.7528 88 80C88 81.2706 88.5502 82.4789 89.5086 83.313L101.48 93.7328C110.377 101.476 117.394 111.143 122 122M44 44L44.3414 44.8047C48.6809 55.0336 55.9828 63.7296 65.307 69.7731L76.3217 76.9122C77.3683 77.5905 78 78.7528 78 80C78 81.2706 77.4498 82.4789 76.4914 83.313L64.5197 93.7328C55.6234 101.476 48.6062 111.143 44 122M34.1 44H131.9C131.955 44 132 43.9552 132 43.9V37C132 35.3431 130.657 34 129 34H37C35.3431 34 34 35.3431 34 37V43.9C34 43.9552 34.0448 44 34.1 44ZM37 132H129C130.657 132 132 130.657 132 129V122.1C132 122.045 131.955 122 131.9 122H34.1C34.0448 122 34 122.045 34 122.1V129C34 130.657 35.3431 132 37 132ZM86.5 104C85.1193 104 84 102.881 84 101.5C84 100.119 85.1193 99 86.5 99C87.8807 99 89 100.119 89 101.5C89 102.881 87.8807 104 86.5 104ZM82.5 64C81.1193 64 80 62.8807 80 61.5C80 60.1193 81.1193 59 82.5 59C83.8807 59 85 60.1193 85 61.5C85 62.8807 83.8807 64 82.5 64ZM74.5 70C73.1193 70 72 68.8807 72 67.5C72 66.1193 73.1193 65 74.5 65C75.8807 65 77 66.1193 77 67.5C77 68.8807 75.8807 70 74.5 70ZM91.5 69C90.1193 69 89 67.8807 89 66.5C89 65.1193 90.1193 64 91.5 64C92.8807 64 94 65.1193 94 66.5C94 67.8807 92.8807 69 91.5 69ZM101.5 63C100.119 63 99 61.8807 99 60.5C99 59.1193 100.119 58 101.5 58C102.881 58 104 59.1193 104 60.5C104 61.8807 102.881 63 101.5 63ZM83 76C81.6193 76 80.5 74.8807 80.5 73.5C80.5 72.1193 81.6193 71 83 71C84.3807 71 85.5 72.1193 85.5 73.5C85.5 74.8807 84.3807 76 83 76ZM83 88C81.6193 88 80.5 86.8807 80.5 85.5C80.5 84.1193 81.6193 83 83 83C84.3807 83 85.5 84.1193 85.5 85.5C85.5 86.8807 84.3807 88 83 88Z" stroke="#F0F4F7"/>
</svg>
