<svg width="166" height="166" viewBox="0 0 166 166" fill="none" xmlns="http://www.w3.org/2000/svg">
<rect width="166" height="166" rx="83" fill="#50505A"/>
<path d="M120 37.6497L120 74.2049M120 40.8813V35C120 34.4477 119.552 34 119 34H41C40.4477 34 40 34.4477 40 35L40 131C40 131.552 40.4477 132 41 132H108" stroke="#F0F4F7"/>
<path d="M54 119H70" stroke="#F0F4F7" stroke-linecap="round"/>
<path d="M54 103H78" stroke="#F0F4F7" stroke-linecap="round"/>
<path d="M54 96H78.5" stroke="#F0F4F7" stroke-linecap="round"/>
<path d="M54 89H81" stroke="#F0F4F7" stroke-linecap="round"/>
<path d="M54 82H85.5" stroke="#F0F4F7" stroke-linecap="round"/>
<path d="M54 68H90.75" stroke="#F0F4F7" stroke-linecap="round"/>
<path d="M93.1421 116.142L121.426 87.8578" stroke="#F0F4F7" stroke-linecap="round"/>
<path d="M121.426 116.142L93.1421 87.8578" stroke="#F0F4F7" stroke-linecap="round"/>
<path d="M54 75H76" stroke="#F0F4F7" stroke-linecap="round"/>
<circle cx="58" cy="52" r="5" stroke="#F0F4F7"/>
<circle cx="108" cy="102" r="30" stroke="#F0F4F7"/>
<circle cx="74" cy="52" r="5" stroke="#F0F4F7"/>
<circle cx="90" cy="52" r="5" stroke="#F0F4F7"/>
</svg>
