<svg width="166" height="166" viewBox="0 0 166 166" fill="none" xmlns="http://www.w3.org/2000/svg">
<rect width="166" height="166" rx="83" fill="#50505A"/>
<path d="M98.1026 65.0361C101.28 62.3129 103.293 58.2703 103.293 53.7576V44.8485C103.293 36.6479 96.645 30 88.4444 30H79.5354C71.3348 30 64.6869 36.6479 64.6869 44.8485V53.7576C64.6869 58.1308 66.5774 62.0624 69.5858 64.7797M78.4876 96.0992C78.2261 97.5595 78.0928 99.2443 78.0878 101.154C78.0876 101.216 78.1379 101.266 78.1999 101.266H87.5451C87.606 101.266 87.6557 101.217 87.6576 101.156C87.7098 99.4497 87.9643 98.0307 88.4212 96.8992C88.8879 95.7214 89.7657 94.5658 91.0546 93.4325C92.5436 92.0546 93.888 90.7657 95.0881 89.5657C96.3103 88.3434 97.277 87.0323 97.9881 85.6322C98.7215 84.21 99.0882 82.5433 99.0882 80.6321C99.0882 77.7654 98.4659 75.3542 97.2215 73.3986C95.977 71.4208 94.188 69.9318 91.8547 68.9318C89.5213 67.9318 86.7323 67.4318 83.4878 67.4318C80.5544 67.4318 77.8987 67.9207 75.5209 68.8985C73.1653 69.854 71.2763 71.3763 69.8541 73.4653C68.4703 75.508 67.7378 78.1587 67.6566 81.4172C67.655 81.4801 67.7057 81.5321 67.7686 81.5321H78.8459C78.9063 81.5321 78.9559 81.4841 78.9585 81.4237C79.0121 80.1851 79.244 79.1879 79.6543 78.4321C80.0766 77.632 80.621 77.0431 81.2877 76.6653C81.9766 76.2876 82.71 76.0987 83.4878 76.0987C84.4433 76.0987 85.2323 76.2876 85.8545 76.6653C86.499 77.0209 86.9767 77.5654 87.2879 78.2987C87.6212 79.0321 87.7879 79.9765 87.7879 81.1321C87.7879 82.0655 87.5879 82.9433 87.1879 83.7655C86.7879 84.5878 86.2101 85.3989 85.4545 86.1989C84.6989 86.999 83.7989 87.8323 82.7544 88.699C81.5766 89.7212 80.6432 90.8324 79.9543 92.0324C79.2654 93.2324 78.7765 94.588 78.4876 96.0992ZM76.7209 111.4C76.7209 109.8 77.2987 108.466 78.4543 107.399C79.6099 106.311 81.1099 105.766 82.9544 105.766C84.7989 105.766 86.299 106.311 87.4545 107.399C88.6101 108.466 89.1879 109.8 89.1879 111.4C89.1879 113 88.6101 114.344 87.4545 115.433C86.299 116.5 84.7989 117.033 82.9544 117.033C81.1099 117.033 79.6099 116.5 78.4543 115.433C77.2987 114.344 76.7209 113 76.7209 111.4ZM64.0787 70.5443H57.8221C51.7102 70.5443 45.9768 72.2008 41.643 75.1125C37.3372 78.0054 34 82.4813 34 88.0112V123.446C34 125.961 36.0386 128 38.5535 128H127.446C129.961 128 132 125.961 132 123.446V88.0111C132 82.4813 128.663 78.0054 124.357 75.1125C120.023 72.2008 114.29 70.5443 108.178 70.5443H103.094C104.671 73.2704 105.422 76.3079 105.569 79.4534H108.178C112.762 79.4534 116.713 80.7098 119.389 82.5076C122.093 84.3242 123.091 86.3545 123.091 88.0111V119.091H92.9251C92.6178 119.456 92.2858 119.807 91.9295 120.143L91.9053 120.166L91.8809 120.188C89.3267 122.546 86.1633 123.504 82.9914 123.504C79.8196 123.504 76.6562 122.546 74.102 120.188L74.0776 120.166L74.0534 120.143C73.6971 119.807 73.3651 119.456 73.0578 119.091H42.9091V88.0112C42.9091 86.3545 43.9075 84.3242 46.6114 82.5076C49.2873 80.7098 53.2377 79.4534 57.8221 79.4534H61.3254C61.6066 76.2775 62.4449 73.2327 64.0787 70.5443ZM73.596 44.8485C73.596 41.5682 76.2551 38.9091 79.5354 38.9091H88.4444C91.7247 38.9091 94.3838 41.5682 94.3838 44.8485V53.7576C94.3838 57.0378 91.7247 59.697 88.4444 59.697H79.5354C76.2551 59.697 73.596 57.0378 73.596 53.7576V44.8485Z" stroke="#F0F4F7" stroke-linecap="round" stroke-linejoin="round"/>
</svg>
