<svg width="166" height="166" viewBox="0 0 166 166" fill="none" xmlns="http://www.w3.org/2000/svg">
<rect width="166" height="166" rx="83" fill="#50505A"/>
<g clip-path="url(#clip0_528_5089)">
<path d="M75 83.6642C72.5502 82.5938 69.8444 82 67 82C55.9543 82 47 90.9543 47 102C47 113.046 55.9543 122 67 122C75.3934 122 82.5793 116.83 85.5462 109.5" stroke="#F0F4F7"/>
<path d="M77.5 73.8888C74.232 72.6676 70.694 72 67 72C50.4315 72 37 85.4315 37 102C37 118.569 50.4315 132 67 132C79.1075 132 89.5398 124.828 94.2798 114.5M86.2625 79C92.8265 84.5032 97 92.7642 97 102C97 102.842 96.9653 103.676 96.8973 104.5" stroke="#F0F4F7"/>
<path d="M76 73.5V65C76 63.8954 75.1046 63 74 63H73.5M58 73.5V65C58 63.8954 58.8954 63 60 63H60.5" stroke="#F0F4F7"/>
<path d="M96.0031 57.8373L91.1277 50.8745C90.4942 49.9697 89.2471 49.7498 88.3423 50.3833L87.9327 50.6701M81.2584 68.1616L76.383 61.1989C75.7494 60.294 75.9693 59.0469 76.8741 58.4134L77.2837 58.1266" stroke="#F0F4F7"/>
<circle cx="104.978" cy="86.3473" r="20" transform="rotate(-35 104.978 86.3473)" stroke="#F0F4F7"/>
<circle cx="104.978" cy="86.3475" r="30" transform="rotate(-35 104.978 86.3475)" stroke="#F0F4F7"/>
<path d="M70.3191 41.6166C70.8399 40.8732 71.4971 40.2065 72.2837 39.6558C75.9029 37.1216 80.8913 38.0011 83.4255 41.6204C85.9597 45.2396 85.0802 50.228 81.4609 52.7622C77.8417 55.2964 72.8533 54.4168 70.3191 50.7976C69.1506 49.1289 68.7079 47.1692 68.9248 45.2931" stroke="#F0F4F7"/>
<path d="M66.0596 40.9998C66.9218 39.2058 68.243 37.6019 69.9895 36.379C71.3101 35.4544 72.7522 34.8327 74.2332 34.4995C75.6149 34.1886 77.0304 34.1287 78.4129 34.3081C79.8552 34.4952 81.2616 34.9427 82.5558 35.6371C82.8905 35.8168 83.2178 36.0129 83.5362 36.2253C84.4906 36.862 85.3657 37.645 86.1262 38.5681C86.3264 38.811 86.5186 39.0637 86.7022 39.326C90.5036 44.7548 89.1842 52.2374 83.7553 56.0387C78.3265 59.84 70.8439 58.5207 67.0426 53.0918C65.374 50.7089 64.6921 47.9303 64.9112 45.241" stroke="#F0F4F7"/>
<path d="M74.9381 54C74.979 53.6724 75 53.3387 75 53C75 48.5817 71.4183 45 67 45C62.5817 45 59 48.5817 59 53C59 57.4183 62.5817 61 67 61C69.5858 61 71.885 59.7732 73.3475 57.8699" stroke="#F0F4F7"/>
<path d="M78.9589 54C78.9861 53.6703 79 53.3368 79 53C79 46.3726 73.6274 41 67 41C60.3726 41 55 46.3726 55 53C55 59.6274 60.3726 65 67 65C70.1645 65 73.0429 63.7751 75.1869 61.7736C75.5692 61.4167 75.9281 61.0352 76.2611 60.6315" stroke="#F0F4F7"/>
</g>
<defs>
<clipPath id="clip0_528_5089">
<rect width="100" height="100" fill="white" transform="translate(36 33)"/>
</clipPath>
</defs>
</svg>
