<svg width="166" height="166" viewBox="0 0 166 166" fill="none" xmlns="http://www.w3.org/2000/svg">
<rect width="166" height="166" rx="83" fill="#50505A"/>
<g clip-path="url(#clip0_528_5098)">
<path fill-rule="evenodd" clip-rule="evenodd" d="M102 72C85.4315 72 72 85.4315 72 102C72 118.569 85.4315 132 102 132C118.569 132 132 118.569 132 102C132 85.4315 118.569 72 102 72ZM77.8252 102C77.8252 88.6487 88.6487 77.8252 102 77.8252C107.59 77.8252 112.738 79.7228 116.833 82.909L82.909 116.833C79.7228 112.738 77.8252 107.59 77.8252 102ZM87.0113 120.969C91.1312 124.228 96.3383 126.175 102 126.175C115.351 126.175 126.175 115.351 126.175 102C126.175 96.3383 124.228 91.1312 120.969 87.0113L87.0113 120.969Z" stroke="#F0F4F7"/>
<path d="M53.5918 41.2857C53.5918 37.2619 56.8537 34 60.8775 34H67.1224C71.1462 34 74.4081 37.2619 74.4081 41.2857V47.5306C74.4081 51.5544 71.1462 54.8163 67.1224 54.8163H60.8775C56.8537 54.8163 53.5918 51.5544 53.5918 47.5306V41.2857Z" stroke="#F0F4F7"/>
<path d="M64.6721 70.4231H63.2657H62.296C62.0554 70.4231 61.8404 70.5732 61.7574 70.799C61.7574 70.799 61.7574 70.799 61.7574 70.799L56.1881 85.9558C56.0505 86.3304 56.3277 86.7275 56.7267 86.7275H60.5293C60.7809 86.7275 61.0033 86.5635 61.0775 86.323L61.8352 83.8684H66.1518L66.9118 86.3234C66.9862 86.5637 67.2084 86.7275 67.4599 86.7275H71.2729C71.6723 86.7275 71.9495 86.3295 71.8111 85.9548L71.3421 86.1281L71.8111 85.9548L66.2105 70.798C66.1273 70.5727 65.9125 70.4231 65.6723 70.4231H64.6721ZM57.1267 86.3007L56.9275 86.2275L57.1267 86.3007L57.1269 86.3004C57.1268 86.3005 57.1268 86.3006 57.1267 86.3007ZM63.9905 76.8866L64.9605 80.0199H63.0233L63.9905 76.8866Z" stroke="#F0F4F7"/>
<path d="M73 93.9999H35C34.4477 93.9999 34 93.5522 34 92.9999V80.9387C34 69.893 42.9543 60.9387 54 60.9387H74C82.4168 60.9387 89.6193 66.138 92.5709 73.5" stroke="#F0F4F7"/>
</g>
<defs>
<clipPath id="clip0_528_5098">
<rect width="100" height="100" fill="white" transform="translate(33 33)"/>
</clipPath>
</defs>
</svg>
