<svg width="166" height="166" viewBox="0 0 166 166" fill="none" xmlns="http://www.w3.org/2000/svg">
<rect width="166" height="166" rx="83" fill="#50505A"/>
<g clip-path="url(#clip0_528_5107)">
<path d="M70.7899 89.2483C70.9285 86.4931 71.212 84.8899 71.7862 83.9538C73.1634 81.7118 75.4291 80.3948 78.0054 80.3402C78.0972 80.3402 78.1875 80.3402 78.2778 80.3402C80.8912 80.3671 83.1768 81.6588 84.5556 83.8841C85.1781 84.8899 85.4766 86.4661 85.6073 89.2491M91.1684 92.7677C91.208 89.7765 91.2476 87.246 91.1977 86.5372C90.8151 80.5936 85.6889 75.5489 79.5283 75.0539C79.1418 75.0222 78.7553 75.0048 78.3792 75.0008C75.0205 74.966 72.0554 76.0161 69.5679 78.1203C67.0994 80.2087 65.4775 83.2862 65.2296 86.3527C65.1774 87.006 65.1774 89.7543 65.1845 92.8112M114.994 44.1965H68.0073M123.163 87.5314L131.237 66.1883C132.932 60.6799 131.696 55.1371 128.59 50.9941M50.6677 50.9941C48.5646 52.9534 46.802 55.2557 45.4586 57.7917M82.0875 50.9941H127.807C129.684 50.9941 131.206 49.4724 131.206 47.5953C131.206 45.7182 129.684 44.1965 127.807 44.1965H49.6343C47.7571 44.1965 46.2354 45.7182 46.2354 47.5953C46.2354 49.4724 47.7571 50.9941 49.6343 50.9941H72.4712M51.0057 57.7917H97.9927M37.3988 64.6048C34.3007 68.7461 33.0703 74.282 34.7631 79.7835L46.5437 126.07C47.6407 129.636 50.9347 132 54.665 132H105.143C108.8 132 112.048 129.728 113.204 126.259L122.176 91.3439C125.521 81.3075 122.29 71.0716 115.332 64.5894M78.2002 123.345C87.589 123.345 95.2002 116.013 95.2002 106.969C95.2002 97.9241 87.589 90.592 78.2002 90.592C68.8114 90.592 61.2002 97.9241 61.2002 106.969C61.2002 116.013 68.8114 123.345 78.2002 123.345ZM81.3015 104.152C81.2524 104.382 81.0916 104.612 80.8881 104.902C80.6355 105.262 80.3209 105.711 80.1816 106.286C79.9441 107.25 80.0232 108.345 80.1088 109.507C80.188 110.571 80.2672 111.777 80.0217 112.464C79.7587 113.192 78.9399 113.517 78.2445 113.517C77.9404 113.517 76.9196 113.438 76.5656 112.464C76.2651 111.633 76.3555 110.596 76.4512 109.499L76.4516 109.495C76.5403 108.481 76.6313 107.432 76.4143 106.421C76.2559 105.696 75.8829 105.148 75.582 104.708C75.4719 104.55 75.3056 104.305 75.2795 104.221C75.0649 103.305 75.2177 102.411 75.7087 101.703C76.1641 101.049 76.8824 100.612 77.7313 100.472C77.9408 100.437 78.1527 100.42 78.3649 100.419C79.3208 100.419 80.1571 100.784 80.7186 101.449C81.3157 102.149 81.5224 103.11 81.3015 104.152ZM88.7207 44.1965C91.5363 44.1965 93.8189 41.9139 93.8189 39.0982C93.8189 36.2826 91.5363 34 88.7207 34C85.905 34 83.6224 36.2826 83.6224 39.0982C83.6224 41.9139 85.905 44.1965 88.7207 44.1965ZM38.1929 64.5894H116.366C118.243 64.5894 119.765 63.0677 119.765 61.1905C119.765 59.3134 118.243 57.7917 116.366 57.7917H38.1929C36.3158 57.7917 34.7941 59.3134 34.7941 61.1905C34.7941 63.0677 36.3158 64.5894 38.1929 64.5894ZM77.2793 57.7917C74.4637 57.7917 72.1811 55.5092 72.1811 52.6935C72.1811 49.8778 74.4637 47.5953 77.2793 47.5953C80.095 47.5953 82.3776 49.8778 82.3776 52.6935C82.3776 55.5092 80.095 57.7917 77.2793 57.7917Z" stroke="#F0F4F7" stroke-linecap="round"/>
</g>
<defs>
<clipPath id="clip0_528_5107">
<rect width="100" height="100" fill="white" transform="translate(33 33)"/>
</clipPath>
</defs>
</svg>
