<?xml version="1.0" encoding="UTF-8"?> <svg xmlns="http://www.w3.org/2000/svg" width="80" height="80" viewBox="0 0 80 80" fill="none"> <path d="M17.65 36.2001C13.0411 33.1592 10 27.9348 10 22C10 12.6112 17.6112 5 27 5C36.3888 5 44 12.6112 44 22C44 25.6385 42.8569 29.01 40.9104 31.775" stroke="#F0F4F7" stroke-width="10"></path> <circle cx="54" cy="22" r="10" stroke="#F0F4F7" stroke-width="10"></circle> <path d="M70 60V75H10V60C10 43.4315 23.4315 30 40 30C56.5685 30 70 43.4315 70 60Z" stroke="#F0F4F7" stroke-width="10"></path> <path d="M40.0001 27.6679V38.265M51.2324 33.6454C47.4901 32.0818 43.7425 35.2091 40.0001 33.6454V27.6514C43.7425 29.2151 47.4901 26.0877 51.2324 27.6514V33.6454Z" stroke="#D0C018" stroke-linecap="round"></path> <path d="M14.6809 47.3704C14.3928 47.4744 14.4674 47.9009 14.7736 47.9009H65.2264C65.5326 47.9009 65.6072 47.4744 65.3191 47.3704L40.3369 38.3578C40.1176 38.2787 39.8775 38.2787 39.6582 38.3579L14.6809 47.3704Z" stroke="#4E617D" stroke-linecap="round"></path> <path d="M24.1451 47.9H20.8648V72.5781H24.1451V47.9Z" stroke="#4E617D" stroke-linecap="round"></path> <path d="M32.8927 47.9H29.6124V72.5781H32.8927V47.9Z" stroke="#4E617D" stroke-linecap="round"></path> <path d="M50.3879 47.9H47.1076V72.5781H50.3879V60.239V47.9Z" stroke="#4E617D" stroke-linecap="round"></path> <path d="M59.3966 47.9H56.1162V72.5781H59.3966V47.9Z" stroke="#4E617D" stroke-linecap="round"></path> <path d="M15.9443 72.5781C15.6423 72.5781 15.3976 72.8229 15.3976 73.1248V76.9519C15.3976 77.2538 15.6423 77.4986 15.9443 77.4986H64.056C64.358 77.4986 64.6027 77.2538 64.6027 76.9519V73.1248C64.6027 72.8229 64.358 72.5781 64.056 72.5781H15.9443Z" stroke="#4E617D" stroke-linecap="round"></path> </svg> 