<?xml version="1.0" encoding="UTF-8"?> <svg xmlns="http://www.w3.org/2000/svg" width="80" height="80" viewBox="0 0 80 80" fill="none"> <path d="M10 35.5C16.0972 42.1901 27.2508 45 40 45C52.7492 45 63.9028 42.1901 70 35.5M35.5098 6C47.6272 9.3679 52.4729 23.3111 52.4729 40C52.4729 56.6889 47.6272 70.6321 35.5098 74M44.4903 6C32.3728 9.3679 27.5271 23.3111 27.5271 40C27.5271 56.6889 32.3728 70.6321 44.4903 74M69.935 40C69.935 59.33 56.5326 75 40 75C23.4674 75 10.065 59.33 10.065 40C10.065 20.67 23.4674 5 40 5C56.5326 5 69.935 20.67 69.935 40Z" stroke="#F0F4F7" stroke-width="10"></path> <path d="M37.4999 66.0001V72.5001M42.5001 66.0001V72.5001M40 32V68.5M44 31.2C44 30.6747 43.8965 30.1546 43.6955 29.6693C43.4945 29.184 43.1999 28.743 42.8284 28.3716C42.457 28.0002 42.016 27.7055 41.5307 27.5045C41.0454 27.3035 40.5253 27.2 40 27.2C39.4747 27.2 38.9546 27.3035 38.4693 27.5045C37.984 27.7055 37.543 28.0002 37.1716 28.3716C36.8001 28.743 36.5055 29.184 36.3045 29.6693C36.1035 30.1546 36 30.6747 36 31.2M46.5572 30.7001H57.9689C60.6105 30.7001 63.2064 30.0107 65.5 28.7001M33.4428 30.7001H22.0311C19.3895 30.7001 16.7936 30.0107 14.5 28.7001M20 72.5001H60V75.5001C60 76.6046 59.1046 77.5001 58 77.5001H22C20.8954 77.5001 20 76.6046 20 75.5001V72.5001Z" stroke="#4E617D" stroke-linecap="round" stroke-linejoin="round"></path> <path d="M28 35H30L34 60H24L28 35Z" stroke="#D0C018" stroke-linecap="round" stroke-linejoin="round"></path> <path d="M50 35H52L56 60H46L50 35Z" stroke="#D0C018" stroke-linecap="round" stroke-linejoin="round"></path> </svg> 