<?xml version="1.0" encoding="UTF-8"?> <svg xmlns="http://www.w3.org/2000/svg" width="80" height="80" viewBox="0 0 80 80" fill="none"> <path d="M70 18V12C70 8.13401 56.5685 5 40 5C23.4315 5 10 8.13401 10 12V18" stroke="#F0F4F7" stroke-width="10"></path> <path d="M70 14C70 17.866 56.5685 21 40 21C23.4315 21 10 17.866 10 14" stroke="#F0F4F7" stroke-width="10"></path> <path d="M70 14V41C70 44.866 56.5685 48 40 48C23.4315 48 10 44.866 10 41V14" stroke="#F0F4F7" stroke-width="10"></path> <path d="M70 41V68C70 71.866 56.5685 75 40 75C23.4315 75 10 71.866 10 68V41" stroke="#F0F4F7" stroke-width="10"></path> <circle cx="57" cy="33" r="5" fill="#F0F4F7"></circle> <circle cx="57" cy="60" r="5" fill="#F0F4F7"></circle> <path d="M33.09 44.2322L40.2425 34.1884C40.5514 33.7546 41.1889 34.1388 40.9991 34.6443L38.937 40.1361C38.8218 40.443 39.034 40.7768 39.3443 40.7768L46.5606 40.7768C46.9275 40.7768 47.1322 41.2282 46.9042 41.5344L39.247 51.8196C38.9328 52.2416 38.3083 51.8558 38.4961 51.3557L40.6488 45.6226C40.764 45.3157 40.5518 44.9819 40.2416 44.9819L33.4394 44.9818C33.0769 44.9818 32.8709 44.5399 33.09 44.2322Z" stroke="#D0C018"></path> <path d="M34.4219 72.58H45.5781M40.5314 27.2H39.5308C30.4011 27.2 23 34.4438 23 43.3794C23 47.5895 24.6767 51.6337 27.674 54.6534L31.1875 58.193C33.5926 60.6161 34.9427 63.8585 34.9531 67.2367V67.7567M39.4688 27.2H40.4692C49.5989 27.2 57 34.4438 57 43.3794C57 47.5895 55.3233 51.6337 52.326 54.6534L48.8125 58.193C46.4074 60.6161 45.0573 63.8585 45.0469 67.2367L45.0469 67.7567M34.4219 77.5H40H45.5781" stroke="#4E617D" stroke-linecap="round"></path> <path d="M51.4152 29.1074L57.0506 28L55.5307 33.5237M58.7655 40.0528L65.5 43.2028L58.7655 46.3528M55.5307 52.8819L57.0506 58.4056L51.4152 57.2982M28.5848 29.1074L22.9494 28L24.4693 33.5237M21.2345 40.0528L14.5 43.2028L21.2345 46.3528M24.4693 52.8819L22.9494 58.4056L28.5848 57.2982" stroke="#4E617D" stroke-linecap="round" stroke-linejoin="round"></path> </svg> 