<?xml version="1.0" encoding="UTF-8"?> <svg xmlns="http://www.w3.org/2000/svg" width="70" height="70" viewBox="0 0 70 70" fill="none"> <g clip-path="url(#clip0_3746_937)"> <path d="M21.0605 38.5311V39.0311H22.0605V38.5311H21.0605ZM47.9395 38.5311V39.0311H48.9395V38.5311H47.9395ZM15.8915 42.1494C15.8915 42.4256 16.1153 42.6494 16.3915 42.6494C16.6676 42.6494 16.8915 42.4256 16.8915 42.1494H15.8915ZM17.342 57.6284L17.7869 57.4003L17.342 57.6284ZM52.658 57.6284L52.2131 57.4003L52.2131 57.4003L52.658 57.6284ZM59.9424 43.419L60.3873 43.6471L60.3873 43.6471L59.9424 43.419ZM10.0576 43.419L10.5025 43.1909L10.5025 43.1909L10.0576 43.419ZM35 37.9622C32.4698 37.9622 30.4259 36.6979 28.9256 34.6376C27.4179 32.5671 26.4741 29.7055 26.1937 26.5974L25.1978 26.6873C25.4899 29.925 26.4767 32.9733 28.1173 35.2263C29.7653 37.4895 32.0871 38.9622 35 38.9622V37.9622ZM43.8063 26.5974C43.5259 29.7055 42.5821 32.5671 41.0744 34.6376C39.5741 36.6979 37.5302 37.9622 35 37.9622V38.9622C37.9129 38.9622 40.2347 37.4895 41.8827 35.2263C43.5233 32.9733 44.5101 29.925 44.8022 26.6873L43.8063 26.5974ZM22.0605 38.5311C22.0605 33.3931 23.1522 29.7837 25.2636 27.4581C27.3657 25.1428 30.565 24.0064 35 24.0064V23.0064C30.4035 23.0064 26.883 24.1868 24.5233 26.7859C22.1728 29.3748 21.0605 33.2777 21.0605 38.5311H22.0605ZM35 24.0064C39.435 24.0064 42.6343 25.1428 44.7364 27.4581C46.8478 29.7837 47.9395 33.3931 47.9395 38.5311H48.9395C48.9395 33.2777 47.8272 29.3748 45.4767 26.7859C43.117 24.1868 39.5965 23.0064 35 23.0064V24.0064ZM16.8915 42.1494C16.8915 33.8243 18.8202 25.1139 22.08 18.501C25.3581 11.8511 29.8837 7.5 35 7.5V6.5C29.2785 6.5 24.4998 11.3306 21.1831 18.0589C17.8481 24.8242 15.8915 33.6885 15.8915 42.1494H16.8915ZM35 7.5C40.1163 7.5 44.6419 11.8511 47.92 18.501C51.1798 25.1139 53.1085 33.8243 53.1085 42.1494H54.1085C54.1085 33.6885 52.1519 24.8242 48.8169 18.0589C45.5002 11.3306 40.7215 6.5 35 6.5V7.5ZM10.5176 43.1663H59.4824V42.1663H10.5176V43.1663ZM59.4975 43.1909L52.2131 57.4003L53.103 57.8565L60.3873 43.6471L59.4975 43.1909ZM52.6121 57.1565H17.388V58.1565H52.6121V57.1565ZM17.7869 57.4003L10.5025 43.1909L9.61267 43.6471L16.897 57.8565L17.7869 57.4003ZM17.388 57.1565C17.5561 57.1565 17.7102 57.2507 17.7869 57.4003L16.897 57.8565C16.9914 58.0407 17.181 58.1565 17.388 58.1565V57.1565ZM52.2131 57.4003C52.2898 57.2507 52.4439 57.1565 52.6121 57.1565V58.1565C52.819 58.1565 53.0086 58.0407 53.103 57.8565L52.2131 57.4003ZM59.4824 43.1663C59.4864 43.1663 59.4884 43.1668 59.4889 43.167C59.4896 43.1672 59.49 43.1673 59.4905 43.1676C59.4917 43.1683 59.4944 43.1704 59.4968 43.1744C59.4993 43.1785 59.4999 43.1818 59.5 43.1832C59.5 43.1837 59.5 43.1842 59.4999 43.1849C59.4997 43.1854 59.4993 43.1874 59.4975 43.1909L60.3873 43.6471C60.7342 42.9705 60.2428 42.1663 59.4824 42.1663V43.1663ZM10.5176 42.1663C9.75716 42.1663 9.26576 42.9705 9.61267 43.6471L10.5025 43.1909C10.5007 43.1874 10.5003 43.1854 10.5001 43.1849C10.5 43.1842 10.5 43.1837 10.5 43.1832C10.5001 43.1818 10.5007 43.1785 10.5032 43.1744C10.5056 43.1704 10.5083 43.1683 10.5095 43.1676C10.51 43.1673 10.5104 43.1672 10.5111 43.167C10.5116 43.1668 10.5136 43.1663 10.5176 43.1663V42.1663ZM31.9155 50.9368C31.9155 52.6403 33.2965 54.0213 35 54.0213V53.0213C33.8488 53.0213 32.9155 52.088 32.9155 50.9368H31.9155ZM35 47.8523C33.2965 47.8523 31.9155 49.2333 31.9155 50.9368H32.9155C32.9155 49.7855 33.8488 48.8523 35 48.8523V47.8523ZM38.0845 50.9368C38.0845 49.2333 36.7035 47.8523 35 47.8523V48.8523C36.1512 48.8523 37.0845 49.7855 37.0845 50.9368H38.0845ZM37.0845 50.9368C37.0845 52.088 36.1512 53.0213 35 53.0213V54.0213C36.7035 54.0213 38.0845 52.6403 38.0845 50.9368H37.0845Z" fill="#4E617D"></path> <path d="M3 74L73.7107 3.28932" stroke="#FBFCFD" stroke-width="6"></path> <path d="M3 74L73.7107 3.28932" stroke="#50505A" stroke-width="3"></path> </g> <rect x="1.5" y="1.5" width="67" height="67" rx="33.5" stroke="#50505A" stroke-width="3"></rect> <defs> <clipPath id="clip0_3746_937"> <rect width="70" height="70" rx="35" fill="white"></rect> </clipPath> </defs> </svg> 