<?xml version="1.0" encoding="UTF-8"?> <svg xmlns="http://www.w3.org/2000/svg" width="70" height="70" viewBox="0 0 70 70" fill="none"> <g clip-path="url(#clip0_3746_927)"> <path d="M41.9883 23.9637L42.3608 24.2973L41.9883 23.9637ZM42.664 23.8904L42.3716 24.2961L42.3716 24.2961L42.664 23.8904ZM40.5651 26.2337L40.9362 25.8986L40.9362 25.8986L40.5651 26.2337ZM40.5638 25.5541L40.1913 25.2205L40.1913 25.2205L40.5638 25.5541ZM53.6303 40.7054L53.2591 41.0405L53.2591 41.0405L53.6303 40.7054ZM58.4814 35.2896L58.7737 34.884L58.7737 34.884L58.4814 35.2896ZM28.8105 28.2404L28.3124 28.197L28.3124 28.197L28.8105 28.2404ZM29.4793 29.9311L29.1457 30.3035L29.1457 30.3035L29.4793 29.9311ZM32.3021 25.6371L31.9685 26.0096L31.9685 26.0096L32.3021 25.6371ZM28.9208 26.9747L29.4189 27.0182L29.4189 27.0182L28.9208 26.9747ZM36.6429 33.8916L36.5451 33.4013L36.5451 33.4013L36.6429 33.8916ZM37.6016 30.384L37.9352 30.0116L37.9352 30.0116L37.6016 30.384ZM35.397 34.1401L35.4948 34.6305L35.4948 34.6305L35.397 34.1401ZM33.6432 33.6608L33.9768 33.2883L33.9768 33.2883L33.6432 33.6608ZM43.3223 12.0393L43.4201 12.5296L43.4201 12.5296L43.3223 12.0393ZM45.0761 12.5186L45.4097 12.1462L45.0761 12.5186ZM41.1177 15.7954L40.7841 16.1678L40.7841 16.1678L41.1177 15.7954ZM42.0764 12.2878L41.9786 11.7974L41.9786 11.7974L42.0764 12.2878ZM49.7985 19.2046L49.3003 19.1612L49.3003 19.1612L49.7985 19.2046ZM46.4171 20.5422L46.7508 20.1698L46.7508 20.1698L46.4171 20.5422ZM49.9088 17.939L50.4069 17.9824L50.4069 17.9824L49.9088 17.939ZM49.24 16.2483L48.9064 16.6208L49.24 16.2483ZM17.6228 38.4338C17.3466 38.4338 17.1228 38.6576 17.1228 38.9338C17.1228 39.2099 17.3466 39.4338 17.6228 39.4338V38.4338ZM34.901 39.4338C35.1772 39.4338 35.401 39.2099 35.401 38.9338C35.401 38.6576 35.1772 38.4338 34.901 38.4338V39.4338ZM17.6228 43.0074C17.3466 43.0074 17.1228 43.2313 17.1228 43.5074C17.1228 43.7836 17.3466 44.0074 17.6228 44.0074V43.0074ZM34.901 44.0074C35.1772 44.0074 35.401 43.7836 35.401 43.5074C35.401 43.2313 35.1772 43.0074 34.901 43.0074V44.0074ZM26.2619 47.5811C25.9858 47.5811 25.7619 47.8049 25.7619 48.0811C25.7619 48.3572 25.9858 48.5811 26.2619 48.5811V47.5811ZM34.901 48.5811C35.1772 48.5811 35.401 48.3572 35.401 48.0811C35.401 47.8049 35.1772 47.5811 34.901 47.5811V48.5811ZM54.0014 40.3704L40.9362 25.8986L40.194 26.5687L53.2591 41.0405L54.0014 40.3704ZM40.9362 25.8877L42.3608 24.2973L41.6159 23.6301L40.1913 25.2205L40.9362 25.8877ZM42.3716 24.2961L58.1891 35.6952L58.7737 34.884L42.9563 23.4848L42.3716 24.2961ZM42.3608 24.2973C42.3636 24.2941 42.3682 24.2936 42.3716 24.2961L42.9563 23.4848C42.5381 23.1834 41.9598 23.2461 41.6159 23.6301L42.3608 24.2973ZM40.9362 25.8986C40.9334 25.8955 40.9334 25.8908 40.9362 25.8877L40.1913 25.2205C39.8474 25.6045 39.8485 26.1861 40.194 26.5687L40.9362 25.8986ZM58.6947 40.3612C57.4436 41.7579 55.2579 41.7622 54.0014 40.3704L53.2591 41.0405C54.9138 42.8733 57.7921 42.8677 59.4395 41.0284L58.6947 40.3612ZM59.4395 41.0284C61.087 39.1892 60.7769 36.3276 58.7737 34.884L58.1891 35.6952C59.7103 36.7915 59.9457 38.9645 58.6947 40.3612L59.4395 41.0284ZM45.3113 19.5042L36.4956 29.3461L37.2405 30.0133L46.0562 20.1714L45.3113 19.5042ZM33.4552 26.6226L42.2708 16.7808L41.5259 16.1136L32.7103 25.9554L33.4552 26.6226ZM35.4948 34.6305L36.7407 34.382L36.5451 33.4013L35.2992 33.6498L35.4948 34.6305ZM37.9352 30.0116L32.6357 25.2647L31.9685 26.0096L37.268 30.7565L37.9352 30.0116ZM28.4227 26.9313L28.3124 28.197L29.3086 28.2838L29.4189 27.0182L28.4227 26.9313ZM29.1457 30.3035L33.3096 34.0332L33.9768 33.2883L29.8129 29.5586L29.1457 30.3035ZM28.3124 28.197C28.2432 28.9912 28.5519 29.7716 29.1457 30.3035L29.8129 29.5586C29.4536 29.2367 29.2667 28.7644 29.3086 28.2838L28.3124 28.197ZM32.6357 25.2647C31.0811 23.8722 28.604 24.8521 28.4227 26.9313L29.4189 27.0182C29.5286 25.7599 31.0277 25.1669 31.9685 26.0096L32.6357 25.2647ZM36.7407 34.382C38.7875 33.9738 39.4898 31.4041 37.9352 30.0116L37.268 30.7565C38.2088 31.5992 37.7838 33.1543 36.5451 33.4013L36.7407 34.382ZM35.2992 33.6498C34.8261 33.7441 34.3361 33.6102 33.9768 33.2883L33.3096 34.0332C33.9034 34.5651 34.713 34.7864 35.4948 34.6305L35.2992 33.6498ZM49.4107 17.8956L49.3003 19.1612L50.2966 19.2481L50.4069 17.9824L49.4107 17.8956ZM46.7508 20.1698L41.4513 15.4229L40.7841 16.1678L46.0835 20.9147L46.7508 20.1698ZM42.1742 12.7781L43.4201 12.5296L43.2245 11.5489L41.9786 11.7974L42.1742 12.7781ZM44.7425 12.8911L48.9064 16.6208L49.5736 15.8759L45.4097 12.1462L44.7425 12.8911ZM43.4201 12.5296C43.8932 12.4353 44.3831 12.5692 44.7425 12.8911L45.4097 12.1462C44.8159 11.6143 44.0063 11.393 43.2245 11.5489L43.4201 12.5296ZM41.4513 15.4229C40.5105 14.5802 40.9355 13.0251 42.1742 12.7781L41.9786 11.7974C39.9318 12.2056 39.2295 14.7753 40.7841 16.1678L41.4513 15.4229ZM49.3003 19.1612C49.1907 20.4195 47.6916 21.0125 46.7508 20.1698L46.0835 20.9147C47.6382 22.3072 50.1153 21.3273 50.2966 19.2481L49.3003 19.1612ZM50.4069 17.9824C50.4761 17.1882 50.1674 16.4078 49.5736 15.8759L48.9064 16.6208C49.2657 16.9426 49.4526 17.4149 49.4107 17.8956L50.4069 17.9824ZM41.5156 28.0078V60.7857H42.5156V28.0078H41.5156ZM40.9992 61.3021H30.3274V62.3021H40.9992V61.3021ZM10.5 41.4747V23.1801H9.5V41.4747H10.5ZM11.0164 22.6637H36.6797V21.6637H11.0164V22.6637ZM30.3274 61.3021C19.377 61.3021 10.5 52.425 10.5 41.4747H9.5C9.5 52.9773 18.8247 62.3021 30.3274 62.3021V61.3021ZM41.5156 60.7857C41.5156 61.0709 41.2844 61.3021 40.9992 61.3021V62.3021C41.8367 62.3021 42.5156 61.6232 42.5156 60.7857H41.5156ZM10.5 23.1801C10.5 22.8949 10.7312 22.6637 11.0164 22.6637V21.6637C10.1789 21.6637 9.5 22.3426 9.5 23.1801H10.5ZM17.6228 39.4338H34.901V38.4338H17.6228V39.4338ZM17.6228 44.0074H34.901V43.0074H17.6228V44.0074ZM26.2619 48.5811H34.901V47.5811H26.2619V48.5811Z" fill="#4E617D"></path> <path d="M3 74L73.7107 3.28932" stroke="#FBFCFD" stroke-width="6"></path> <path d="M3 74L73.7107 3.28932" stroke="#50505A" stroke-width="3"></path> </g> <rect x="1.5" y="1.5" width="67" height="67" rx="33.5" stroke="#50505A" stroke-width="3"></rect> <defs> <clipPath id="clip0_3746_927"> <rect width="70" height="70" rx="35" fill="white"></rect> </clipPath> </defs> </svg> 