<?xml version="1.0" encoding="UTF-8"?> <svg xmlns="http://www.w3.org/2000/svg" width="70" height="70" viewBox="0 0 70 70" fill="none"> <g clip-path="url(#clip0_3745_848)"> <path d="M16.8208 29.9971L16.3304 30.0947L16.3304 30.0947L16.8208 29.9971ZM47.8886 13.3911L47.535 13.7446L47.535 13.7446L47.8886 13.3911ZM53.2796 26.4062L52.7796 26.4062L53.2796 26.4062ZM43.3217 24.1109L42.8272 24.0369L42.8271 24.0378L43.3217 24.1109ZM39.2531 19.4434L38.7679 19.3224C38.7052 19.574 38.8452 19.8317 39.0902 19.9161L39.2531 19.4434ZM40.0844 16.1089L40.5695 16.2299C40.6016 16.1012 40.5813 15.965 40.5129 15.8514C40.4446 15.7377 40.334 15.6558 40.2053 15.6238L40.0844 16.1089ZM38.0547 15.6031L38.1756 15.1179C37.9077 15.0512 37.6363 15.2142 37.5695 15.4821L38.0547 15.6031ZM37.2454 18.8497L37.1245 19.3348C37.3924 19.4016 37.6637 19.2385 37.7305 18.9706L37.2454 18.8497ZM35.6192 18.467L35.134 18.346C35.1015 18.4763 35.1228 18.6143 35.1932 18.7287C35.2635 18.8432 35.3769 18.9245 35.5079 18.9544L35.6192 18.467ZM36.4343 15.199L36.9194 15.32C36.9515 15.1913 36.9312 15.0552 36.8629 14.9415C36.7946 14.8278 36.6839 14.7459 36.5553 14.7139L36.4343 15.199ZM34.4058 14.6932L34.5267 14.208C34.2588 14.1412 33.9875 14.3042 33.9206 14.5721L34.4058 14.6932ZM33.5739 18.0265L33.4629 18.514C33.7282 18.5744 33.9931 18.4115 34.059 18.1475L33.5739 18.0265ZM32.2778 17.7218L31.7897 17.6134C31.7309 17.8782 31.8939 18.1416 32.1572 18.207L32.2778 17.7218ZM32.2801 17.7114L32.7682 17.8198C32.827 17.5552 32.6642 17.292 32.4012 17.2263L32.2801 17.7114ZM29.481 17.0125L29.6021 16.5274C29.4734 16.4952 29.3372 16.5156 29.2235 16.5839C29.1098 16.6522 29.0279 16.7629 28.9958 16.8916L29.481 17.0125ZM28.941 19.1803L28.4559 19.0595C28.4234 19.1898 28.4447 19.3276 28.515 19.442C28.5852 19.5564 28.6985 19.6377 28.8294 19.6677L28.941 19.1803ZM30.4152 19.5468L30.1361 19.132C29.9722 19.2423 29.8886 19.4387 29.9227 19.6333C29.9569 19.8279 30.1024 19.9841 30.2941 20.032L30.4152 19.5468ZM31.3609 20.7273L31.8461 20.8482C31.8536 20.818 31.8583 20.7872 31.8601 20.7561L31.3609 20.7273ZM30.414 24.526L29.9288 24.405L29.9277 24.4096L30.414 24.526ZM30.4106 24.5404L30.8957 24.6614L30.8968 24.6568L30.4106 24.5404ZM29.0832 29.8618L29.547 30.0486C29.5557 30.0272 29.5628 30.0052 29.5684 29.9828L29.0832 29.8618ZM28.1531 30.3439L28.2732 29.8586C28.0717 29.8087 27.8604 29.8885 27.7421 30.0591C27.6239 30.2298 27.6234 30.4557 27.7408 30.6268L28.1531 30.3439ZM26.6778 29.9757L26.8063 29.4925C26.5672 29.4289 26.3175 29.5497 26.2191 29.7767L26.6778 29.9757ZM25.6702 32.299L25.2115 32.1001C25.153 32.2349 25.1568 32.3886 25.2218 32.5204C25.2869 32.6522 25.4066 32.7486 25.5492 32.7842L25.6702 32.299ZM28.3115 32.9575L28.433 32.4725L28.4324 32.4723L28.3115 32.9575ZM29.7585 33.3309L30.2436 33.4518C30.3101 33.1851 30.1488 32.9147 29.8825 32.8466L29.7585 33.3309ZM28.9185 36.7035L28.4333 36.5827C28.3666 36.8506 28.5296 37.1218 28.7975 37.1887L28.9185 36.7035ZM30.9459 37.2094L30.8248 37.6945C30.9535 37.7266 31.0897 37.7063 31.2034 37.638C31.317 37.5697 31.3989 37.459 31.431 37.3303L30.9459 37.2094ZM31.7777 33.8726L31.9087 33.3901C31.779 33.3549 31.6406 33.3734 31.5247 33.4414C31.4088 33.5094 31.3251 33.6212 31.2926 33.7517L31.7777 33.8726ZM33.3953 34.2923L33.8804 34.4134C33.9125 34.2846 33.8921 34.1484 33.8238 34.0347C33.7554 33.9209 33.6446 33.839 33.5158 33.8071L33.3953 34.2923ZM32.5663 37.6135L32.0812 37.4924C32.049 37.6211 32.0694 37.7572 32.1377 37.8709C32.206 37.9846 32.3167 38.0665 32.4454 38.0986L32.5663 37.6135ZM34.596 38.1193L34.475 38.6045C34.7429 38.6712 35.0142 38.5082 35.0811 38.2403L34.596 38.1193ZM35.4359 34.7531L35.5289 34.2618C35.2685 34.2125 35.015 34.3749 34.9508 34.632L35.4359 34.7531ZM42.5951 32.0135L42.1232 31.8482L42.1231 31.8483L42.5951 32.0135ZM40.7301 27.091L40.6178 26.6038C40.4137 26.6508 40.2606 26.8201 40.2341 27.0278C40.2077 27.2356 40.3135 27.4378 40.4992 27.5345L40.7301 27.091ZM38.6842 30.6139L38.1991 30.4929L38.199 30.4931L38.6842 30.6139ZM32.4373 31.4302L31.9522 31.3091C31.9201 31.4379 31.9405 31.5741 32.0089 31.6879C32.0773 31.8016 32.1881 31.8834 32.3168 31.9154L32.4373 31.4302ZM33.5519 26.9621L33.673 26.4769C33.5443 26.4448 33.4082 26.4651 33.2945 26.5334C33.1808 26.6017 33.0989 26.7124 33.0668 26.841L33.5519 26.9621ZM39.312 24.0745L39.7972 24.1956L39.7972 24.1954L39.312 24.0745ZM34.0618 24.9168L33.5766 24.7958C33.5446 24.9245 33.5649 25.0606 33.6332 25.1743C33.7015 25.288 33.8122 25.3698 33.9409 25.4019L34.0618 24.9168ZM35.0723 20.8643L35.1932 20.3792C34.9253 20.3124 34.654 20.4754 34.5872 20.7434L35.0723 20.8643ZM14.5203 36.0059L14.0232 36.0596L14.0232 36.0596L14.5203 36.0059ZM16.127 50.8677L15.6299 50.9214L15.6299 50.9214L16.127 50.8677ZM34.772 48.2605L34.4185 47.907L34.4185 47.907L34.772 48.2605ZM34.8735 48.159L35.2271 48.5126L35.2271 48.5126L34.8735 48.159ZM41.5667 48.159L41.9203 48.5126L41.9203 48.5126L41.5667 48.159ZM41.8108 47.9149L41.4573 47.5613L41.4573 47.5613L41.8108 47.9149ZM53.2798 39.7925L52.7836 39.7305L52.7798 39.7614V39.7925H53.2798ZM54.4807 30.1849L53.9846 30.1229L53.9846 30.1229L54.4807 30.1849ZM46.3008 48.9748L46.7751 48.8167L46.7751 48.8167L46.3008 48.9748ZM48.2599 54.8522L48.7502 54.7541L48.7441 54.7236L48.7342 54.6941L48.2599 54.8522ZM49.7234 29.5478L49.2284 29.4771L49.2284 29.4771L49.7234 29.5478ZM49.1053 33.8745L49.6003 33.9452L49.6003 33.9452L49.1053 33.8745ZM28.6485 42.4585L28.4903 42.9329L28.4903 42.9329L28.6485 42.4585ZM24.0341 40.9204L23.8759 41.3947L23.8759 41.3947L24.0341 40.9204ZM37.9493 40.414L37.6493 40.014L37.6493 40.014L37.9493 40.414ZM37.0386 41.097L37.3386 41.497L37.3386 41.497L37.0386 41.097ZM42.3114 39.1977L42.2617 39.6952L42.2617 39.6952L42.3114 39.1977ZM51.3403 27.6104L51.4984 28.0848L51.3403 27.6104ZM24.6359 47.3159L24.884 47.75L24.884 47.75L24.6359 47.3159ZM20.1623 34.0132L20.5829 33.7428L20.5829 33.7428L20.1623 34.0132ZM17.3112 29.8996C16.6203 26.4261 16.9749 22.8258 18.3302 19.5538L17.4063 19.1711C15.9753 22.6258 15.6009 26.4272 16.3304 30.0947L17.3112 29.8996ZM18.3302 19.5538C19.6855 16.2819 21.9805 13.4853 24.9252 11.5177L24.3696 10.6863C21.2605 12.7637 18.8373 15.7165 17.4063 19.1711L18.3302 19.5538ZM24.9252 11.5177C27.8699 9.55018 31.3319 8.5 34.8734 8.5V7.5C31.1341 7.5 27.4788 8.60883 24.3696 10.6863L24.9252 11.5177ZM34.8734 8.5C39.6224 8.5 44.1769 10.3865 47.535 13.7446L48.2421 13.0375C44.6965 9.4919 39.8876 7.5 34.8734 7.5V8.5ZM47.535 13.7446C50.8931 17.1027 52.7796 21.6572 52.7796 26.4062L53.7796 26.4062C53.7796 21.392 51.7877 16.5831 48.2421 13.0375L47.535 13.7446ZM52.7796 26.4062C52.7796 26.9513 52.7547 27.4944 52.7055 28.0341L53.7013 28.125C53.7534 27.5552 53.7796 26.9817 53.7796 26.4062L52.7796 26.4062ZM17.983 32.3518C17.7024 31.5545 17.4774 30.7352 17.3112 29.8996L16.3304 30.0947C16.5059 30.977 16.7434 31.842 17.0398 32.6839L17.983 32.3518ZM43.8162 24.1849C44.0248 22.7906 43.5901 21.6884 42.7415 20.833C41.9177 20.0026 40.7218 19.4205 39.4159 18.9706L39.0902 19.9161C40.3471 20.3491 41.3696 20.8699 42.0315 21.5372C42.6686 22.1795 42.9869 22.9697 42.8272 24.0369L43.8162 24.1849ZM39.7382 19.5643L40.5695 16.2299L39.5992 15.988L38.7679 19.3224L39.7382 19.5643ZM40.2053 15.6238L38.1756 15.1179L37.9338 16.0883L39.9635 16.5941L40.2053 15.6238ZM37.5695 15.4821L36.7602 18.7287L37.7305 18.9706L38.5399 15.724L37.5695 15.4821ZM37.3663 18.3645C36.8272 18.2302 36.2744 18.1037 35.7304 17.9795L35.5079 18.9544C36.0531 19.0789 36.5964 19.2032 37.1245 19.3348L37.3663 18.3645ZM36.1043 18.588L36.9194 15.32L35.9492 15.078L35.134 18.346L36.1043 18.588ZM36.5553 14.7139L34.5267 14.208L34.2848 15.1783L36.3133 15.6841L36.5553 14.7139ZM33.9206 14.5721L33.0888 17.9054L34.059 18.1475L34.8909 14.8142L33.9206 14.5721ZM33.6849 17.5389C33.243 17.4383 32.8139 17.3399 32.3984 17.2366L32.1572 18.207C32.5834 18.313 33.0214 18.4134 33.4629 18.514L33.6849 17.5389ZM32.7659 17.8302L32.7682 17.8198L31.792 17.603L31.7897 17.6134L32.7659 17.8302ZM32.4012 17.2263L29.6021 16.5274L29.3599 17.4976L32.159 18.1965L32.4012 17.2263ZM28.9958 16.8916L28.4559 19.0595L29.4262 19.3012L29.9662 17.1333L28.9958 16.8916ZM28.941 19.1803C28.8294 19.6677 28.8294 19.6677 28.8294 19.6677C28.8294 19.6677 28.8294 19.6677 28.8294 19.6677C28.8294 19.6677 28.8295 19.6677 28.8296 19.6678C28.8298 19.6678 28.83 19.6679 28.8304 19.6679C28.8311 19.6681 28.8321 19.6683 28.8335 19.6687C28.8363 19.6693 28.8405 19.6703 28.846 19.6715C28.8569 19.674 28.8729 19.6777 28.8934 19.6824C28.9342 19.6918 28.9927 19.7053 29.0627 19.7216C29.2028 19.7542 29.389 19.7977 29.5739 19.8419C29.7595 19.8862 29.9411 19.9305 30.073 19.9646C30.1402 19.982 30.1886 19.9952 30.2168 20.0037C30.2339 20.0089 30.2308 20.0085 30.2186 20.0036C30.2145 20.002 30.206 19.9985 30.195 19.9933C30.1864 19.9892 30.1635 19.978 30.136 19.9597C30.1298 19.9555 30.0303 19.8944 29.9675 19.7674C29.9275 19.6868 29.891 19.5544 29.9369 19.4021C29.9808 19.2563 30.0765 19.1721 30.1361 19.132L30.6943 19.9617C30.7543 19.9213 30.8504 19.8367 30.8944 19.6905C30.9404 19.5378 30.9038 19.4049 30.8637 19.3238C30.8003 19.1959 30.6996 19.1336 30.6915 19.1281C30.6424 19.0954 30.5964 19.0777 30.5891 19.0748C30.5583 19.0625 30.5262 19.0525 30.5051 19.0462C30.4571 19.0317 30.393 19.0145 30.3235 18.9965C30.182 18.9599 29.993 18.9139 29.8062 18.8692C29.6186 18.8244 29.4302 18.7804 29.289 18.7476C29.2184 18.7311 29.1594 18.7175 29.118 18.708C29.0973 18.7032 29.0811 18.6995 29.0699 18.6969C29.0644 18.6956 29.0601 18.6947 29.0572 18.694C29.0558 18.6937 29.0546 18.6934 29.0539 18.6932C29.0535 18.6931 29.0532 18.6931 29.053 18.693C29.053 18.693 29.0529 18.693 29.0528 18.693C29.0528 18.693 29.0528 18.693 29.0528 18.693C29.0527 18.693 29.0527 18.693 28.941 19.1803ZM30.2941 20.032C30.6055 20.1097 30.7281 20.2329 30.7835 20.3202C30.8456 20.4182 30.8705 20.5465 30.8618 20.6985L31.8601 20.7561C31.8762 20.4768 31.8393 20.1176 31.6278 19.7844C31.4096 19.4406 31.0469 19.1892 30.5363 19.0617L30.2941 20.032ZM30.8758 20.6064L29.9289 24.405L30.8992 24.6469L31.8461 20.8482L30.8758 20.6064ZM29.9277 24.4096L29.9243 24.4241L30.8968 24.6568L30.9003 24.6423L29.9277 24.4096ZM29.9254 24.4194L28.5981 29.7408L29.5684 29.9828L30.8957 24.6614L29.9254 24.4194ZM28.6194 29.675C28.5875 29.7542 28.545 29.8143 28.503 29.8446C28.4857 29.8571 28.4661 29.8666 28.4386 29.8715C28.4102 29.8766 28.358 29.8795 28.2732 29.8586L28.033 30.8293C28.4525 30.9331 28.813 30.8545 29.0889 30.655C29.3432 30.4712 29.4784 30.2191 29.547 30.0486L28.6194 29.675ZM27.7408 30.6268C27.7069 30.5773 27.6332 30.4498 27.6583 30.2738C27.686 30.0799 27.8114 29.9683 27.8899 29.9198C27.9619 29.8752 28.0273 29.8604 28.0533 29.8552C28.0852 29.8487 28.1112 29.8468 28.1256 29.8461C28.1544 29.8446 28.1764 29.8462 28.1841 29.8468C28.1942 29.8475 28.2017 29.8485 28.205 29.8489C28.2145 29.8501 28.2146 29.8506 28.1967 29.8469C28.1662 29.8406 28.1161 29.8291 28.0484 29.8128C27.915 29.7806 27.733 29.7344 27.5479 29.6867C27.3633 29.6391 27.1779 29.5905 27.0385 29.5538C26.9688 29.5355 26.9107 29.5201 26.87 29.5094C26.8497 29.504 26.8337 29.4997 26.8229 29.4969C26.8174 29.4954 26.8133 29.4943 26.8105 29.4936C26.8091 29.4932 26.808 29.4929 26.8073 29.4927C26.807 29.4926 26.8067 29.4926 26.8065 29.4925C26.8065 29.4925 26.8064 29.4925 26.8064 29.4925C26.8063 29.4925 26.8063 29.4925 26.8063 29.4925C26.8063 29.4925 26.8063 29.4925 26.6778 29.9757C26.5493 30.4589 26.5493 30.4589 26.5493 30.4589C26.5493 30.4589 26.5494 30.4589 26.5494 30.4589C26.5494 30.4589 26.5495 30.4589 26.5496 30.459C26.5498 30.459 26.5501 30.4591 26.5504 30.4592C26.5512 30.4594 26.5523 30.4597 26.5537 30.46C26.5566 30.4608 26.5608 30.4619 26.5663 30.4634C26.5774 30.4663 26.5935 30.4706 26.614 30.476C26.6551 30.4869 26.7137 30.5024 26.7839 30.5209C26.9242 30.5578 27.1114 30.6069 27.2982 30.655C27.4844 30.703 27.6725 30.7508 27.8139 30.7849C27.8835 30.8017 27.9469 30.8164 27.9943 30.8262C28.0154 30.8306 28.0456 30.8365 28.0747 30.8404C28.0813 30.8412 28.1242 30.8474 28.1757 30.8448C28.1912 30.844 28.2181 30.842 28.2509 30.8354C28.2776 30.8301 28.3436 30.815 28.416 30.7702C28.4949 30.7214 28.6205 30.6095 28.6483 30.4153C28.6735 30.2389 28.5997 30.111 28.5654 30.061L27.7408 30.6268ZM26.2191 29.7767L25.2115 32.1001L26.1289 32.498L27.1365 30.1746L26.2191 29.7767ZM25.5492 32.7842L28.1905 33.4426L28.4324 32.4723L25.7911 31.8139L25.5492 32.7842ZM28.19 33.4425C28.6818 33.5657 29.1513 33.6916 29.6344 33.8153L29.8825 32.8466C29.4176 32.7275 28.924 32.5955 28.433 32.4725L28.19 33.4425ZM29.2733 33.2101L28.4333 36.5827L29.4037 36.8244L30.2436 33.4518L29.2733 33.2101ZM28.7975 37.1887L30.8248 37.6945L31.0669 36.7242L29.0395 36.2184L28.7975 37.1887ZM31.431 37.3303L32.2629 33.9936L31.2926 33.7517L30.4607 37.0884L31.431 37.3303ZM31.6468 34.3552C32.2045 34.5065 32.7456 34.6462 33.2747 34.7776L33.5158 33.8071C32.9927 33.6772 32.4586 33.5393 31.9087 33.3901L31.6468 34.3552ZM32.9101 34.1712L32.0812 37.4924L33.0514 37.7345L33.8804 34.4134L32.9101 34.1712ZM32.4454 38.0986L34.475 38.6045L34.7169 37.6341L32.6872 37.1283L32.4454 38.0986ZM35.0811 38.2403L35.9211 34.8741L34.9508 34.632L34.1108 37.9982L35.0811 38.2403ZM35.343 35.2443C37.0904 35.575 38.7075 35.6936 40.0496 35.2806C41.437 34.8537 42.4723 33.8779 43.067 32.1786L42.1231 31.8483C41.6223 33.2794 40.8086 34.0008 39.7555 34.3249C38.6572 34.6628 37.2425 34.5861 35.5289 34.2618L35.343 35.2443ZM43.0669 32.1787C43.5361 30.8392 43.5489 29.7086 43.1345 28.762C42.723 27.8221 41.9281 27.151 40.961 26.6475L40.4992 27.5345C41.3532 27.9791 41.932 28.5089 42.2185 29.1631C42.502 29.8106 42.5368 30.6672 42.1232 31.8482L43.0669 32.1787ZM40.8425 27.5782C41.5813 27.4078 42.2587 27.072 42.789 26.5029C43.3199 25.9333 43.6713 25.1647 43.8163 24.1841L42.8271 24.0378C42.7056 24.859 42.4243 25.4275 42.0575 25.8211C41.6903 26.2151 41.2051 26.4683 40.6178 26.6038L40.8425 27.5782ZM38.199 30.4931C38.0832 30.9587 37.8159 31.2293 37.4371 31.3945C37.0324 31.571 36.4899 31.6284 35.8675 31.596C34.6187 31.531 33.283 31.125 32.5578 30.9449L32.3168 31.9154C32.9675 32.077 34.4417 32.5231 35.8155 32.5946C36.5045 32.6305 37.2265 32.5773 37.8369 32.3111C38.4733 32.0336 38.9717 31.5293 39.1694 30.7346L38.199 30.4931ZM32.9225 31.5512L34.0371 27.0831L33.0668 26.841L31.9522 31.3091L32.9225 31.5512ZM33.4308 27.4472C34.1694 27.6315 35.5353 27.8699 36.6732 28.3863C37.2379 28.6426 37.6872 28.9435 37.9584 29.2906C38.2114 29.6143 38.3238 29.9927 38.1991 30.4929L39.1694 30.7349C39.3724 29.9208 39.1792 29.2285 38.7463 28.6747C38.3317 28.1443 37.7148 27.7609 37.0865 27.4757C35.8384 26.9093 34.3103 26.636 33.673 26.4769L33.4308 27.4472ZM38.8269 23.9534C38.7208 24.3787 38.4933 24.6178 38.1928 24.7638C37.8683 24.9215 37.4312 24.9816 36.9203 24.9628C35.8904 24.925 34.7966 24.5846 34.1827 24.4316L33.9409 25.4019C34.4728 25.5345 35.7179 25.9193 36.8836 25.9621C37.4705 25.9837 38.0954 25.923 38.6299 25.6632C39.1885 25.3917 39.6172 24.9167 39.7972 24.1956L38.8269 23.9534ZM34.5469 25.0377L35.5575 20.9853L34.5872 20.7434L33.5766 24.7958L34.5469 25.0377ZM34.9514 21.3495C35.5799 21.5061 36.7001 21.692 37.6319 22.1318C38.0914 22.3487 38.4463 22.6031 38.6557 22.8954C38.8495 23.1657 38.9408 23.4965 38.8269 23.9536L39.7972 24.1954C39.9813 23.4567 39.8349 22.824 39.4686 22.3129C39.118 21.8237 38.5905 21.4785 38.0588 21.2275C37.0082 20.7316 35.7105 20.5081 35.1932 20.3792L34.9514 21.3495ZM14.0232 36.0596L15.6299 50.9214L16.6241 50.8139L15.0174 35.9522L14.0232 36.0596ZM23.6605 50.4886V49.8584H22.6605V50.4886H23.6605ZM28.517 49.8584V53.1789H29.517V49.8584H28.517ZM34.5369 53.1789V50.0353H33.5369V53.1789H34.5369ZM35.1256 48.6141L35.2271 48.5126L34.52 47.8055L34.4185 47.907L35.1256 48.6141ZM41.9203 48.5126L42.1644 48.2684L41.4573 47.5613L41.2131 47.8055L41.9203 48.5126ZM53.7798 54.3551V39.7925H52.7798V54.3551H53.7798ZM53.7759 39.8546L54.9769 30.247L53.9846 30.1229L52.7836 39.7305L53.7759 39.8546ZM45.8264 49.1329L47.7855 55.0103L48.7342 54.6941L46.7751 48.8167L45.8264 49.1329ZM49.2284 29.4771L48.6103 33.8038L49.6003 33.9452L50.2184 29.6186L49.2284 29.4771ZM28.8066 41.9842L24.1922 40.446L23.8759 41.3947L28.4903 42.9329L28.8066 41.9842ZM21.1505 36.226V35.6755H20.1505V36.226H21.1505ZM37.6493 40.014L36.7386 40.697L37.3386 41.497L38.2493 40.814L37.6493 40.014ZM42.3612 38.7002C40.6814 38.5322 38.9998 39.0011 37.6493 40.014L38.2493 40.814C39.3993 39.9514 40.8313 39.5522 42.2617 39.6952L42.3612 38.7002ZM24.1922 40.446C22.3757 39.8406 21.1505 38.1407 21.1505 36.226H20.1505C20.1505 38.5711 21.6512 40.6531 23.8759 41.3947L24.1922 40.446ZM51.1822 27.1361C50.1401 27.4834 49.3838 28.3897 49.2284 29.4771L50.2184 29.6186C50.3202 28.9061 50.8157 28.3124 51.4984 28.0848L51.1822 27.1361ZM48.6103 33.8038C48.1756 36.8467 45.4197 39.006 42.3612 38.7002L42.2617 39.6952C45.8534 40.0544 49.0898 37.5186 49.6003 33.9452L48.6103 33.8038ZM28.4903 42.9329C31.4967 43.935 34.8034 43.3984 37.3386 41.497L36.7386 40.697C34.4659 42.4015 31.5016 42.8825 28.8066 41.9842L28.4903 42.9329ZM54.9769 30.247C55.2415 28.1298 53.2063 26.4614 51.1822 27.1361L51.4984 28.0848C52.8246 27.6427 54.158 28.7358 53.9846 30.1229L54.9769 30.247ZM52.7798 54.3551C52.7798 56.8125 49.2321 57.1638 48.7502 54.7541L47.7696 54.9503C48.4884 58.5443 53.7798 58.0203 53.7798 54.3551H52.7798ZM42.1644 48.2684C43.3269 47.1059 45.3065 47.5732 45.8264 49.1329L46.7751 48.8167C46.0201 46.5517 43.1455 45.8731 41.4573 47.5613L42.1644 48.2684ZM37.8666 48.5126C38.986 49.632 40.8009 49.632 41.9203 48.5126L41.2131 47.8055C40.4843 48.5343 39.3025 48.5343 38.5737 47.8055L37.8666 48.5126ZM35.2271 48.5126C35.9559 47.7837 37.1377 47.7837 37.8666 48.5126L38.5737 47.8055C37.4543 46.6861 35.6394 46.6861 34.52 47.8055L35.2271 48.5126ZM34.5369 50.0353C34.5369 49.5022 34.7486 48.991 35.1256 48.6141L34.4185 47.907C33.854 48.4714 33.5369 49.237 33.5369 50.0353H34.5369ZM31.5269 56.1888C33.1893 56.1888 34.5369 54.8412 34.5369 53.1789H33.5369C33.5369 54.289 32.637 55.1888 31.5269 55.1888V56.1888ZM28.517 53.1789C28.517 54.8412 29.8646 56.1888 31.5269 56.1888V55.1888C30.4169 55.1888 29.517 54.289 29.517 53.1789H28.517ZM24.884 47.75C26.5028 46.825 28.517 47.9939 28.517 49.8584H29.517C29.517 47.2261 26.6733 45.5758 24.3878 46.8818L24.884 47.75ZM23.6605 49.8584C23.6605 48.987 24.1274 48.1824 24.884 47.75L24.3878 46.8818C23.3197 47.4922 22.6605 48.6281 22.6605 49.8584H23.6605ZM19.6335 54.5155C21.8575 54.5155 23.6605 52.7126 23.6605 50.4886H22.6605C22.6605 52.1603 21.3052 53.5155 19.6335 53.5155V54.5155ZM15.6299 50.9214C15.8509 52.966 17.577 54.5155 19.6335 54.5155V53.5155C18.0877 53.5155 16.7902 52.3508 16.6241 50.8139L15.6299 50.9214ZM20.5829 33.7428C18.5435 30.5704 13.6178 32.3101 14.0232 36.0596L15.0174 35.9522C14.7255 33.2517 18.2729 31.9988 19.7417 34.2836L20.5829 33.7428ZM19.7417 34.2836C20.0086 34.6988 20.1505 35.1819 20.1505 35.6755H21.1505C21.1505 34.9902 20.9535 34.3193 20.5829 33.7428L19.7417 34.2836Z" fill="#4E617D"></path> <path d="M3 74L73.7107 3.28932" stroke="#FBFCFD" stroke-width="6"></path> <path d="M3 74L73.7107 3.28932" stroke="#50505A" stroke-width="3"></path> </g> <rect x="1.5" y="1.5" width="67" height="67" rx="33.5" stroke="#50505A" stroke-width="3"></rect> <defs> <clipPath id="clip0_3745_848"> <rect width="70" height="70" rx="35" fill="white"></rect> </clipPath> </defs> </svg> 