<?xml version="1.0" encoding="UTF-8"?> <svg xmlns="http://www.w3.org/2000/svg" width="70" height="70" viewBox="0 0 70 70" fill="none"> <g clip-path="url(#clip0_3746_947)"> <path d="M23.7088 19.7619L23.8809 14.6298C23.8882 14.2748 24.1819 13.9929 24.537 14.0001L42.5639 14.3486C42.9189 14.3558 43.2008 14.6496 43.1936 15.0047L42.7596 37.1286M45.4384 17.6799L53.7622 20.3637C54.0959 20.4853 54.2677 20.8544 54.1462 21.1881L46.4153 44.6315M46.0064 45.8714L46.4153 44.6315M22.11 31.517L23.7583 28.3727C23.8897 28.1221 24.11 27.9298 24.376 27.8335L28.1051 26.4836C28.392 26.3798 28.7086 26.3961 28.9834 26.5288L32.2958 28.1288M40.0253 47.3369L38.377 50.4812C38.2456 50.7318 38.0253 50.9241 37.7593 51.0204L34.0301 52.3703C33.7433 52.4741 33.4266 52.4578 33.1519 52.3251L29.8395 50.7251M50.3035 32.89C51.3163 32.4129 52.3301 32.0779 53.1987 31.9477C56.0858 31.5151 55.8581 32.1858 58.77 32.1858C60.665 32.1858 62.8749 31.5516 62.9815 31.6377C63.0973 31.7312 62.6335 32.6508 62.6128 32.6934C61.9282 34.1045 60.9928 35.3213 59.8309 36.3719C59.0669 37.0627 56.5429 36.9614 55.5462 37.2572C56.2299 37.9409 56.8374 39.882 56.2362 40.1007C55.8156 40.2536 55.3961 40.3419 54.9626 40.4442C54.5736 40.536 54.5821 40.5633 54.6983 40.9368L54.7028 40.9511C55.6524 44.0035 50.4573 44.5685 46.4153 44.6315M18.1804 32.284C17.6969 32.1268 17.2313 32.0121 16.8013 31.9477C13.9142 31.5151 14.1419 32.1858 11.23 32.1858C9.33504 32.1858 7.12509 31.5516 7.01854 31.6377C6.90274 31.7312 7.36654 32.6508 7.38722 32.6934C8.07175 34.1045 9.00722 35.3213 10.1691 36.3719C10.9331 37.0627 13.4571 36.9614 14.4538 37.2572C13.7701 37.9409 13.1626 39.882 13.7638 40.1007C14.1844 40.2536 14.6039 40.3419 15.0374 40.4442C15.4264 40.536 15.4179 40.5633 15.3017 40.9368L15.2972 40.9511C14.4516 43.6692 18.8986 44.415 22.6465 44.5901M22.6465 44.5901L15.8531 25.7584C15.7326 25.4244 15.9058 25.0559 16.2399 24.9354L33.1936 18.7985C33.5277 18.678 33.8961 18.8512 34.0167 19.1853L46.4606 54.0334C46.5501 54.284 46.4185 54.5596 46.1673 54.6474L28.9509 60.6672C28.7026 60.754 28.4307 60.6246 28.3415 60.3772L22.6465 44.5901ZM32.0951 34.9827C29.4719 34.2365 26.7404 35.7581 25.9942 38.3813C25.251 41.0042 26.7715 43.7337 29.3928 44.4822C32.0161 45.2284 34.7475 43.7068 35.4937 41.0836C36.2399 38.4604 34.7183 35.7289 32.0951 34.9827Z" stroke="#4E617D" stroke-linecap="round" stroke-linejoin="round"></path> <path d="M3 74L73.7107 3.28932" stroke="#FBFCFD" stroke-width="6"></path> <path d="M3 74L73.7107 3.28932" stroke="#50505A" stroke-width="3"></path> </g> <rect x="1.5" y="1.5" width="67" height="67" rx="33.5" stroke="#50505A" stroke-width="3"></rect> <defs> <clipPath id="clip0_3746_947"> <rect width="70" height="70" rx="35" fill="white"></rect> </clipPath> </defs> </svg> 