<?xml version="1.0" encoding="UTF-8"?> <svg xmlns="http://www.w3.org/2000/svg" width="122" height="122" viewBox="0 0 122 122" fill="none"> <path d="M52 22H64.5858C64.851 22 65.1054 22.1054 65.2929 22.2929L74 31" stroke="#50505A" stroke-width="3" stroke-linecap="round"></path> <path d="M32.0002 61H49.5" stroke="#50505A" stroke-width="3" stroke-linecap="round"></path> <path d="M32 22V22C32 16.4772 36.4772 12 42 12V12C47.5228 12 52 16.4772 52 22V22C52 27.5228 47.5228 32 42 32V32C36.4772 32 32 27.5229 32 22V22Z" stroke="#50505A" stroke-width="3"></path> <path d="M12 61V61C12 55.4772 16.4772 51 22 51V51C27.5228 51 32 55.4772 32 61V61C32 66.5228 27.5228 71 22 71V71C16.4772 71 12 66.5229 12 61V61Z" stroke="#50505A" stroke-width="3"></path> <path d="M52 100H64.5858C64.851 100 65.1054 99.8946 65.2929 99.7071L74 91" stroke="#50505A" stroke-width="3" stroke-linecap="round"></path> <path d="M32 100V100C32 105.523 36.4772 110 42 110V110C47.5228 110 52 105.523 52 100V100C52 94.4772 47.5228 90 42 90V90C36.4772 90 32 94.4771 32 100V100Z" stroke="#50505A" stroke-width="3"></path> <path d="M110 60.9999V60.9999C110 77.5685 96.5685 91 80 91V91C63.4315 91 50 77.5685 50 61V61C50 44.4315 63.4315 31 80 31V31C96.5685 31 110 44.4314 110 60.9999V60.9999Z" stroke="#50505A" stroke-width="3"></path> <path d="M70.4398 76.4882L69.6389 76.0724C68.4048 75.4318 68.1084 73.8897 69.0262 72.885L80.851 59.9402L90.4068 49.8735C91.3564 48.8731 91.0712 47.3046 89.8219 46.6561L89.068 46.2648M64.21 49.754V51.6869C64.21 52.4567 64.3839 53.1847 64.7317 53.8708C65.0999 54.5569 65.6523 55.1176 66.3889 55.5527C67.1254 55.9711 68.0461 56.1802 69.1509 56.1802C70.2557 56.1802 71.1661 55.9711 71.8822 55.5527C72.5983 55.1176 73.1302 54.5569 73.478 53.8708C73.8258 53.1847 73.9997 52.4567 73.9997 51.6869V49.754C73.9997 48.9675 73.8156 48.2311 73.4473 47.545C73.0995 46.8421 72.5574 46.2815 71.8208 45.8631C71.1047 45.428 70.1943 45.2104 69.0895 45.2104C68.0052 45.2104 67.0947 45.428 66.3582 45.8631C65.6421 46.2815 65.0999 46.8421 64.7317 47.545C64.3839 48.2311 64.21 48.9675 64.21 49.754ZM85.9684 70.3129V72.2709C85.9684 73.0408 86.1423 73.7771 86.4902 74.48C86.8584 75.1661 87.4108 75.7267 88.1474 76.1618C88.8839 76.5802 89.8046 76.7894 90.9094 76.7894C92.0142 76.7894 92.9246 76.5802 93.6407 76.1618C94.3772 75.7267 94.9194 75.1661 95.2672 74.48C95.615 73.7938 95.7889 73.0575 95.7889 72.2709V70.3129C95.7889 69.5264 95.6048 68.7901 95.2365 68.1039C94.8887 67.4178 94.3465 66.8655 93.61 66.4472C92.8939 66.0121 91.9732 65.7945 90.848 65.7945C89.7636 65.7945 88.8532 66.0121 88.1167 66.4472C87.4006 66.8655 86.8584 67.4178 86.4902 68.1039C86.1423 68.7901 85.9684 69.5264 85.9684 70.3129Z" stroke="#50505A" stroke-width="3" stroke-linecap="round"></path> </svg> 