<?xml version="1.0" encoding="UTF-8"?> <svg xmlns="http://www.w3.org/2000/svg" width="122" height="122" viewBox="0 0 122 122" fill="none"> <path d="M84.3645 84.3644L92.9075 92.9074M96.4252 54.2126C96.4252 77.526 77.526 96.4252 54.2126 96.4252C30.8992 96.4252 12 77.526 12 54.2126C12 30.8992 30.8992 12 54.2126 12C77.526 12 96.4252 30.8992 96.4252 54.2126ZM93.2931 101.62L100.704 109.031C101.983 110.31 104.056 110.31 105.335 109.031L109.041 105.326C110.32 104.047 110.32 101.973 109.041 100.694L101.63 93.2832C99.3279 90.981 95.5953 90.981 93.2931 93.2832C90.9909 95.5854 90.9909 99.318 93.2931 101.62Z" stroke="#50505A" stroke-width="3" stroke-linecap="round"></path> <path d="M53.5018 64.4608C53.3081 65.6914 52.8879 66.83 52.2904 67.841C50.4794 70.9049 46.8723 73.4972 48.1887 76.804L48.2705 77.0094C49.0001 78.8421 50.6424 80.154 52.591 80.4606C55.314 80.8891 57.9423 79.2668 58.7799 76.6407L64.7761 57.8396C65.9847 54.0503 64.2158 49.9498 60.6302 48.2287L57.3258 46.6425C51.4065 43.8011 44.4573 50.1231 50.5188 55.9199C52.7991 58.014 54.0191 61.1731 53.5018 64.4608Z" stroke="#50505A" stroke-width="3"></path> <path d="M49.1316 30.6798C51.3067 31.0221 52.7924 33.0628 52.4502 35.2378C52.1079 37.4129 50.0672 38.8986 47.8921 38.5563C45.7171 38.2141 44.2313 36.1734 44.5736 33.9983C44.9159 31.8233 46.9566 30.3375 49.1316 30.6798Z" stroke="#50505A" stroke-width="3"></path> <circle cx="62.1933" cy="39.9995" r="3.18939" transform="rotate(-81.0571 62.1933 39.9995)" fill="#50505A"></circle> <circle cx="69.3266" cy="45.9647" r="2.39204" transform="rotate(-81.0571 69.3266 45.9647)" fill="#50505A"></circle> </svg> 