<?xml version="1.0" encoding="UTF-8"?> <svg xmlns="http://www.w3.org/2000/svg" width="122" height="122" viewBox="0 0 122 122" fill="none"> <path d="M88 51V36.5M50 82H16C13.7909 82 12 80.2091 12 78V16C12 13.7909 13.7909 12 16 12H84C86.2091 12 88 13.7909 88 16V27.5" stroke="#50505A" stroke-width="3"></path> <path d="M110 30.5C110.828 30.5 111.5 31.1716 111.5 32C111.5 32.8284 110.828 33.5 110 33.5V30.5ZM58 30.5H110V33.5H58V30.5Z" fill="#50505A"></path> <path fill-rule="evenodd" clip-rule="evenodd" d="M58 37.0097C58 37.3902 57.5849 37.6253 57.2586 37.4295L48.9091 32.4198C48.5922 32.2296 48.5922 31.7704 48.9091 31.5802L57.2586 26.5705C57.5849 26.3747 58 26.6098 58 26.9903V37.0097Z" fill="#50505A"></path> <path d="M22 60.5C21.1716 60.5 20.5 61.1716 20.5 62C20.5 62.8284 21.1716 63.5 22 63.5V60.5ZM39 60.5H22V63.5H39V60.5Z" fill="#50505A"></path> <path fill-rule="evenodd" clip-rule="evenodd" d="M39 67.0097C39 67.3902 39.4151 67.6253 39.7414 67.4295L48.0909 62.4198C48.4078 62.2296 48.4078 61.7704 48.0909 61.5802L39.7414 56.5705C39.4151 56.3747 39 56.6098 39 56.9903V67.0097Z" fill="#50505A"></path> <path d="M81.5255 59.7758C81.5255 58.9473 80.854 58.2758 80.0255 58.2758C79.1971 58.2758 78.5255 58.9473 78.5255 59.7758H81.5255ZM61.8706 90.047C61.0421 90.047 60.3706 90.7185 60.3706 91.547C60.3706 92.3754 61.0421 93.047 61.8706 93.047V90.047ZM78.5255 96.0857C78.5255 96.9141 79.1971 97.5857 80.0255 97.5857C80.854 97.5857 81.5255 96.9141 81.5255 96.0857H78.5255ZM78.5255 59.7758V63.4068H81.5255V59.7758H78.5255ZM91.234 76.1152V91.547H94.234V76.1152H91.234ZM68.8171 91.547V76.1152H65.8171V91.547H68.8171ZM80.0255 64.9068C86.2158 64.9068 91.234 69.925 91.234 76.1152H94.234C94.234 68.2681 87.8727 61.9068 80.0255 61.9068V64.9068ZM80.0255 61.9068C72.1784 61.9068 65.8171 68.2681 65.8171 76.1152H68.8171C68.8171 69.925 73.8353 64.9068 80.0255 64.9068V61.9068ZM61.8706 93.047H67.3171V90.047H61.8706V93.047ZM67.3171 93.047H80.0255V90.047H67.3171V93.047ZM80.0255 93.047H92.734V90.047H80.0255V93.047ZM92.734 93.047H98.1805V90.047H92.734V93.047ZM78.5255 91.547V96.0857H81.5255V91.547H78.5255ZM108.5 80C108.5 95.7401 95.7401 108.5 80 108.5V111.5C97.397 111.5 111.5 97.397 111.5 80H108.5ZM80 108.5C64.2599 108.5 51.5 95.7401 51.5 80H48.5C48.5 97.397 62.603 111.5 80 111.5V108.5ZM51.5 80C51.5 64.2599 64.2599 51.5 80 51.5V48.5C62.603 48.5 48.5 62.603 48.5 80H51.5ZM80 51.5C95.7401 51.5 108.5 64.2599 108.5 80H111.5C111.5 62.603 97.397 48.5 80 48.5V51.5Z" fill="#50505A"></path> <path d="M22 32V32C22 26.4772 26.4772 22 32 22V22C37.5228 22 42 26.4772 42 32V32C42 37.5228 37.5228 42 32 42V42C26.4772 42 22 37.5229 22 32V32Z" stroke="#50505A" stroke-width="3"></path> </svg> 