<?xml version="1.0" encoding="UTF-8"?> <svg xmlns="http://www.w3.org/2000/svg" width="122" height="122" viewBox="0 0 122 122" fill="none"> <path d="M82 32H62" stroke="#50505A" stroke-width="3"></path> <path fill-rule="evenodd" clip-rule="evenodd" d="M82 37.0097C82 37.3902 82.4151 37.6253 82.7414 37.4295L91.0909 32.4198C91.4078 32.2296 91.4078 31.7704 91.0909 31.5802L82.7414 26.5705C82.4151 26.3747 82 26.6098 82 26.9903V37.0097Z" fill="#50505A"></path> <path d="M32 110C28.6863 110 26 107.314 26 104C26 100.686 28.6863 98 32 98C35.3137 98 38 100.686 38 104C38 107.314 35.3137 110 32 110Z" stroke="#50505A" stroke-width="3"></path> <path d="M110 32C110 28.6863 107.314 26 104 26C100.686 26 98 28.6863 98 32C98 35.3137 100.686 38 104 38C107.314 38 110 35.3137 110 32Z" stroke="#50505A" stroke-width="3"></path> <path d="M62 37C62 50.8071 50.8071 62 37 62C23.1929 62 12 50.8071 12 37C12 23.1929 23.1929 12 37 12C50.8071 12 62 23.1929 62 37Z" stroke="#50505A" stroke-width="3"></path> <path d="M98 86C91.3726 86 86 91.3726 86 98V98C86 104.627 91.3726 110 98 110V110C104.627 110 110 104.627 110 98V98C110 91.3726 104.627 86 98 86V86Z" stroke="#50505A" stroke-width="3"></path> <path d="M32 82V62" stroke="#50505A" stroke-width="3"></path> <path fill-rule="evenodd" clip-rule="evenodd" d="M37.0097 82C37.3902 82 37.6253 82.4151 37.4295 82.7414L32.4198 91.0909C32.2296 91.4078 31.7704 91.4078 31.5802 91.0909L26.5705 82.7414C26.3747 82.4151 26.6098 82 26.9903 82H37.0097Z" fill="#50505A"></path> <path fill-rule="evenodd" clip-rule="evenodd" d="M81.5741 74.4887C81.8431 74.2196 82.3028 74.3469 82.3951 74.7161L84.7567 84.1625C84.8464 84.521 84.5216 84.8458 84.1631 84.7561L74.7167 82.3945C74.3475 82.3023 74.2202 81.8425 74.4893 81.5735L81.5741 74.4887Z" fill="#50505A"></path> <path d="M78.0309 78.0309L59.5 59.5" stroke="#50505A" stroke-width="3" stroke-linecap="round"></path> <path d="M54 37H44M20 37H30" stroke="#50505A" stroke-width="3" stroke-linecap="round"></path> <path d="M37 20V30M37 54V44" stroke="#50505A" stroke-width="3" stroke-linecap="round"></path> <path fill-rule="evenodd" clip-rule="evenodd" d="M41.5004 49.7317C45.3362 48.3759 48.3764 45.3358 49.7322 41.4999H46.4899C45.4526 43.6834 43.6839 45.4522 41.5004 46.4894V49.7317ZM32.5004 46.4894C30.3168 45.4522 28.5481 43.6834 27.5108 41.4999H24.2686C25.6243 45.3358 28.6645 48.3759 32.5004 49.7317V46.4894ZM24.2686 32.4999H27.5108C28.5481 30.3164 30.3168 28.5476 32.5004 27.5103V24.2681C28.6645 25.6238 25.6243 28.664 24.2686 32.4999ZM41.5004 24.2681V27.5103C43.6839 28.5476 45.4526 30.3164 46.4899 32.4999H49.7322C48.3764 28.664 45.3362 25.6238 41.5004 24.2681Z" fill="#50505A"></path> </svg> 