<svg xmlns="http://www.w3.org/2000/svg"  fill="none" viewBox="0 0 1025 189"><path fill="#50505a" d="M133.168 99.673a1.053 1.053 0 1 1-.23-2.093c6.352-.7 11.934-2.286 16.461-4.6 4.295-2.195 7.637-5.04 9.778-8.398 2.113-3.315 3.059-7.15 2.594-11.37-.302-2.743-1.196-5.65-2.747-8.684a1.05 1.05 0 0 1 1.871-.955c1.674 3.276 2.641 6.425 2.969 9.408.52 4.714-.543 9.009-2.915 12.73-2.345 3.678-5.966 6.775-10.594 9.14-4.759 2.432-10.587 4.095-17.187 4.822"></path><path fill="#50505a" d="M150.136 80.12a1.053 1.053 0 1 1-1.071-1.813c5.618-3.332 9.012-9.147 10.01-15.177.397-2.4.416-4.828.044-7.143-.368-2.296-1.121-4.484-2.27-6.421-2.203-3.715-5.882-6.51-11.116-7.376a1.052 1.052 0 0 1 .338-2.077c5.916.98 10.085 4.156 12.591 8.381 1.283 2.164 2.124 4.604 2.534 7.163.407 2.54.389 5.196-.044 7.81-1.093 6.604-4.827 12.983-11.016 16.653M86.86 75.433a1.055 1.055 0 0 1 2.11 0 4.96 4.96 0 0 1-1.456 3.516c-.9.9-2.143 1.457-3.516 1.457a4.96 4.96 0 0 1-3.516-1.457 4.96 4.96 0 0 1-1.457-3.516c0-.773.18-1.509.499-2.167a5 5 0 0 1 1.4-1.741 1.053 1.053 0 0 1 1.303 1.656c-.341.269-.619.61-.808 1a2.86 2.86 0 0 0-.284 1.252c0 .79.32 1.507.838 2.025a2.85 2.85 0 0 0 2.025.838c.79 0 1.506-.32 2.024-.838a2.86 2.86 0 0 0 .839-2.025M100 75.433a1.055 1.055 0 1 1 2.11 0c0 .79.32 1.507.838 2.025a2.86 2.86 0 0 0 2.025.838c.791 0 1.507-.32 2.024-.838a2.86 2.86 0 0 0 .839-2.025 2.86 2.86 0 0 0-.284-1.252 2.9 2.9 0 0 0-.808-1 1.053 1.053 0 0 1 1.302-1.656 5 5 0 0 1 1.401 1.741 4.957 4.957 0 0 1-.958 5.683c-.9.9-2.143 1.457-3.516 1.457a4.96 4.96 0 0 1-3.516-1.457A4.96 4.96 0 0 1 100 75.433"></path><path fill="#50505a" d="M92.913 80.409a1.051 1.051 0 0 1-2.102.04c-.087-4.382-3.729-5.44-7.51-6.538-4.523-1.315-9.216-2.678-9.955-8.821a1 1 0 0 1-.005-.195l-.166-14.536a1.05 1.05 0 0 1 2.102-.017l.165 14.523c.583 4.742 4.586 5.905 8.445 7.026 4.537 1.318 8.908 2.588 9.026 8.518M70.098 94.996a1.05 1.05 0 0 1 1.978.709l-2.411 6.708a1.051 1.051 0 0 1-1.978-.709zM93.425 80.155a1.055 1.055 0 0 1 2.11 0v6.107a1.055 1.055 0 0 1-2.11 0zM56.03 97.58a1.053 1.053 0 1 1-.23 2.093c-6.6-.727-12.427-2.39-17.186-4.822-4.628-2.365-8.25-5.462-10.594-9.14-2.372-3.721-3.435-8.016-2.916-12.73.329-2.983 1.295-6.132 2.97-9.408a1.05 1.05 0 0 1 1.87.955c-1.55 3.035-2.444 5.941-2.747 8.684-.464 4.22.481 8.055 2.595 11.37 2.14 3.357 5.483 6.203 9.778 8.399 4.527 2.313 10.108 3.9 16.46 4.6M124.359 33.743a1.05 1.05 0 1 1 2.101.016l-.291 25.486c-.059 5.026-1.008 9.836-2.835 14.406-1.826 4.565-4.527 8.89-8.092 12.955a1.05 1.05 0 1 1-1.582-1.384c3.406-3.883 5.983-8.008 7.721-12.354 1.732-4.332 2.631-8.885 2.687-13.64zM98.152 80.45a1.05 1.05 0 1 1-2.102-.041c.118-5.93 4.489-7.2 9.026-8.518 3.859-1.12 7.862-2.284 8.445-7.026l.165-14.523a1.051 1.051 0 0 1 2.102.017l-.166 14.536q.007.097-.005.195c-.74 6.143-5.432 7.506-9.956 8.82-3.781 1.099-7.422 2.157-7.51 6.54"></path><path fill="#50505a" d="M104.824 95.023a1.052 1.052 0 0 1-.593-2.02l.73-.211c3.859-1.121 7.861-2.284 8.444-7.026l.166-14.523a1.051 1.051 0 0 1 2.102.016l-.166 14.537q.006.096-.005.194c-.74 6.144-5.432 7.507-9.956 8.821zM84.717 93.004a1.052 1.052 0 0 1-.594 2.019l-.721-.212c-4.525-1.314-9.217-2.678-9.956-8.82a1 1 0 0 1-.005-.195l-.166-14.537a1.05 1.05 0 0 1 2.101-.016l.166 14.523c.583 4.742 4.585 5.905 8.445 7.026zM116.887 95.705a1.05 1.05 0 1 1 1.978-.709l2.411 6.708a1.051 1.051 0 0 1-1.978.709zM95.329 68.934a1.051 1.051 0 0 1-1.706-1.228c1.958-2.716 5.761-3.619 9.66-4.543 4.793-1.137 9.75-2.313 10.347-7.044a1.051 1.051 0 0 1 2.085.264c-.781 6.183-6.457 7.53-11.946 8.832-3.517.834-6.947 1.647-8.44 3.719"></path><path fill="#50505a" d="M95.325 67.706a1.051 1.051 0 0 1-1.706 1.228c-1.493-2.072-4.923-2.885-8.44-3.72-5.489-1.301-11.165-2.648-11.945-8.831a1.05 1.05 0 0 1 2.085-.264c.597 4.731 5.553 5.907 10.347 7.044 3.898.924 7.702 1.827 9.66 4.543M132.871 78.342a1.052 1.052 0 1 1-1.549-1.426c4.898-5.324 8.739-10.9 11.123-16.821 2.333-5.794 3.277-11.933 2.458-18.51-2.051-2.316-4.648-4.032-7.783-5.157-3.294-1.18-7.188-1.715-11.673-1.614a1.05 1.05 0 1 1-.042-2.101c4.74-.108 8.884.468 12.423 1.737 3.593 1.289 6.555 3.285 8.877 6 .128.15.215.337.243.548.939 7.076-.049 13.668-2.55 19.88-2.487 6.176-6.465 11.962-11.527 17.464m18.837 14.042a1.053 1.053 0 0 1 2.102-.123c.719 11.955-10.067 19.56-20.408 26.849-1.796 1.266-3.577 2.522-5.276 3.787l.03-2.636c1.319-.958 2.673-1.913 4.034-2.873 9.871-6.958 20.168-14.217 19.518-25.004M57.647 76.916a1.053 1.053 0 1 1-1.55 1.426c-5.06-5.502-9.04-11.288-11.526-17.464-2.501-6.212-3.49-12.804-2.55-19.88.027-.21.115-.398.244-.548 2.32-2.715 5.283-4.711 8.876-6 3.539-1.269 7.683-1.845 12.423-1.737a1.051 1.051 0 0 1-.042 2.101c-4.485-.101-8.38.434-11.673 1.614-3.135 1.125-5.732 2.84-7.783 5.157-.82 6.577.125 12.716 2.458 18.51 2.384 5.921 6.225 11.497 11.123 16.82M35.159 92.26a1.053 1.053 0 0 1 2.102.123c-.65 10.787 9.647 18.046 19.518 25.004a354 354 0 0 1 4.034 2.873l.03 2.636c-1.699-1.265-3.48-2.521-5.276-3.787-10.34-7.289-21.128-14.894-20.408-26.85"></path><path fill="#50505a" d="M39.9 78.307a1.053 1.053 0 0 1-1.072 1.813c-6.188-3.67-9.922-10.049-11.015-16.653-.433-2.614-.452-5.27-.044-7.81.41-2.559 1.25-4.999 2.534-7.163 2.506-4.225 6.675-7.401 12.59-8.38a1.052 1.052 0 0 1 .338 2.076c-5.233.867-8.912 3.661-11.115 7.376-1.15 1.937-1.903 4.125-2.27 6.42-.372 2.316-.354 4.745.044 7.144.998 6.03 4.392 11.845 10.01 15.177M62.5 33.76a1.05 1.05 0 0 1 2.101-.017l.291 25.486c.056 4.754.955 9.307 2.687 13.64 1.738 4.345 4.315 8.47 7.72 12.353a1.051 1.051 0 0 1-1.581 1.384c-3.565-4.064-6.267-8.39-8.092-12.955-1.827-4.57-2.777-9.38-2.835-14.406z"></path><path fill="#50505a" d="M94.483 0c26.09 0 49.711 10.576 66.809 27.674s27.674 40.719 27.674 66.809-10.576 49.711-27.674 66.809-40.719 27.674-66.81 27.674c-26.09 0-49.71-10.576-66.808-27.674S0 120.573 0 94.482c0-26.09 10.576-49.71 27.674-66.808S68.392 0 94.483 0M159.8 29.165C143.085 12.45 119.991 2.11 94.483 2.11S45.88 12.449 29.165 29.165 2.11 68.975 2.11 94.483s10.34 48.602 27.055 65.318c16.716 16.716 39.81 27.055 65.318 27.055s48.601-10.339 65.318-27.055 27.055-39.81 27.055-65.318-10.339-48.602-27.055-65.318"></path><path fill="#50505a" fill-rule="evenodd" d="M92.591 174.299v-.001h-.001l-.011-.005-.026-.012-.038-.017-.053-.025-.331-.155a107 107 0 0 1-5.047-2.552c-2.898-1.564-6.744-3.818-9.3-6.132l-.018-.015c-9.407-8.596-14.525-18.914-14.661-30.573l-.255-22.302a4.576 4.576 0 0 1 3.422-4.48c10.003-2.604 18.893-7.255 25.175-12.867a4.575 4.575 0 0 1 6.096 0c6.283 5.612 15.172 10.263 25.175 12.867a4.576 4.576 0 0 1 3.422 4.48l-.254 22.301v.001c-.137 11.659-5.255 21.977-14.662 30.573l-.017.015c-2.557 2.314-6.403 4.568-9.301 6.132a112 112 0 0 1-5.046 2.552l-.423.197-.025.012-.011.005H96.4v.001a4.58 4.58 0 0 1-3.809 0m-11.738-12.291c4.22 3.818 13.642 8.131 13.642 8.131s9.422-4.313 13.643-8.131c8.621-7.878 13.053-17.045 13.173-27.25l.254-22.3c-10.6-2.76-20.169-7.718-27.07-13.883-6.901 6.165-16.47 11.123-27.07 13.883l.255 22.3c.12 10.205 4.552 19.372 13.173 27.25" clip-rule="evenodd"></path><path fill="#50505a" fill-rule="evenodd" d="M94.475 7.1c24.133 0 45.983 9.783 61.8 25.6s25.6 37.667 25.6 61.8-9.783 45.983-25.6 61.8-37.667 25.6-61.8 25.6-45.983-9.783-61.8-25.6-25.6-37.667-25.6-61.8 9.783-45.983 25.6-61.8 37.667-25.6 61.8-25.6m0 16.576c10.966 0 21.349 2.493 30.615 6.941q.129-.013.26-.015c4.993-.114 9.387.503 13.173 1.86q5.348 1.915 9.002 5.761c6.005 1.294 10.293 4.71 12.939 9.172 1.417 2.39 2.345 5.082 2.798 7.904a26.4 26.4 0 0 1-.023 8.348c1.503 3.168 2.387 6.231 2.709 9.154.425 3.86-.113 7.47-1.49 10.76.552 3.565.841 7.218.841 10.939 0 30.863-19.743 57.11-47.287 66.813a55 55 0 0 1-5.39 5.652v.008l-.017.015h-.009c-1.376 1.246-3.073 2.458-4.802 3.562a79 79 0 0 1-4.911 2.866c-.638.345-1.395.738-2.167 1.133v.008c-.669.341-1.269.639-1.77.885l-.004-.007-.684.331c-.616.296-.349.171-.52.252h-.008l-.387.181.002.003-.14.064-.002-.002a6.7 6.7 0 0 1-2.728.59c-.92 0-1.85-.197-2.727-.59v.002l-.026-.011-.001.002-.04-.019-.097-.042-.049-.031-.314-.147h-.008c-.172-.081.096.044-.52-.252l-.685-.331-.003.007c-.502-.246-1.102-.544-1.77-.885v-.008c-.773-.395-1.529-.788-2.168-1.133a78 78 0 0 1-4.91-2.866c-1.73-1.104-3.426-2.316-4.803-3.562h-.008l-.017-.015v-.008a55 55 0 0 1-5.39-5.652C43.394 151.61 23.65 125.363 23.65 94.5c0-3.721.288-7.374.841-10.94-1.377-3.29-1.915-6.9-1.49-10.76.322-2.922 1.207-5.985 2.71-9.153a26.4 26.4 0 0 1-.023-8.347c.452-2.823 1.38-5.515 2.798-7.905 2.646-4.462 6.934-7.878 12.939-9.172 2.435-2.565 5.438-4.483 9.001-5.76 3.786-1.358 8.18-1.975 13.173-1.861q.132.002.26.015c9.266-4.448 19.65-6.941 30.615-6.941" clip-rule="evenodd"></path><path fill="#50505a" d="M106.999 150.558a2.287 2.287 0 0 0 3.229-.202 20.57 20.57 0 0 0 5.147-13.618v-20.75a2.287 2.287 0 1 0-4.575 0v20.75c0 3.905-1.421 7.666-4.002 10.591a2.29 2.29 0 0 0 .201 3.229M94.488 157.276c1.742 0 3.473-.218 5.146-.648a2.289 2.289 0 0 0-1.14-4.431c-1.3.334-2.648.504-4.006.504-8.85 0-16.013-7.162-16.013-16.013a2.288 2.288 0 0 0-4.575 0c0 11.379 9.208 20.588 20.588 20.588M103.938 129.813a2.287 2.287 0 0 0 2.287-2.287v-17.038a2.287 2.287 0 1 0-4.575 0v17.038a2.287 2.287 0 0 0 2.288 2.287"></path><path fill="#50505a" d="M84.583 142.409a11.48 11.48 0 0 0 9.906 5.717c6.325 0 11.743-5.112 11.743-11.438a2.288 2.288 0 0 0-4.575 0c0 3.72-3.283 6.863-7.168 6.863a6.89 6.89 0 0 1-5.946-3.433 2.288 2.288 0 0 0-3.96 2.291M85.338 134.388a2.287 2.287 0 0 0 2.287-2.287v-21.613a2.288 2.288 0 1 0-4.575 0v21.613a2.287 2.287 0 0 0 2.288 2.287M76.188 129.875a2.29 2.29 0 0 0 2.287-2.288v-11.599a2.288 2.288 0 1 0-4.575 0v11.599a2.29 2.29 0 0 0 2.287 2.288M94.488 120.426a2.29 2.29 0 0 0 2.287-2.288v-9.15a2.288 2.288 0 1 0-4.575 0v9.15a2.29 2.29 0 0 0 2.288 2.288"></path><path fill="#D0C018" d="M97.448 163.374a2.974 2.974 0 1 1-5.948 0 2.974 2.974 0 0 1 5.948 0"></path><path fill="#50505a" d="M94.488 139.025a2.287 2.287 0 0 0 2.287-2.287v-9.151a2.287 2.287 0 0 0-4.575 0v9.151a2.287 2.287 0 0 0 2.288 2.287M501.86 125.877l.02.022c8.191 8.518 18.45 12.784 30.566 12.784 6.97 0 13.207-1.243 18.629-3.829 5.294-2.525 10.351-6.195 15.183-10.947a3.027 3.027 0 0 0-.014-4.328l-3.99-3.876a3.027 3.027 0 0 0-4.229.011c-4.079 4.006-8.069 6.905-11.961 8.781-3.78 1.823-8.219 2.777-13.39 2.777-8.663 0-15.884-3.111-21.847-9.419-5.894-6.313-8.869-14.068-8.869-23.462 0-9.49 2.95-17.242 8.762-23.47 5.879-6.293 13.092-9.411 21.84-9.411 8.982 0 17.218 3.525 24.793 10.885a3.025 3.025 0 0 0 4.28-.061l3.875-3.99a3.025 3.025 0 0 0-.122-4.337c-4.879-4.486-9.797-7.943-14.761-10.304-5.07-2.449-11.091-3.603-17.951-3.603-12.205 0-22.51 4.351-30.7 13.032-8.146 8.636-12.224 19.113-12.224 31.26 0 12.347 4.023 22.908 12.11 31.485M576.188 134.288a3.027 3.027 0 0 0 3.027 3.027h5.585a3.026 3.026 0 0 0 3.026-3.027v-23.824c0-8.492 2.272-14.778 6.473-19.242 4.295-4.563 9.464-6.8 15.693-6.8h.57a3.027 3.027 0 0 0 3.027-3.026V75.24a3.027 3.027 0 0 0-2.904-3.023c-6.295-.256-12.08 1.461-17.255 5.11l-.019.013a33.6 33.6 0 0 0-5.585 5.023v-6.21a3.026 3.026 0 0 0-3.026-3.027h-5.585a3.027 3.027 0 0 0-3.027 3.026zM617.596 149.249a3.026 3.026 0 0 0 1.595 3.882c4.157 1.829 8.408 2.765 12.732 2.765 4.908 0 9.254-1.507 12.873-4.57 3.659-2.958 6.704-7.687 9.293-13.807l25.197-60.198a3.027 3.027 0 0 0-2.792-4.195h-6.155c-1.234 0-2.345.75-2.807 1.894l-18.364 45.512-21.226-45.655a3.03 3.03 0 0 0-2.744-1.751H618.7a3.026 3.026 0 0 0-2.724 4.343l27.322 56.542c-1.874 4.171-3.647 6.849-5.229 8.322-1.638 1.525-3.521 2.266-5.804 2.266-3.237 0-6.083-.638-8.591-1.86a3.026 3.026 0 0 0-4.14 1.608z"></path><path fill="#50505a" fill-rule="evenodd" d="M688.845 152.527a3.026 3.026 0 0 0 3.026 3.027h5.586a3.026 3.026 0 0 0 3.026-3.027v-22.31c5.741 5.57 12.732 8.466 20.912 8.466 8.307 0 15.627-3.172 21.846-9.308 6.353-6.268 9.45-14.416 9.45-24.155 0-9.802-3.09-17.961-9.459-24.163-6.217-6.13-13.534-9.299-21.837-9.299-8.107 0-15.088 3.05-20.912 8.846v-4.452a3.026 3.026 0 0 0-3.026-3.026h-5.586a3.026 3.026 0 0 0-3.026 3.026zm51.752-47.307c0 7.075-1.977 12.382-5.657 16.26-3.729 3.856-8.36 5.792-14.115 5.792-5.454 0-10.251-2-14.511-6.189-4.089-4.092-6.173-9.262-6.173-15.749 0-6.576 2.094-11.783 6.181-15.87 4.266-4.267 9.061-6.296 14.503-6.296 5.465 0 10.034 1.968 13.88 6.013l.018.019c3.853 3.983 5.874 9.227 5.874 16.02" clip-rule="evenodd"></path><path fill="#50505a" d="m772.737 133.574.031.028c3.691 3.229 8.357 4.739 13.734 4.739 3.771 0 7.359-.775 10.73-2.331a3.02 3.02 0 0 0 1.758-2.747v-5.244a3.03 3.03 0 0 0-1.383-2.542 3.03 3.03 0 0 0-2.885-.218c-2.745 1.235-5.17 1.785-7.308 1.785-3.431 0-5.445-.833-6.612-1.966-1.151-1.117-1.989-3.021-1.989-6.293V84.308h17.379a3.026 3.026 0 0 0 3.026-3.026v-5.13a3.026 3.026 0 0 0-3.026-3.026h-17.379V57.572a3.026 3.026 0 0 0-3.026-3.027h-5.586a3.026 3.026 0 0 0-3.026 3.027v15.554h-5.409a3.026 3.026 0 0 0-3.026 3.026v5.13a3.026 3.026 0 0 0 3.026 3.026h5.409v35.047c0 5.844 1.715 10.757 5.562 14.219"></path><path fill="#50505a" fill-rule="evenodd" d="m813.332 128.834.027.029c6.293 6.544 14.196 9.82 23.499 9.82 9.312 0 17.217-3.322 23.505-9.943 6.309-6.562 9.501-14.453 9.501-23.52 0-9.12-3.138-17.014-9.381-23.513-6.215-6.629-14.089-9.949-23.397-9.949-9.315 0-17.252 3.323-23.612 9.934l-.014.014c-6.234 6.567-9.381 14.456-9.381 23.514 0 9.114 3.095 17.039 9.253 23.614m23.754-1.448c-5.852 0-10.72-2.086-14.786-6.348-4.086-4.357-6.127-9.572-6.127-15.818 0-6.248 2.043-11.418 6.118-15.694l.016-.017c4.088-4.356 8.885-6.454 14.551-6.454 5.752 0 10.584 2.106 14.664 6.454l.033.034c4.145 4.28 6.215 9.444 6.215 15.677 0 6.149-2.065 11.326-6.232 15.694l-.016.018c-4.095 4.364-8.858 6.454-14.436 6.454" clip-rule="evenodd"></path><path fill="#D0C018" fill-rule="evenodd" d="M214.548 137.069a3.6 3.6 0 0 1-.31-3.402l34.627-81.373a3.61 3.61 0 0 1 3.319-2.194h16.39c1.446 0 2.753.864 3.319 2.194l34.627 81.373a3.607 3.607 0 0 1-3.319 5.02h-18.583a3.61 3.61 0 0 1-3.34-2.246l-6.472-15.876H245.49l-6.472 15.876a3.61 3.61 0 0 1-3.34 2.246h-18.121a3.61 3.61 0 0 1-3.009-1.618m40.241-39.415h10.718l-5.359-13.08zm60.882 41.033a3.607 3.607 0 0 1-3.607-3.607V54.284a3.607 3.607 0 0 1 3.607-3.607h19.16c1.247 0 2.405.644 3.063 1.702l18.175 29.238 18.174-29.238a3.61 3.61 0 0 1 3.064-1.702h19.16a3.607 3.607 0 0 1 3.607 3.607v80.796a3.607 3.607 0 0 1-3.607 3.607h-17.66a3.607 3.607 0 0 1-3.607-3.607V94.362l-16.119 24.465a3.6 3.6 0 0 1-3.012 1.623h-.462a3.6 3.6 0 0 1-3.012-1.623l-15.888-24.118v40.371a3.607 3.607 0 0 1-3.607 3.607zm100.206 0a3.607 3.607 0 0 1-3.607-3.607V54.284a3.607 3.607 0 0 1 3.607-3.607h17.775a3.607 3.607 0 0 1 3.607 3.607v61.03h36.676a3.606 3.606 0 0 1 3.607 3.607v16.159a3.607 3.607 0 0 1-3.607 3.607z" clip-rule="evenodd"></path><path fill="#50505a" fill-rule="evenodd" d="M894.875 58.208a3.607 3.607 0 0 1 3.607-3.607h121.928a3.61 3.61 0 0 1 3.61 3.607v93.788a3.61 3.61 0 0 1-3.61 3.607l-121.928-.001a3.607 3.607 0 0 1-3.607-3.607zm38.99 16.981a3.39 3.39 0 0 1 3.389-3.388h5.167a3.39 3.39 0 0 1 3.389 3.388v5.677a3.39 3.39 0 0 1-3.389 3.388h-5.167a3.39 3.39 0 0 1-3.389-3.389zm.508 16.944a3.39 3.39 0 0 1 3.389-3.389h4.151a3.39 3.39 0 0 1 3.389 3.389v43.205a3.39 3.39 0 0 1-3.389 3.389h-4.151a3.39 3.39 0 0 1-3.389-3.389zm28.9 3.326c4.946-5.142 11.144-7.732 18.369-7.732 7.218 0 13.372 2.587 18.215 7.749 4.843 5.045 7.283 11.194 7.283 18.259 0 7.034-2.49 13.181-7.377 18.269-4.894 5.151-11.07 7.739-18.291 7.739-7.211 0-13.385-2.552-18.285-7.648l-.03-.032c-4.778-5.101-7.185-11.27-7.185-18.328 0-7.024 2.451-13.168 7.285-18.26zm18.199 2.942c-3.883 0-7.151 1.42-9.982 4.437l-.018.019c-2.818 2.957-4.232 6.514-4.232 10.878 0 4.361 1.412 7.954 4.241 10.973 2.807 2.94 6.127 4.361 10.161 4.361 3.814 0 7.057-1.411 9.897-4.437l.019-.02c2.892-3.032 4.316-6.596 4.316-10.877 0-4.347-1.43-7.898-4.298-10.858l-.037-.039c-2.822-3.007-6.115-4.436-10.067-4.436m-66.333 40.326a3.39 3.39 0 0 1-3.389-3.389v-5.676a3.39 3.39 0 0 1 3.389-3.389h5.167a3.39 3.39 0 0 1 3.389 3.389v5.676a3.39 3.39 0 0 1-3.389 3.389z" clip-rule="evenodd"></path></svg>