<svg width="20" height="20" viewBox="0 0 20 20" fill="none" xmlns="http://www.w3.org/2000/svg">
<path d="M2.87664 14.3521C5.57582 17.0513 9.70348 17.4513 12.8261 15.5523L16.4044 19.1305C16.897 19.6232 17.6957 19.6232 18.1883 19.1305L19.1305 18.1883C19.6232 17.6957 19.6232 16.897 19.1305 16.4044L15.5523 12.8261C17.4513 9.70348 17.0513 5.57582 14.3521 2.87664C11.1832 -0.292214 6.0455 -0.292214 2.87664 2.87664C-0.292214 6.0455 -0.292214 11.1832 2.87664 14.3521ZM10.1453 3.62221C10.9483 4.42522 10.9483 5.72717 10.1453 6.53019C9.34225 7.3332 8.04031 7.3332 7.23729 6.53019C6.43428 5.72717 6.43428 4.42522 7.23729 3.62221C8.04031 2.81919 9.34226 2.81919 10.1453 3.62221Z" stroke="#fff"/>
</svg>
