<svg width="32" height="32" viewBox="0 0 32 32" fill="none" xmlns="http://www.w3.org/2000/svg">
<path d="M23.0955 23.0955L25.704 25.704M26.7781 13.889C26.7781 21.0074 21.0074 26.7781 13.889 26.7781C6.77061 26.7781 1 21.0074 1 13.889C1 6.77061 6.77061 1 13.889 1C21.0074 1 26.7781 6.77061 26.7781 13.889ZM13.8898 9.59268C10.4638 9.59268 7.47902 11.5011 5.92106 13.8723C5.91436 13.8825 5.91436 13.8956 5.92106 13.9057C7.47902 16.2769 10.4638 18.1854 13.8898 18.1854C17.3146 18.1854 20.2987 16.2781 21.857 13.9081C21.8637 13.8979 21.8637 13.8849 21.857 13.8747C20.2987 11.5047 17.3146 9.59268 13.8898 9.59268ZM17.8785 13.889C17.8785 16.0923 16.0923 17.8785 13.889 17.8785C11.6857 17.8785 9.89957 16.0923 9.89957 13.889C9.89957 11.6857 11.6857 9.89957 13.889 9.89957C16.0923 9.89957 17.8785 11.6857 17.8785 13.889ZM29.2984 30.991L30.991 29.2984C31.003 29.2864 31.003 29.267 30.991 29.255L26.6944 24.9585C26.6825 24.9465 26.663 24.9465 26.6511 24.9585L24.9585 26.651C24.9465 26.663 24.9465 26.6825 24.9585 26.6944L29.255 30.991C29.267 31.003 29.2864 31.003 29.2984 30.991Z" stroke="#FBFCFD"/>
</svg>
