<svg width="20" height="20" viewBox="0 0 20 20" fill="none" xmlns="http://www.w3.org/2000/svg">
<g clip-path="url(#clip0_25_1945)">
<ellipse cx="5.5" cy="2" rx="5" ry="1.5" stroke="#fff"/>
<path d="M10.5 4C10.5 4.82843 8.26142 5.5 5.5 5.5C2.73858 5.5 0.5 4.82843 0.5 4" stroke="#fff"/>
<path d="M10.5 6C10.5 6.82843 8.26142 7.5 5.5 7.5C2.73858 7.5 0.5 6.82843 0.5 6" stroke="#fff"/>
<path d="M10.5 8C10.5 8.82843 8.26142 9.5 5.5 9.5C2.73858 9.5 0.5 8.82843 0.5 8" stroke="#fff"/>
<path d="M10.5 10C10.5 10.8284 8.26142 11.5 5.5 11.5C2.73858 11.5 0.5 10.8284 0.5 10" stroke="#fff"/>
<path fill-rule="evenodd" clip-rule="evenodd" d="M2.10814 12.5813C2.9546 12.8352 4.15393 12.9995 5.5 12.9995C6.84607 12.9995 8.0454 12.8352 8.89186 12.5813C9.31827 12.4533 9.75 12.3679 9.75 12.3679C9.75 12.3679 9.65762 13.3956 9.17921 13.5391C8.21602 13.8281 6.91535 13.9995 5.5 13.9995C4.08465 13.9995 2.78398 13.8281 1.82079 13.5391C1.34238 13.3956 0.9188 13.2147 0.603659 12.9912C0.301507 12.7769 0 12.449 0 11.9995H1C1 11.9933 0.999333 11.9902 0.999333 11.9902C0.999333 11.9902 1.01432 12.0565 1.18219 12.1756C1.37308 12.311 1.68173 12.4533 2.10814 12.5813Z" fill="#fff"/>
<path fill-rule="evenodd" clip-rule="evenodd" d="M2.10814 14.5813C2.9546 14.8352 4.15393 14.9995 5.5 14.9995C6.84607 14.9995 8.0454 14.8352 8.89186 14.5813C9.31827 14.4533 9.75 14.3679 9.75 14.3679C9.75 14.3679 9.65762 15.3956 9.17921 15.5391C8.21602 15.8281 6.91535 15.9995 5.5 15.9995C4.08465 15.9995 2.78398 15.8281 1.82079 15.5391C1.34238 15.3956 0.9188 15.2147 0.603659 14.9912C0.301507 14.7769 0 14.449 0 13.9995H1C1 13.9933 0.999333 13.9902 0.999333 13.9902C0.999333 13.9902 1.01432 14.0565 1.18219 14.1756C1.37308 14.311 1.68173 14.4533 2.10814 14.5813Z" fill="#fff"/>
<line x1="10.5" y1="2" x2="10.5" y2="11" stroke="#fff"/>
<line x1="0.5" y1="2" x2="0.5" y2="14" stroke="#fff"/>
<ellipse cx="14.5" cy="12" rx="5" ry="1.5" stroke="#fff"/>
<path d="M19.5 14C19.5 14.8284 17.2614 15.5 14.5 15.5C11.7386 15.5 9.5 14.8284 9.5 14" stroke="#fff"/>
<path d="M19.5 16C19.5 16.8284 17.2614 17.5 14.5 17.5C11.7386 17.5 9.5 16.8284 9.5 16" stroke="#fff"/>
<path d="M19.5 18C19.5 18.8284 17.2614 19.5 14.5 19.5C11.7386 19.5 9.5 18.8284 9.5 18" stroke="#fff"/>
<line x1="19.5" y1="12" x2="19.5" y2="18" stroke="#fff"/>
<line x1="9.5" y1="12" x2="9.5" y2="18" stroke="#fff"/>
</g>
<defs>
<clipPath id="clip0_25_1945">
<rect width="20" height="20" fill="white"/>
</clipPath>
</defs>
</svg>
