<svg width="20" height="20" viewBox="0 0 20 20" fill="none" xmlns="http://www.w3.org/2000/svg">
<g clip-path="url(#clip0_284_79)">
<path d="M19.4997 10C19.4997 15.2466 15.2465 19.4999 9.99986 19.4999C4.75323 19.4999 0.5 15.2466 0.5 10" stroke="#F0F4F7"/>
<path d="M6.20085 18.5497L11.2025 13.0017C11.3827 12.812 11.6577 12.7092 11.9797 12.714L12.0215 12.7149L13.5786 12.928C13.9222 12.9482 14.2436 13.1082 14.4666 13.3719L14.5088 13.4217L14.8421 14.0068H18.6182C19.1964 12.7666 19.5009 11.4046 19.5009 9.99982C19.5009 9.59813 19.476 9.20249 19.4273 8.81399L15.7263 10.7217C15.7263 10.7217 15.2257 10.9498 14.7087 10.495L7.22135 4.31367C7.04946 4.20482 6.8378 4.17202 6.64172 4.2226C6.48156 4.26383 6.34082 4.3582 6.24131 4.48776L4.07178 7.10516L4.03935 7.16472C3.92994 7.3652 3.91968 7.60874 4.01204 7.81765C4.09652 8.00713 4.25943 8.15355 4.45551 8.21842L9.61573 10.0233M13.1657 1.04206C12.1754 0.690949 11.11 0.5 10.0011 0.5C5.33219 0.5 1.43972 3.88468 0.648438 8.32966L3.12876 9.024M9.0788 12.4028C9.07641 12.4254 9.07312 12.4483 9.06853 12.4708C9.06432 12.4933 9.05864 12.5159 9.05167 12.5379C9.04508 12.5595 9.03702 12.5817 9.02859 12.6027C9.01961 12.6238 9.00989 12.6449 8.99908 12.665C8.98827 12.6854 8.97654 12.705 8.9639 12.7242C8.95125 12.7435 8.93714 12.7618 8.92248 12.7796C8.90801 12.7975 8.89243 12.8148 8.87612 12.8313C8.86018 12.8472 8.84277 12.8631 8.82499 12.8778C8.80703 12.8923 8.78834 12.9058 8.7691 12.9185C8.75022 12.9313 8.73007 12.9434 8.70991 12.9542C8.68975 12.965 8.66904 12.9749 8.6476 12.9834C8.62635 12.9923 8.60491 13.0002 8.58273 13.0068C8.56111 13.0134 8.53857 13.0189 8.51603 13.0237C8.49367 13.0284 8.47058 13.0317 8.44767 13.0339C8.42458 13.0363 8.40168 13.0372 8.37859 13.0372C8.35568 13.0372 8.33223 13.0363 8.30914 13.0339C8.2866 13.0317 8.26369 13.0284 8.24115 13.0237C8.21861 13.0189 8.19607 13.0134 8.17389 13.0068C8.15245 13.0002 8.13028 12.9923 8.10921 12.9834C8.08813 12.9749 8.06706 12.965 8.04672 12.9542C8.02656 12.9434 8.00695 12.9313 7.98771 12.9185C7.96847 12.9058 7.94959 12.8923 7.93237 12.8778C7.91404 12.8631 7.897 12.8472 7.88069 12.8313C7.8642 12.8148 7.8488 12.7975 7.83414 12.7796C7.81967 12.7618 7.80611 12.7435 7.79328 12.7242C7.78063 12.705 7.76854 12.6854 7.75773 12.665C7.74692 12.6449 7.73702 12.6238 7.72859 12.6027C7.71961 12.5817 7.71173 12.5595 7.70513 12.5379C7.69854 12.5159 7.69286 12.4933 7.68827 12.4708C7.68351 12.4483 7.68021 12.4254 7.67783 12.4028C7.67563 12.3797 7.67471 12.3563 7.67471 12.3334C7.67471 12.3103 7.67563 12.2874 7.67783 12.2643C7.68021 12.2414 7.68351 12.2183 7.68827 12.1957C7.69286 12.1734 7.69854 12.1508 7.70513 12.1292C7.71173 12.107 7.71961 12.0856 7.72859 12.064C7.73702 12.0429 7.74692 12.0222 7.75773 12.002C7.76854 11.9819 7.78063 11.9615 7.79328 11.9429C7.80611 11.9236 7.81967 11.9049 7.83414 11.887C7.8488 11.8692 7.8642 11.8518 7.88069 11.8358C7.897 11.8193 7.91404 11.8039 7.93182 11.7895C7.94959 11.7748 7.96847 11.7607 7.98771 11.7481C8.00695 11.7354 8.02656 11.7237 8.04672 11.7129C8.06706 11.7021 8.08813 11.6922 8.10921 11.6834C8.13028 11.6749 8.1519 11.6669 8.17389 11.6603C8.19607 11.6533 8.21861 11.6476 8.24115 11.6434C8.26369 11.6387 8.2866 11.6355 8.30914 11.6332C8.35513 11.6284 8.40168 11.6284 8.44767 11.6332C8.47058 11.6355 8.49367 11.6387 8.51603 11.6434C8.53857 11.6476 8.56111 11.6533 8.58273 11.6603C8.60491 11.6669 8.62635 11.6749 8.6476 11.6834C8.66904 11.6922 8.68975 11.7021 8.70991 11.7129C8.73007 11.7237 8.75022 11.7354 8.7691 11.7481C8.78834 11.7607 8.80703 11.7748 8.82499 11.7895C8.84277 11.8039 8.86018 11.8193 8.87612 11.8358C8.89243 11.8518 8.90801 11.8692 8.92248 11.887C8.93714 11.9049 8.95125 11.9236 8.9639 11.9429C8.97654 11.9615 8.98827 11.9819 8.99908 12.002C9.00989 12.0222 9.01961 12.0429 9.02859 12.064C9.03702 12.0856 9.04508 12.107 9.05167 12.1292C9.05864 12.1508 9.06432 12.1734 9.06853 12.1957C9.07312 12.2183 9.07641 12.2414 9.0788 12.2643C9.08118 12.2874 9.08264 12.3103 9.08264 12.3334C9.08264 12.3563 9.08118 12.3797 9.0788 12.4028ZM10.3421 4.78207C10.3445 4.75953 10.3484 4.73644 10.3526 4.7139C10.3572 4.69154 10.3628 4.669 10.3694 4.64683C10.376 4.6252 10.3839 4.60321 10.3929 4.58214C10.4013 4.56106 10.4112 4.53981 10.422 4.51965C10.4329 4.49949 10.4449 4.47988 10.4576 4.46064C10.4704 4.4414 10.484 4.42307 10.4985 4.40512C10.5131 4.38734 10.5285 4.36993 10.545 4.35362C10.5613 4.33768 10.5787 4.32155 10.5967 4.30708C10.6139 4.2926 10.6328 4.27885 10.652 4.26621C10.6713 4.25357 10.6909 4.24184 10.711 4.23103C10.7314 4.22021 10.7524 4.2105 10.7735 4.20152C10.7946 4.19254 10.8168 4.18503 10.8382 4.17807C10.8604 4.17147 10.8829 4.16579 10.9055 4.16121C10.928 4.15699 10.9509 4.15314 10.9734 4.15076C11.0194 4.14655 11.0664 4.14655 11.112 4.15076C11.1349 4.15314 11.158 4.15699 11.1803 4.16121C11.2029 4.16579 11.2254 4.17147 11.247 4.17807C11.269 4.18503 11.2907 4.19254 11.3123 4.20152C11.3334 4.2105 11.3541 4.22021 11.3742 4.23103C11.3944 4.24184 11.4145 4.25357 11.4334 4.26621C11.4527 4.27885 11.4713 4.2926 11.4893 4.30708C11.5071 4.32155 11.5245 4.33768 11.5404 4.35362C11.5567 4.36993 11.5723 4.38734 11.5868 4.40512C11.6015 4.42307 11.6156 4.4414 11.6282 4.46064C11.6409 4.47988 11.6526 4.49949 11.6634 4.51965C11.6742 4.53981 11.6839 4.56106 11.6929 4.58214C11.7013 4.60321 11.7094 4.6252 11.716 4.64683C11.7229 4.669 11.7286 4.69154 11.7328 4.7139C11.7374 4.73644 11.7407 4.75953 11.7431 4.78207C11.7455 4.80497 11.747 4.82843 11.747 4.85152C11.747 4.87443 11.7455 4.89752 11.7431 4.92042C11.7407 4.94351 11.7374 4.96642 11.7328 4.98896C11.7286 5.0115 11.7229 5.03404 11.716 5.05566C11.7094 5.07765 11.7013 5.09983 11.6929 5.1209C11.6839 5.14198 11.6742 5.16268 11.6634 5.18284C11.6526 5.20355 11.6409 5.22316 11.6282 5.2424C11.6156 5.26127 11.6015 5.27996 11.5868 5.29774C11.5723 5.3157 11.5567 5.33292 11.5404 5.34905C11.5245 5.36536 11.5071 5.3813 11.4893 5.39596C11.4713 5.41044 11.4527 5.424 11.4334 5.43665C11.4145 5.44947 11.3944 5.4612 11.3742 5.47201C11.3541 5.48264 11.3334 5.49254 11.3119 5.50152C11.2907 5.5105 11.269 5.51801 11.247 5.52497C11.2254 5.53157 11.2029 5.53725 11.1803 5.54183C11.158 5.54605 11.1349 5.5499 11.112 5.5521C11.0894 5.55448 11.066 5.55539 11.0429 5.55539C11.02 5.55539 10.9965 5.55448 10.9734 5.5521C10.9509 5.5499 10.928 5.54605 10.9055 5.54183C10.8829 5.53725 10.8604 5.53157 10.8382 5.52497C10.8168 5.51801 10.7946 5.5105 10.7735 5.50152C10.7524 5.49254 10.7314 5.48264 10.711 5.47201C10.6909 5.4612 10.6713 5.44947 10.652 5.43665C10.6328 5.424 10.6139 5.41044 10.5967 5.39596C10.5787 5.3813 10.5613 5.36536 10.545 5.34905C10.5285 5.33292 10.5131 5.3157 10.4985 5.29774C10.484 5.27996 10.4704 5.26127 10.4576 5.2424C10.4449 5.22316 10.4329 5.20355 10.422 5.18284C10.4112 5.16268 10.4013 5.14198 10.3929 5.1209C10.3839 5.09983 10.376 5.07765 10.3694 5.05566C10.3628 5.03404 10.3572 5.0115 10.3526 4.98896C10.3484 4.96642 10.3445 4.94351 10.3421 4.92042C10.3399 4.89752 10.339 4.87443 10.339 4.85152C10.339 4.82843 10.3399 4.80497 10.3421 4.78207Z" stroke="#F0F4F7"/>
<path d="M5.02983 14.0067L5.50757 13.3671L4.91914 10.9872L0.503299 9.75098C0.500916 9.83362 0.5 9.91664 0.5 9.99965C0.5 11.4045 0.805116 12.7659 1.38273 14.0067H5.02983Z" stroke="#F0F4F7"/>
<path d="M19.1318 7.38028C18.4213 4.90656 16.7308 2.8435 14.5091 1.64062L13.8398 7.17009" stroke="#F0F4F7"/>
</g>
<defs>
<clipPath id="clip0_284_79">
<rect width="20" height="20" fill="white"/>
</clipPath>
</defs>
</svg>
