<svg width="34" height="34" viewBox="0 0 34 34" fill="none" xmlns="http://www.w3.org/2000/svg">
<path d="M17.3188 15.7656L17.3187 15.7656L17.3125 15.7728L7.25041 27.5133C6.63211 28.2347 6.83181 29.3419 7.66317 29.8019L9.13773 30.6177L9.62185 29.7427L8.14729 28.9269C7.87017 28.7736 7.80361 28.4045 8.0097 28.164L18.0687 16.4272L26.3422 7.13739C26.9819 6.41913 26.7898 5.2929 25.9482 4.82727L24.4947 4.02311L24.0106 4.89812L25.4641 5.70227C25.7446 5.85748 25.8086 6.23289 25.5954 6.47231L17.3188 15.7656ZM4.17046 15.0273L4.17317 15.0287C5.3693 15.6575 6.7674 15.9619 8.35069 15.9619C9.93277 15.9619 11.3169 15.6579 12.4833 15.0265C13.6485 14.4046 14.5519 13.5683 15.1748 12.5146C15.8102 11.4671 16.1279 10.317 16.1279 9.07477V7.42991C16.1279 6.16051 15.8108 4.99486 15.1732 3.94475C14.5345 2.89293 13.624 2.05733 12.4588 1.43542C11.2916 0.803668 9.89907 0.5 8.30168 0.5C6.734 0.5 5.35113 0.804794 4.17047 1.43469C3.00463 2.05667 2.09367 2.89251 1.45471 3.94475C0.81704 4.99486 0.5 6.16051 0.5 7.42991V9.07477C0.5 10.3181 0.818248 11.4691 1.45471 12.5172C2.09367 13.5694 3.00463 14.4053 4.17046 15.0273ZM11.3275 5.76062L11.3309 5.76784L11.3344 5.77495C11.5925 6.28737 11.7221 6.83674 11.7221 7.42991V9.07477C11.7221 9.65658 11.5993 10.2026 11.354 10.7185C11.1188 11.2129 10.7598 11.62 10.2634 11.9424C9.79242 12.2345 9.16554 12.3985 8.35069 12.3985C7.53653 12.3985 6.8984 12.2347 6.40815 11.939C5.89567 11.6155 5.52137 11.2074 5.27146 10.7134C5.02773 10.199 4.90582 9.65465 4.90582 9.07477V7.42991C4.90582 6.83331 5.02878 6.28133 5.2725 5.76775C5.52481 5.25576 5.89292 4.84987 6.38529 4.54326L6.38529 4.54326L6.38739 4.54194C6.87814 4.23293 7.50711 4.06342 8.30168 4.06342C9.1154 4.06342 9.74055 4.23408 10.2106 4.5385L10.217 4.54262L10.2234 4.54654C10.7303 4.85343 11.0935 5.25656 11.3275 5.76062ZM18.8268 30.0553L18.8268 30.0553L18.83 30.0605C19.4848 31.1096 20.4023 31.9439 21.5671 32.5653C22.7485 33.1956 24.1398 33.5 25.7228 33.5C27.3048 33.5 28.6889 33.196 29.8553 32.5647C31.0205 31.9428 31.924 31.1065 32.5469 30.0526C33.1829 29.0042 33.5 27.8468 33.5 26.5915V24.9252C33.5 23.6689 33.1824 22.5106 32.5453 21.4614C31.9066 20.4096 30.9961 19.5741 29.831 18.9522C28.6638 18.3204 27.2712 18.0167 25.6738 18.0167C24.1061 18.0167 22.7233 18.3215 21.5426 18.9514C20.3768 19.5734 19.4658 20.4092 18.8268 21.4614C18.1898 22.5106 17.8721 23.6689 17.8721 24.9252V26.5915C17.8721 27.8478 18.1898 29.0061 18.8268 30.0553ZM28.7261 23.2601L28.726 23.2602L28.7311 23.2703C28.9891 23.7827 29.1187 24.3321 29.1187 24.9252V26.5915C29.1187 27.1892 28.9953 27.7421 28.7506 28.2565C28.5168 28.7481 28.1517 29.1552 27.6381 29.4788C27.1669 29.7719 26.5392 29.9366 25.7228 29.9366C24.9087 29.9366 24.2705 29.7728 23.7803 29.4771C23.2685 29.154 22.8945 28.7466 22.6446 28.2535C22.3996 27.7231 22.2779 27.1707 22.2779 26.5915V24.9252C22.2779 24.3295 22.4006 23.7782 22.6436 23.2653C22.895 22.7682 23.2628 22.368 23.7574 22.06L23.7595 22.0586C24.2503 21.7496 24.8792 21.5801 25.6738 21.5801C26.506 21.5801 27.1385 21.7516 27.6072 22.0552L27.6136 22.0593L27.6201 22.0632C28.13 22.372 28.4931 22.7702 28.7261 23.2601Z" stroke="#fff"/>
</svg>
