<svg width="20" height="20" viewBox="0 0 20 20" fill="none" xmlns="http://www.w3.org/2000/svg">
<g clip-path="url(#clip0_25_1965)">
<path d="M10.4894 8.01056C10.4894 9.67324 11.8373 11.0211 13.5 11.0211C15.1627 11.0211 16.5106 9.67324 16.5106 8.01056C16.5106 6.34787 15.1627 5 13.5 5C11.8373 5 10.4894 6.34787 10.4894 8.01056Z" stroke="#fff"/>
<path d="M7.50185 18.7169C7.47645 19.0084 7.71611 19.2465 8.00874 19.2465H18.9913C19.2839 19.2465 19.5236 19.0084 19.4982 18.7169C19.23 15.6395 16.6469 13 13.5 13C10.3531 13 7.77 15.6395 7.50185 18.7169Z" stroke="#fff"/>
<path fill-rule="evenodd" clip-rule="evenodd" d="M9.01072 3.51056C9.01072 2.12402 7.88671 1 6.50016 1C5.11362 1 3.98961 2.12402 3.98961 3.51056C3.98961 4.8971 5.11362 6.02112 6.50016 6.02112C7.88671 6.02112 9.01072 4.8971 9.01072 3.51056ZM6.50016 0C8.43899 0 10.0107 1.57173 10.0107 3.51056C10.0107 5.44939 8.43899 7.02112 6.50016 7.02112C4.56134 7.02112 2.98961 5.44939 2.98961 3.51056C2.98961 1.57173 4.56134 0 6.50016 0ZM9.39881 9.8915C9.20622 9.4723 9.07602 9.0185 9.02009 8.54199C8.24654 8.195 7.39575 8 6.50016 8C3.06707 8 0.292158 10.8654 0.00390226 14.1735C-0.0494558 14.7858 0.452558 15.2465 1.00891 15.2465H7.0994C7.30949 14.8956 7.54609 14.561 7.8066 14.2465H1.00891C1.00584 14.2465 1.00338 14.2461 1.00143 14.2456C1.25641 11.4053 3.64432 9 6.50016 9C7.55899 9 8.55348 9.33064 9.39881 9.8915Z" fill="#fff"/>
</g>
<defs>
<clipPath id="clip0_25_1965">
<rect width="20" height="20" fill="white"/>
</clipPath>
</defs>
</svg>
