<svg width="122" height="122" viewBox="0 0 122 122" fill="none" xmlns="http://www.w3.org/2000/svg">
<path d="M90.6086 25.0034L89.5479 26.0641L90.6086 25.0034ZM81.503 18.0929L80.0132 18.2679L80.1022 19.0255L80.7668 19.3999L81.503 18.0929ZM99.7328 38.6587L98.3469 39.2327V39.2327L99.7328 38.6587ZM102.879 52.5603L101.381 52.639L101.455 54.0476L102.865 54.0603L102.879 52.5603ZM106.069 52.589L106.055 54.0889L106.286 54.091L106.507 54.0236L106.069 52.589ZM106.138 87.0271L106.455 85.561L106.318 85.5313L106.178 85.5276L106.138 87.0271ZM102.66 86.9353L102.699 85.4358L101.531 85.405L101.215 86.5295L102.66 86.9353ZM96.1377 101.418L97.3762 102.264L97.3762 102.264L96.1377 101.418ZM80.953 111.214L80.8768 109.716L80.8766 109.716L80.953 111.214ZM65.4989 110.724L65.1954 112.193L65.1971 112.194L65.4989 110.724ZM54.978 104.121L56.2302 103.295L55.7856 102.621H54.978V104.121ZM62.5447 104.121V102.621L62.0311 105.53L62.5447 104.121ZM65.8876 104.966L66.2997 103.523L66.2404 103.506L66.1798 103.494L65.8876 104.966ZM65.8877 104.966L65.4756 106.408L65.5349 106.425L65.5954 106.437L65.8877 104.966ZM66.4394 105.077L66.1368 106.546L66.1462 106.548L66.1556 106.549L66.4394 105.077ZM80.6444 105.228L80.8966 106.707L80.9014 106.706L80.6444 105.228ZM90.6075 97.7585L91.8464 98.6042L91.8467 98.6038L90.6075 97.7585ZM95.3233 86.7416L96.7767 87.1126L97.2416 85.2917L95.3629 85.2421L95.3233 86.7416ZM93.6786 86.6982L92.2627 87.1935L92.6045 88.1704L93.639 88.1977L93.6786 86.6982ZM93.2524 52.4739L93.2659 50.9739L92.0579 50.9631L91.7898 52.1411L93.2524 52.4739ZM95.6009 52.495L95.5874 53.9949L97.2224 54.0096L97.0965 52.3794L95.6009 52.495ZM85.3545 30.4005L86.4089 29.3335L85.3545 30.4005ZM77.905 24.793L78.6385 23.4846L77.776 23.001L76.9916 23.6031L77.905 24.793ZM77.0782 25.2214L76.6328 23.7891L77.0782 25.2214ZM75.2027 25.107L75.8189 23.7394L75.8091 23.735L75.7993 23.7307L75.2027 25.107ZM49.3398 23.902L48.84 22.4877L48.8323 22.4904L48.8246 22.4933L49.3398 23.902ZM47.3783 23.8384L46.7728 25.2107V25.2107L47.3783 23.8384ZM46.6626 23.3704L47.677 22.2654L46.9509 21.5989L46.051 22.0008L46.6626 23.3704ZM36.3811 30.4005L35.3267 29.3335L36.3811 30.4005ZM26.1345 52.4973L24.639 52.3819L24.5132 54.0119L26.148 53.9972L26.1345 52.4973ZM28.7425 52.4739L30.2051 52.1411L29.9371 50.9631L28.729 50.9739L28.7425 52.4739ZM28.3164 86.6982L28.3559 88.1977L29.3905 88.1704L29.7322 87.1935L28.3164 86.6982ZM15.8561 87.0271L15.8166 85.5276L15.6761 85.5313L15.5387 85.5611L15.8561 87.0271ZM15.9263 52.589L15.4882 54.0236L15.709 54.091L15.9398 54.0889L15.9263 52.589ZM18.8125 52.5631L18.826 54.063L20.2366 54.0503L20.3105 52.6416L18.8125 52.5631ZM21.9588 38.6587L20.573 38.0847L21.9588 38.6587ZM43.881 16.2455L44.4856 17.6182L45.2559 17.279L45.3677 16.4447L43.881 16.2455ZM44.0412 15.6282L42.6452 15.0794L42.6452 15.0795L44.0412 15.6282ZM45.382 14.1985L44.7791 12.825L44.7619 12.8326L44.7449 12.8405L45.382 14.1985ZM80.1598 16.104L79.4366 17.4181L79.4377 17.4187L80.1598 16.104ZM80.962 16.7846L82.1416 15.8581L82.1416 15.8581L80.962 16.7846ZM81.4333 17.7253L82.8838 17.343L82.8817 17.3351L81.4333 17.7253ZM91.6692 23.9427C88.8602 21.1337 85.6863 18.7277 82.2392 16.786L80.7668 19.3999C83.9767 21.2079 86.9322 23.4483 89.5479 26.0641L91.6692 23.9427ZM101.119 38.0847C98.9279 32.796 95.717 27.9905 91.6692 23.9427L89.5479 26.0641C93.3171 29.8333 96.3071 34.308 98.3469 39.2327L101.119 38.0847ZM104.377 52.4817C104.117 47.538 103.017 42.6687 101.119 38.0847L98.3469 39.2327C100.115 43.5013 101.139 48.0354 101.381 52.639L104.377 52.4817ZM106.082 51.0891L102.892 51.0604L102.865 54.0603L106.055 54.0889L106.082 51.0891ZM106.312 51.052C106.075 51.052 105.847 51.0885 105.631 51.1544L106.507 54.0236C106.451 54.0405 106.385 54.052 106.312 54.052V51.052ZM111.5 69.7989C111.5 64.9674 111.082 60.5456 110.387 57.2929C110.042 55.6788 109.612 54.2719 109.086 53.232C108.825 52.7144 108.502 52.2115 108.092 51.8193C107.677 51.4211 107.076 51.052 106.312 51.052V54.052C106.057 54.052 105.953 53.9245 106.018 53.9862C106.088 54.054 106.229 54.2292 106.409 54.585C106.766 55.2918 107.131 56.412 107.453 57.92C108.092 60.9114 108.5 65.1131 108.5 69.7989H111.5ZM106.312 88.5458C107.076 88.5458 107.677 88.1767 108.092 87.7785C108.502 87.3864 108.825 86.8834 109.086 86.3658C109.612 85.3259 110.042 83.919 110.387 82.3049C111.082 79.0522 111.5 74.6305 111.5 69.7989H108.5C108.5 74.4847 108.092 78.6864 107.453 81.6778C107.131 83.1858 106.766 84.306 106.409 85.0128C106.229 85.3686 106.088 85.5439 106.018 85.6116C105.953 85.6733 106.057 85.5458 106.312 85.5458V88.5458ZM105.822 88.4932C105.981 88.5277 106.145 88.5458 106.312 88.5458V85.5458C106.362 85.5458 106.411 85.5513 106.455 85.561L105.822 88.4932ZM102.62 88.4347L106.099 88.5266L106.178 85.5276L102.699 85.4358L102.62 88.4347ZM97.3762 102.264C101.284 96.545 103.391 89.8783 104.104 87.341L101.215 86.5295C100.53 88.9688 98.5283 95.2597 94.8992 100.571L97.3762 102.264ZM81.0292 112.712C88.2377 112.346 93.682 107.67 97.3762 102.264L94.8992 100.571C91.4713 105.588 86.7663 109.416 80.8768 109.716L81.0292 112.712ZM65.1971 112.194C69.5548 113.089 74.8882 113.025 81.0294 112.712L80.8766 109.716C74.7231 110.03 69.7407 110.064 65.8007 109.255L65.1971 112.194ZM53.7257 104.947C56.3824 108.976 60.2756 111.177 65.1954 112.193L65.8024 109.255C61.463 108.359 58.3499 106.51 56.2302 103.295L53.7257 104.947ZM51.6856 105.621H54.978V102.621H51.6856V105.621ZM48.0156 101.951C48.0156 103.978 49.6587 105.621 51.6856 105.621V102.621C51.3156 102.621 51.0156 102.321 51.0156 101.951H48.0156ZM48.0156 97.6162V101.951H51.0156V97.6162H48.0156ZM51.6856 93.9463C49.6587 93.9463 48.0156 95.5894 48.0156 97.6162H51.0156C51.0156 97.2462 51.3156 96.9463 51.6856 96.9463V93.9463ZM63.0937 93.9463H51.6856V96.9463H63.0937V93.9463ZM66.7636 97.6162C66.7636 95.5894 65.1205 93.9463 63.0937 93.9463V96.9463C63.4637 96.9463 63.7636 97.2462 63.7636 97.6162H66.7636ZM66.7636 101.951V97.6162H63.7636V101.951H66.7636ZM63.0937 105.621C65.1205 105.621 66.7636 103.978 66.7636 101.951H63.7636C63.7636 102.321 63.4637 102.621 63.0937 102.621V105.621ZM62.5447 105.621H63.0937V102.621H62.5447V105.621ZM66.1798 103.494C65.1495 103.29 64.0196 103.062 63.0583 102.712L62.0311 105.53C63.2465 105.973 64.6078 106.241 65.5953 106.437L66.1798 103.494ZM66.2998 103.523L66.2997 103.523L65.4755 106.408L65.4756 106.408L66.2998 103.523ZM66.742 103.607C66.5625 103.57 66.3723 103.533 66.1799 103.494L65.5954 106.437C65.7901 106.476 65.9696 106.511 66.1368 106.546L66.742 103.607ZM80.3922 103.75C75.864 104.522 71.2338 104.473 66.7231 103.604L66.1556 106.549C71.02 107.487 76.0133 107.54 80.8966 106.707L80.3922 103.75ZM89.3687 96.9128C87.1384 100.18 84.2807 103.073 80.3874 103.751L80.9014 106.706C86.0209 105.816 89.4821 102.067 91.8464 98.6042L89.3687 96.9128ZM93.8699 86.3706C93.1861 89.0493 91.8014 93.3465 89.3684 96.9132L91.8467 98.6038C94.5693 94.6126 96.0594 89.9224 96.7767 87.1126L93.8699 86.3706ZM93.639 88.1977L95.2838 88.2411L95.3629 85.2421L93.7182 85.1987L93.639 88.1977ZM93.2524 52.4739C91.7898 52.1411 91.7897 52.1414 91.7896 52.1419C91.7896 52.1421 91.7895 52.1426 91.7894 52.1431C91.7891 52.1441 91.7888 52.1454 91.7885 52.147C91.7878 52.1502 91.7868 52.1546 91.7855 52.1602C91.783 52.1713 91.7794 52.1873 91.7749 52.208C91.7657 52.2494 91.7526 52.3096 91.7358 52.3878C91.7023 52.5443 91.6544 52.7729 91.5956 53.0674C91.4781 53.6563 91.3168 54.509 91.1395 55.575C90.7851 57.7057 90.3654 60.6954 90.1036 64.138C89.583 70.9829 89.6714 79.7869 92.2627 87.1935L95.0944 86.2028C92.7091 79.3848 92.5845 71.0767 93.0949 64.3656C93.3486 61.0303 93.7556 58.1309 94.0989 56.0672C94.2704 55.036 94.4257 54.2151 94.5376 53.6546C94.5935 53.3745 94.6386 53.1595 94.6693 53.0161C94.6847 52.9443 94.6964 52.8905 94.7042 52.8553C94.7081 52.8378 94.711 52.8248 94.7128 52.8167C94.7137 52.8126 94.7144 52.8097 94.7147 52.8081C94.7149 52.8072 94.715 52.8067 94.7151 52.8065C94.7151 52.8063 94.7151 52.8064 94.7151 52.8063C94.7151 52.8065 94.7151 52.8067 93.2524 52.4739ZM95.6144 50.995L93.2659 50.9739L93.239 53.9738L95.5874 53.9949L95.6144 50.995ZM84.3002 31.4674C90.0227 37.1225 93.4895 44.6372 94.1054 52.6105L97.0965 52.3794C96.4251 43.6886 92.6464 35.4976 86.4089 29.3335L84.3002 31.4674ZM77.1714 26.1014C79.7555 27.5501 82.1564 29.3489 84.3002 31.4674L86.4089 29.3335C84.0723 27.0245 81.4552 25.0637 78.6385 23.4846L77.1714 26.1014ZM76.9916 23.6031C76.8847 23.6852 76.7635 23.7484 76.6328 23.7891L77.5236 26.6538C77.9953 26.5071 78.4329 26.2787 78.8184 25.9828L76.9916 23.6031ZM76.6328 23.7891C76.3645 23.8725 76.075 23.8548 75.8189 23.7394L74.5865 26.4746C75.5108 26.891 76.5555 26.9548 77.5236 26.6538L76.6328 23.7891ZM75.7993 23.7307C71.3805 21.8153 60.6996 18.2972 48.84 22.4877L49.8395 25.3163C60.6591 21.4933 70.4823 24.6956 74.6061 26.4833L75.7993 23.7307ZM48.8246 22.4933C48.5513 22.5932 48.25 22.5834 47.9838 22.466L46.7728 25.2107C47.7486 25.6412 48.8533 25.6771 49.855 25.3108L48.8246 22.4933ZM47.9838 22.466C47.8702 22.4159 47.7668 22.3479 47.677 22.2654L45.6483 24.4755C45.9775 24.7777 46.3566 25.0271 46.7728 25.2107L47.9838 22.466ZM37.4354 31.4674C40.3117 28.6251 43.6508 26.3582 47.2743 24.7401L46.051 22.0008C42.1015 23.7645 38.4618 26.2355 35.3267 29.3335L37.4354 31.4674ZM27.6301 52.6127C28.2455 44.6386 31.7124 37.123 37.4354 31.4674L35.3267 29.3335C29.0886 35.4981 25.3098 43.6901 24.639 52.3819L27.6301 52.6127ZM28.729 50.9739L26.1211 50.9974L26.148 53.9972L28.756 53.9738L28.729 50.9739ZM29.7322 87.1935C32.3235 79.7869 32.412 70.9829 31.8914 64.138C31.6295 60.6954 31.2099 57.7057 30.8554 55.575C30.6781 54.509 30.5168 53.6563 30.3993 53.0674C30.3405 52.7729 30.2927 52.5443 30.2591 52.3878C30.2424 52.3096 30.2292 52.2494 30.2201 52.208C30.2155 52.1873 30.2119 52.1713 30.2094 52.1602C30.2082 52.1546 30.2072 52.1502 30.2065 52.147C30.2061 52.1454 30.2058 52.1441 30.2056 52.1431C30.2055 52.1426 30.2054 52.1421 30.2053 52.1419C30.2052 52.1414 30.2051 52.1411 28.7425 52.4739C27.2799 52.8067 27.2799 52.8065 27.2798 52.8063C27.2798 52.8064 27.2798 52.8063 27.2799 52.8065C27.2799 52.8067 27.28 52.8072 27.2802 52.8081C27.2806 52.8097 27.2812 52.8126 27.2822 52.8167C27.284 52.8248 27.2869 52.8378 27.2908 52.8553C27.2985 52.8905 27.3103 52.9443 27.3257 53.0161C27.3564 53.1595 27.4014 53.3745 27.4573 53.6546C27.5692 54.2151 27.7246 55.036 27.8961 56.0672C28.2394 58.1309 28.6463 61.0303 28.9 64.3656C29.4105 71.0767 29.2859 79.3848 26.9005 86.2028L29.7322 87.1935ZM15.8957 88.5266L28.3559 88.1977L28.2768 85.1987L15.8166 85.5276L15.8957 88.5266ZM15.6835 88.5458C15.8505 88.5458 16.0145 88.5276 16.1736 88.4931L15.5387 85.5611C15.5834 85.5514 15.6322 85.5458 15.6835 85.5458V88.5458ZM10.5 69.7989C10.5 74.6305 10.9179 79.0521 11.6125 82.3046C11.9572 83.9186 12.3866 85.3253 12.9112 86.365C13.1722 86.8824 13.4944 87.3853 13.9032 87.7775C14.3181 88.1756 14.9189 88.5458 15.6835 88.5458V85.5458C15.94 85.5458 16.0444 85.6744 15.98 85.6126C15.9095 85.5449 15.7692 85.3696 15.5896 85.0137C15.2329 84.3066 14.8685 83.1861 14.5464 81.6781C13.9075 78.6865 13.5 74.4847 13.5 69.7989H10.5ZM15.6835 51.052C14.9189 51.052 14.3181 51.4222 13.9032 51.8203C13.4944 52.2125 13.1722 52.7154 12.9112 53.2328C12.3866 54.2725 11.9572 55.6792 11.6125 57.2932C10.9179 60.5457 10.5 64.9673 10.5 69.7989H13.5C13.5 65.1131 13.9075 60.9113 14.5464 57.9198C14.8685 56.4117 15.2329 55.2912 15.5896 54.5841C15.7692 54.2282 15.9095 54.0529 15.98 53.9852C16.0444 53.9234 15.94 54.052 15.6835 54.052V51.052ZM16.3643 51.1544C16.1485 51.0885 15.92 51.052 15.6835 51.052V54.052C15.6101 54.052 15.5436 54.0405 15.4882 54.0236L16.3643 51.1544ZM18.799 51.0631L15.9128 51.0891L15.9398 54.0889L18.826 54.063L18.799 51.0631ZM20.573 38.0847C18.6739 42.6696 17.5737 47.5398 17.3146 52.4846L20.3105 52.6416C20.5518 48.0371 21.5762 43.5021 23.3446 39.2327L20.573 38.0847ZM30.0223 23.9427C25.9745 27.9905 22.7636 32.796 20.573 38.0847L23.3446 39.2327C25.3845 34.308 28.3744 29.8333 32.1436 26.0641L30.0223 23.9427ZM43.2764 14.8727C38.3373 17.0479 33.8424 20.1226 30.0223 23.9427L32.1436 26.0641C35.7008 22.5069 39.8864 19.6437 44.4856 17.6182L43.2764 14.8727ZM45.3677 16.4447C45.3799 16.3537 45.4031 16.2638 45.4372 16.1769L42.6452 15.0795C42.522 15.3928 42.4384 15.7175 42.3943 16.0462L45.3677 16.4447ZM45.4372 16.1769C45.5448 15.9033 45.753 15.6813 46.0191 15.5565L44.7449 12.8405C43.7845 13.2911 43.0332 14.0922 42.6452 15.0794L45.4372 16.1769ZM45.9849 15.572C51.0289 13.3579 64.3403 9.11041 79.4366 17.4181L80.883 14.7898C64.6303 5.84573 50.2467 10.425 44.7791 12.825L45.9849 15.572ZM79.4377 17.4187C79.5711 17.492 79.6884 17.5915 79.7824 17.7112L82.1416 15.8581C81.798 15.4206 81.3695 15.057 80.8819 14.7892L79.4377 17.4187ZM79.7824 17.7112C79.8765 17.8309 79.9454 17.9684 79.985 18.1155L82.8817 17.3351C82.737 16.7979 82.4853 16.2956 82.1416 15.8581L79.7824 17.7112ZM79.9829 18.1075C79.9968 18.1603 80.0069 18.2139 80.0132 18.2679L82.9928 17.918C82.97 17.7245 82.9337 17.5324 82.8838 17.343L79.9829 18.1075Z" fill="#F0F4F7"/>
</svg>
