<svg viewBox="0 0 37 30" fill="none" xmlns="http://www.w3.org/2000/svg">
<path opacity="0.5" fill-rule="evenodd" clip-rule="evenodd" d="M2.48856 12.9148C12.2059 8.68111 18.6857 5.89 21.9278 4.54148C31.1848 0.691161 33.1084 0.022321 34.3621 0.000235481C34.6378 -0.00462199 35.2544 0.063716 35.6538 0.38778C35.991 0.661414 36.0838 1.03105 36.1282 1.29049C36.1726 1.54992 36.2279 2.14092 36.1839 2.60271C35.6823 7.8735 33.5117 20.6643 32.4074 26.5677C31.9401 29.0656 31.0201 29.9032 30.1294 29.9851C28.1936 30.1633 26.7237 28.7059 24.8489 27.4769C21.9151 25.5538 20.2577 24.3566 17.41 22.48C14.119 20.3113 16.2524 19.1193 18.128 17.1712C18.6188 16.6614 27.1477 8.90377 27.3128 8.20002C27.3334 8.11201 27.3526 7.78393 27.1577 7.6107C26.9627 7.43746 26.6751 7.4967 26.4675 7.54381C26.1733 7.6106 21.4865 10.7084 12.4073 16.8371C11.077 17.7506 9.87204 18.1957 8.79244 18.1723C7.60226 18.1466 5.31285 17.4994 3.61091 16.9462C1.5234 16.2676 -0.135701 15.9088 0.00876979 14.7564C0.0840191 14.1562 0.910616 13.5423 2.48856 12.9148Z" fill="#F0F4F7"/>
</svg>
