<?xml version="1.0" encoding="UTF-8"?> <svg xmlns="http://www.w3.org/2000/svg" width="1680" height="937" viewBox="0 0 1680 937" fill="none"><g clip-path="url(#clip0_4163_2)"><path d="M1282.29 546.367C1297.55 559.835 1320.83 558.38 1334.29 543.125C1387.76 482.547 1417.2 404.647 1417.2 323.774C1417.2 305.181 1417.2 6.18435 1417.2 -10.4297C1417.2 -30.7787 1400.71 -47.2744 1380.36 -47.2744C1360.01 -47.2744 1343.51 -30.7787 1343.51 -10.4297C1343.51 6.06214 1343.51 11.4389 1343.51 11.3154C1343.51 46.5963 1343.51 132.542 1343.51 323.774C1343.51 386.677 1320.62 447.257 1279.05 494.359C1265.58 509.619 1267.03 532.902 1282.29 546.367Z" fill="#F0F4F7"></path><path d="M1080.69 655.363C1108.74 655.363 1136.62 651.849 1163.56 644.915C1183.27 639.842 1195.13 619.755 1190.06 600.048C1184.98 580.34 1164.9 568.484 1145.19 573.551C1124.25 578.94 1102.55 581.674 1080.69 581.674C938.137 581.674 822.773 466.32 822.773 323.762C822.773 303.413 806.278 286.917 785.929 286.917C765.581 286.917 749.084 303.413 749.084 323.762C749.084 507.039 897.396 655.363 1080.69 655.363Z" fill="#F0F4F7"></path><path d="M1232.98 213.237C1253.33 213.237 1269.82 196.739 1269.82 176.392V-98.0274C1269.82 -118.376 1253.33 -134.872 1232.98 -134.872C1212.63 -134.872 1196.13 -118.376 1196.13 -98.0274V176.392C1196.13 196.739 1212.63 213.237 1232.98 213.237Z" fill="#F0F4F7"></path><path d="M921.133 415.9C953.99 472.699 1015.13 507.984 1080.69 507.984C1182.56 507.984 1269.82 425.645 1269.82 323.762C1269.82 303.413 1253.33 286.917 1232.98 286.917C1212.63 286.917 1196.13 303.413 1196.13 323.762C1196.13 383.678 1143.27 434.296 1080.69 434.296C1041.35 434.296 1004.65 413.11 984.922 379.002C974.73 361.387 952.194 355.372 934.579 365.558C916.966 375.746 910.948 398.286 921.133 415.9Z" fill="#F0F4F7"></path><path d="M933.306 286.926C953.655 286.926 970.15 270.429 970.15 250.081V-98.0274C970.15 -118.376 953.655 -134.872 933.306 -134.872C912.958 -134.872 896.461 -118.376 896.461 -98.0274V250.081C896.461 270.429 912.958 286.926 933.306 286.926Z" fill="#F0F4F7"></path><path d="M1080.69 360.618C1101.04 360.618 1117.53 344.121 1117.53 323.773V176.394C1117.53 156.046 1101.04 139.55 1080.69 139.55C1060.34 139.55 1043.84 156.046 1043.84 176.394V323.773C1043.84 344.121 1060.34 360.618 1080.69 360.618Z" fill="#F0F4F7"></path><path d="M785.929 213.237C806.278 213.237 822.773 196.74 822.773 176.393V-10.4297C822.773 -30.7787 806.278 -47.2744 785.929 -47.2744C765.581 -47.2744 749.084 -30.7787 749.084 -10.4297V176.393C749.084 196.74 765.581 213.237 785.929 213.237Z" fill="#F0F4F7"></path><path d="M1080.69 60.9423C1101.04 60.9423 1117.53 44.4452 1117.53 24.0976V-123.281C1117.53 -143.63 1101.04 -160.126 1080.69 -160.126C1060.34 -160.126 1043.84 -143.63 1043.84 -123.281V24.0976C1043.84 44.4452 1060.34 60.9423 1080.69 60.9423Z" fill="#F0F4F7"></path><path fill-rule="evenodd" clip-rule="evenodd" d="M1080.68 862.314L1050.02 929.319C1069.49 938.227 1091.88 938.227 1111.35 929.319L1080.68 862.314ZM909.825 768.537C983.488 817.831 1080.68 862.314 1080.68 862.314C1050.02 929.319 1050.01 929.317 1050.01 929.314L1049.99 929.306L1049.82 929.229L1049.4 929.037C1049.24 928.959 1049.03 928.866 1048.8 928.758C1048.67 928.701 1048.54 928.64 1048.4 928.575C1048.26 928.507 1048.1 928.434 1047.93 928.357C1046.68 927.775 1044.88 926.936 1042.6 925.861C1038.04 923.712 1031.54 920.609 1023.55 916.707C1007.62 908.918 985.615 897.859 961.324 884.754C914.644 859.572 852.699 823.264 811.514 785.999L811.245 785.753C807.492 782.324 803.782 778.878 800.114 775.415L909.825 768.537ZM899.095 761.202C884.878 751.261 871.841 741.207 860.954 731.356C722.103 604.47 650.712 456.832 648.787 292.472L644.689 -66.7073C815.415 -111.16 969.531 -191.02 1080.68 -290.311C1191.84 -191.02 1345.95 -111.16 1516.68 -66.7073L1512.58 292.472C1510.66 456.832 1439.27 604.47 1300.42 731.356C1232.44 792.862 1080.68 862.314 1080.68 862.314C1111.35 929.319 1111.36 929.317 1111.36 929.314L1111.38 929.306L1111.55 929.229L1111.97 929.037L1112.02 929.012C1112.21 928.924 1112.44 928.82 1112.7 928.697C1112.92 928.595 1113.17 928.482 1113.44 928.357C1114.69 927.775 1116.49 926.936 1118.77 925.861C1123.32 923.712 1129.83 920.609 1137.82 916.707C1153.75 908.918 1175.76 897.859 1200.05 884.754C1246.73 859.572 1308.67 823.264 1349.86 785.999C1349.95 785.917 1350.04 785.835 1350.13 785.753C1501.64 647.296 1584.07 481.117 1586.27 293.335V293.312L1590.37 -65.8675C1590.75 -99.7248 1568.02 -129.488 1535.25 -138.02C1374.14 -179.968 1230.97 -254.875 1129.78 -345.267C1101.81 -370.244 1059.56 -370.244 1031.59 -345.267C930.402 -254.875 787.231 -179.968 626.122 -138.02C593.355 -129.488 570.619 -99.7248 571.005 -65.8675L575.102 293.335C577.209 473.114 652.85 633.092 792.25 767.9L899.095 761.202Z" fill="#F0F4F7"></path><path d="M1128.59 752.388C1128.59 778.842 1107.14 800.287 1080.69 800.287C1054.23 800.287 1032.79 778.842 1032.79 752.388C1032.79 725.936 1054.23 704.491 1080.69 704.491C1107.14 704.491 1128.59 725.936 1128.59 752.388Z" fill="#F0F4F7"></path><path d="M345.201 526.922L343.922 530.799L347.799 532.078L349.078 528.201L345.201 526.922ZM537 907.5L537.328 901.736L532.172 904.334L537 907.5ZM346.053 529.725L534.528 903.706L535.421 903.256L346.947 529.275L346.053 529.725Z" fill="#F0F4F7"></path><path d="M338.206 528.121L335.121 530.794L337.795 533.879L340.88 531.206L338.206 528.121ZM330 643L333.236 638.218L327.477 637.807L330 643ZM337.501 530.964L329.822 638.476L330.82 638.547L338.499 531.036L337.501 530.964Z" fill="#F0F4F7"></path><path d="M344.776 497.114L348.614 495.724L347.224 491.885L343.386 493.276L344.776 497.114ZM357.001 471L352.266 474.304L357.495 476.752L357.001 471ZM346.453 494.712L355.546 475.287L354.64 474.863L345.547 494.288L346.453 494.712Z" fill="#F0F4F7"></path><path d="M471.188 608.947L467.447 607.312L465.812 611.053L469.553 612.688L471.188 608.947ZM346 658L351.709 658.864L349.603 653.488L346 658ZM468.318 609.535L350.008 655.893L350.373 656.824L468.683 610.466L468.318 609.535Z" fill="#F0F4F7"></path><path d="M477.706 616.638L473.639 616.294L473.294 620.362L477.362 620.706L477.706 616.638ZM277.001 786L282.684 784.982L278.96 780.569L277.001 786ZM475.178 618.118L280.118 782.716L280.763 783.48L475.823 618.882L475.178 618.118Z" fill="#F0F4F7"></path><path d="M230.986 408.931L230.931 413.014L235.014 413.069L235.069 408.986L230.986 408.931ZM324.5 505L323.081 499.404L318.944 503.431L324.5 505ZM232.642 411.349L321.003 502.124L321.719 501.427L233.358 410.651L232.642 411.349Z" fill="#F0F4F7"></path><path d="M222.999 411L220.632 416.266L226.376 415.682L222.999 411ZM260.291 777.872L262.871 774.708L259.707 772.128L257.127 775.292L260.291 777.872ZM222.956 415.527L259.501 775.051L260.496 774.949L223.951 415.426L222.956 415.527Z" fill="#F0F4F7"></path><path d="M328.508 499.574L328.574 495.492L324.492 495.426L324.426 499.508L328.508 499.574ZM236 404L237.403 409.6L241.552 405.585L236 404ZM326.859 497.152L239.489 406.886L238.77 407.581L326.141 497.848L326.859 497.152Z" fill="#F0F4F7"></path><path d="M682.501 768L681.325 762.347L677.018 766.192L682.501 768ZM639.078 719.346L638.846 723.422L642.922 723.654L643.154 719.578L639.078 719.346ZM640.627 721.833L679.131 764.976L679.877 764.31L641.373 721.167L640.627 721.833Z" fill="#F0F4F7"></path><path d="M1030 757L1019.66 751.864L1020.38 763.388L1030 757ZM711.238 776.982L717.361 782.383L722.762 776.26L716.639 770.859L711.238 776.982ZM1020.96 756.565L716.937 775.623L717.063 777.619L1021.08 758.561L1020.96 756.565Z" fill="#F0F4F7"></path><circle cx="486" cy="603" r="13" fill="#F0F4F7"></circle><path d="M623.999 721L619.393 724.481L624.711 726.729L623.999 721ZM544.875 908.159L548.658 906.624L547.123 902.841L543.34 904.376L544.875 908.159ZM546.46 905.695L622.707 725.34L621.786 724.95L545.538 905.305L546.46 905.695Z" fill="#F0F4F7"></path><circle cx="540" cy="923.365" r="13" fill="#F0F4F7"></circle><circle cx="338.846" cy="512.077" r="13" fill="#F0F4F7"></circle><circle cx="365" cy="457" r="13" fill="#F0F4F7"></circle><circle cx="263" cy="793.692" r="13" fill="#F0F4F7"></circle><circle cx="695" cy="778" r="13" fill="#F0F4F7"></circle><circle cx="330" cy="659" r="13" fill="#F0F4F7"></circle><circle cx="630" cy="706" r="13" fill="#F0F4F7"></circle><circle cx="223" cy="395" r="13" fill="#F0F4F7"></circle><path fill-rule="evenodd" clip-rule="evenodd" d="M339 826.227C348.744 809.287 367.486 797.818 389.005 797.818C410.517 797.818 429.254 809.312 439 826.244C429.254 843.176 410.517 854.636 389.005 854.636C367.486 854.636 348.744 843.168 339 826.227Z" stroke="#F0F4F7" stroke-miterlimit="22.9256" stroke-linecap="square" stroke-dasharray="2 2"></path><path d="M390.136 854.637C405.826 854.637 418.545 841.917 418.545 826.227C418.545 810.538 405.826 797.818 390.136 797.818C374.446 797.818 361.727 810.538 361.727 826.227C361.727 841.917 374.446 854.637 390.136 854.637Z" stroke="#F0F4F7" stroke-miterlimit="22.9256"></path><path fill-rule="evenodd" clip-rule="evenodd" d="M379.723 826.601H372.992C372.993 826.7 372.994 826.798 372.996 826.896C373.072 830.674 373.952 834.217 375.43 837.278H381.088C381.062 837.181 381.036 837.082 381.01 836.984C380.207 833.89 379.746 830.359 379.723 826.601ZM380.702 836.984C379.924 833.963 379.471 830.537 379.427 826.896H373.295C373.369 830.562 374.209 834.001 375.619 836.984H380.702ZM390.491 805.005C390.591 805.013 390.691 805.025 390.79 805.039C393.794 805.482 396.429 808.968 398.075 814.122C398.106 814.22 398.137 814.318 398.168 814.417H390.491V805.005ZM390.79 805.337V814.122H397.762C396.939 811.571 395.874 809.453 394.655 807.931C393.467 806.448 392.154 805.554 390.79 805.337ZM390.802 803.958V803.038C390.802 802.858 390.741 802.684 390.609 802.554C390.477 802.424 390.301 802.364 390.118 802.364C389.935 802.364 389.759 802.424 389.627 802.554C389.495 802.684 389.434 802.858 389.434 803.038V803.959C381.728 804.194 374.975 808.248 371.048 814.251C370.914 814.349 370.824 814.492 370.792 814.66C368.728 817.969 367.524 821.837 367.456 825.98C367.434 826.038 367.408 826.123 367.408 826.222C367.408 826.297 367.418 826.375 367.443 826.451C367.509 838.501 377.282 848.331 389.434 848.714V849.417C389.434 849.597 389.495 849.771 389.627 849.901C389.759 850.031 389.935 850.091 390.118 850.091C390.301 850.091 390.477 850.031 390.609 849.901C390.741 849.771 390.802 849.597 390.802 849.417V848.716C403.02 848.377 412.863 838.47 412.863 826.337C412.863 814.203 403.02 804.297 390.802 803.958ZM390.503 848.427C402.694 848.243 412.564 838.406 412.564 826.337C412.564 814.267 402.694 804.43 390.503 804.246V803.038C390.503 802.808 390.351 802.658 390.118 802.658C389.885 802.658 389.733 802.808 389.733 803.038V804.246C381.986 804.384 375.185 808.434 371.265 814.463C371.16 814.521 371.09 814.624 371.079 814.762C369.014 818.053 367.812 821.907 367.754 826.038C367.73 826.095 367.707 826.153 367.707 826.222C367.707 826.291 367.719 826.348 367.742 826.394C367.777 838.406 377.588 848.197 389.733 848.427V849.417C389.733 849.647 389.885 849.796 390.118 849.796C390.351 849.796 390.503 849.647 390.503 849.417V848.427ZM379.712 825.853C379.745 822.086 380.239 818.545 381.066 815.471C381.092 815.372 381.119 815.274 381.146 815.176H375.511C374.01 818.227 373.097 821.769 372.987 825.559C372.984 825.657 372.982 825.755 372.98 825.853H379.712ZM373.286 825.559H379.416C379.472 821.908 379.957 818.472 380.757 815.471H375.699C374.266 818.444 373.394 821.882 373.286 825.559ZM375.908 814.417H381.368C382.528 810.607 384.232 807.591 386.232 805.86C386.424 805.694 386.619 805.539 386.816 805.397C386.57 805.457 386.326 805.523 386.084 805.596C381.967 806.838 378.434 809.931 376.071 814.122C376.016 814.22 375.962 814.318 375.908 814.417ZM376.414 814.122C378.625 810.266 381.837 807.389 385.56 806.078C383.746 807.869 382.22 810.683 381.147 814.122H376.414ZM381.031 807.309C378.615 809.071 376.565 811.51 375.057 814.417H372.21C372.278 814.318 372.346 814.22 372.415 814.122C374.555 811.103 377.475 808.655 380.876 807.055C381.373 806.821 381.879 806.606 382.395 806.409C381.929 806.685 381.474 806.986 381.031 807.309ZM372.781 814.122C374.595 811.616 376.957 809.519 379.689 807.996C377.78 809.642 376.143 811.724 374.875 814.122H372.781ZM371.887 815.471C370.057 818.434 368.96 821.873 368.831 825.559H371.941C372.044 821.91 372.85 818.475 374.217 815.471H371.887ZM371.72 815.176C369.809 818.216 368.664 821.759 368.532 825.559C368.528 825.657 368.526 825.755 368.524 825.854H372.233C372.301 822.086 373.125 818.545 374.545 815.471C374.59 815.372 374.637 815.274 374.683 815.176H371.72ZM372.222 826.601C372.256 830.359 373.056 833.89 374.433 836.984C374.477 837.082 374.522 837.181 374.567 837.278H371.568C369.726 834.217 368.616 830.674 368.517 826.896C368.515 826.798 368.513 826.7 368.512 826.601H372.222ZM368.816 826.896H371.927C371.998 830.536 372.782 833.962 374.107 836.984H371.739C369.975 833.999 368.913 830.56 368.816 826.896ZM372.058 838.026C372.124 838.125 372.191 838.223 372.259 838.321C374.421 841.447 377.399 843.985 380.894 845.627C381.384 845.857 381.885 846.07 382.395 846.264C381.935 845.99 381.486 845.693 381.048 845.373C378.568 843.561 376.467 841.039 374.94 838.026H372.058ZM372.621 838.321C374.465 840.932 376.889 843.118 379.711 844.689C377.736 842.988 376.049 840.822 374.756 838.321H372.621ZM375.803 838.026C375.856 838.125 375.909 838.223 375.963 838.321C378.326 842.609 381.901 845.779 386.061 847.058C386.307 847.134 386.555 847.203 386.805 847.265C386.603 847.121 386.405 846.964 386.209 846.795C384.17 845.032 382.448 841.932 381.298 838.026H375.803ZM376.303 838.321C378.517 842.269 381.766 845.221 385.531 846.571C383.682 844.742 382.14 841.848 381.075 838.321H376.303ZM389.733 847.656V838.026H382.068C382.098 838.125 382.128 838.223 382.158 838.321C383.782 843.555 386.419 847.119 389.434 847.617C389.533 847.634 389.633 847.647 389.733 847.656ZM389.434 847.318C388.066 847.075 386.75 846.15 385.564 844.633C384.344 843.073 383.284 840.914 382.471 838.321H389.434V847.318ZM382.088 836.984H389.434V826.896H380.783C380.828 830.571 381.3 834.009 382.088 836.984ZM381.858 837.278C381.028 834.228 380.53 830.685 380.484 826.896C380.483 826.798 380.482 826.7 380.481 826.601H389.733V837.278H381.858ZM380.784 825.559H389.434V815.471H382.134C381.334 818.446 380.841 821.884 380.784 825.559ZM389.733 825.853V815.176H381.905C381.063 818.227 380.543 821.769 380.485 825.559C380.484 825.657 380.482 825.755 380.481 825.853H389.733ZM382.532 814.122H389.434V805.343C388.077 805.579 386.775 806.483 385.601 807.964C384.394 809.486 383.344 811.593 382.532 814.122ZM389.733 814.417V805.005C389.633 805.015 389.533 805.028 389.434 805.044C386.444 805.528 383.841 809.012 382.218 814.122C382.187 814.22 382.157 814.318 382.126 814.417H389.733ZM411.794 825.842C411.792 825.744 411.789 825.645 411.785 825.547C411.642 821.758 410.496 818.215 408.597 815.165H405.634C405.68 815.263 405.726 815.361 405.771 815.459C407.182 818.543 408.016 822.074 408.084 825.842H411.794ZM411.486 825.547H408.376C408.272 821.897 407.457 818.472 406.099 815.459H408.429C410.249 818.433 411.345 821.872 411.486 825.547ZM400.89 826.884C400.846 830.526 400.382 833.961 399.604 836.972H404.698C406.109 834 406.948 830.561 407.023 826.884H400.89ZM400.594 826.59C400.572 830.347 400.1 833.888 399.296 836.972C399.27 837.071 399.244 837.169 399.218 837.267H404.887C406.366 834.216 407.246 830.674 407.321 826.884C407.323 826.786 407.325 826.688 407.326 826.59H400.594ZM400.878 825.547C400.822 821.896 400.337 818.47 399.537 815.459H404.583C406.027 818.432 406.9 821.871 407.008 825.547H400.878ZM407.307 825.547C407.31 825.645 407.312 825.744 407.314 825.842H400.583C400.549 822.074 400.055 818.543 399.228 815.459C399.202 815.361 399.175 815.263 399.148 815.165H404.771C406.283 818.215 407.197 821.758 407.307 825.547ZM408.096 814.417C408.028 814.318 407.96 814.22 407.891 814.122C405.751 811.103 402.83 808.655 399.429 807.055C398.933 806.821 398.427 806.606 397.911 806.409C398.377 806.685 398.832 806.986 399.275 807.309C401.691 809.071 403.741 811.51 405.249 814.417H408.096ZM407.525 814.122C405.711 811.616 403.348 809.519 400.617 807.996C402.526 809.642 404.163 811.724 405.431 814.122H407.525ZM404.386 814.417C404.332 814.318 404.278 814.22 404.223 814.122C401.862 809.933 398.33 806.851 394.226 805.6C393.983 805.526 393.737 805.458 393.489 805.397C393.688 805.54 393.884 805.695 394.078 805.863C396.076 807.595 397.778 810.609 398.938 814.417H404.386ZM403.88 814.122H399.159C398.087 810.687 396.563 807.876 394.752 806.084C398.463 807.403 401.671 810.271 403.88 814.122ZM398.161 815.46H390.79V825.547H399.521C399.454 821.861 398.97 818.423 398.161 815.46ZM398.389 815.165H390.491V825.842H399.824C399.823 825.744 399.822 825.645 399.82 825.547C399.751 821.747 399.242 818.204 398.389 815.165ZM390.79 826.884V836.972H398.218C399.006 833.998 399.478 830.56 399.523 826.884H390.79ZM390.491 826.59V837.267H398.448C399.278 834.216 399.775 830.674 399.822 826.884C399.823 826.786 399.824 826.688 399.824 826.59H390.491ZM397.835 838.321H390.802V847.336C392.181 847.118 393.512 846.2 394.712 844.677C395.944 843.113 397.016 840.937 397.835 838.321ZM390.503 838.026V847.668C390.603 847.66 390.702 847.649 390.802 847.634C393.841 847.187 396.511 843.601 398.148 838.321C398.178 838.223 398.208 838.125 398.238 838.026H390.503ZM399.231 838.321C398.154 841.865 396.606 844.757 394.759 846.589C398.543 845.242 401.808 842.285 404.016 838.321H399.231ZM399.008 838.026C397.846 841.947 396.12 845.041 394.087 846.81C393.894 846.978 393.699 847.133 393.501 847.277C393.748 847.215 393.993 847.148 394.236 847.073C398.411 845.796 402 842.624 404.356 838.321C404.409 838.223 404.462 838.125 404.514 838.026H399.008ZM399.211 845.391C398.774 845.709 398.324 846.004 397.864 846.276C398.374 846.084 398.875 845.874 399.365 845.645C402.882 844.009 405.873 841.46 408.047 838.321C408.115 838.223 408.181 838.125 408.247 838.026H405.354C403.816 841.041 401.704 843.581 399.211 845.391ZM400.543 844.715C403.388 843.145 405.828 840.947 407.684 838.321H405.537C404.234 840.828 402.533 843.009 400.543 844.715ZM408.567 836.984C410.342 834.01 411.394 830.571 411.49 826.896H408.379C408.308 830.536 407.524 833.962 406.198 836.984H408.567ZM408.737 837.278C410.591 834.228 411.691 830.685 411.788 826.896C411.791 826.798 411.793 826.7 411.794 826.601H408.084C408.05 830.359 407.249 833.889 405.873 836.984C405.829 837.082 405.784 837.181 405.739 837.278H408.737Z" fill="#F0F4F7" stroke="#F0F4F7" stroke-width="0.4"></path><path d="M367.108 852.485L368.648 850.689L368.733 850.775L367.194 852.571C367.165 852.542 367.165 852.542 367.137 852.514L367.108 852.485ZM366.367 851.801C366.339 851.773 366.339 851.773 366.31 851.744C366.282 851.744 366.282 851.716 366.282 851.716L367.878 849.977L367.906 850.005C367.935 850.034 367.935 850.034 367.963 850.062L366.367 851.801ZM367.992 853.198L369.474 851.345C369.503 851.373 369.531 851.402 369.56 851.43L368.077 853.283C368.049 853.255 368.02 853.226 367.992 853.198ZM365.541 851.031L365.455 850.946L367.108 849.236L367.137 849.264C367.165 849.293 367.165 849.293 367.194 849.321L365.541 851.031ZM368.876 853.882L370.301 851.972C370.329 852.001 370.358 852.001 370.386 852.029L368.961 853.939C368.961 853.939 368.933 853.91 368.876 853.882ZM364.742 850.233C364.714 850.205 364.685 850.176 364.628 850.148L366.339 848.494L366.367 848.523C366.396 848.552 366.424 848.58 366.424 848.58L364.742 850.233ZM369.816 854.566L371.185 852.628C371.213 852.656 371.242 852.685 371.27 852.685L369.93 854.623C369.902 854.595 369.873 854.595 369.845 854.566H369.816ZM363.944 849.407L363.859 849.293L365.626 847.696C365.655 847.725 365.683 847.753 365.712 847.782L363.944 849.407ZM370.757 855.193L372.04 853.198L372.154 853.255L370.871 855.25H370.842C370.814 855.25 370.785 855.222 370.757 855.193ZM363.203 848.552L363.118 848.437L364.913 846.898C364.942 846.927 364.97 846.955 364.999 846.984L363.203 848.552ZM371.698 855.82L372.923 853.796L372.98 853.825C373.009 853.825 373.009 853.853 373.037 853.853L371.812 855.877C371.783 855.877 371.783 855.849 371.755 855.849C371.755 855.82 371.726 855.82 371.698 855.82ZM362.491 847.668C362.462 847.668 362.462 847.639 362.462 847.639C362.434 847.611 362.434 847.611 362.405 847.582L364.258 846.129C364.286 846.157 364.286 846.157 364.315 846.186L364.343 846.214L362.491 847.668ZM372.695 856.39L373.864 854.338C373.893 854.338 373.893 854.367 373.921 854.367C373.95 854.367 373.95 854.395 373.978 854.395L374.007 854.367L372.809 856.476L372.781 856.447C372.724 856.419 372.724 856.39 372.695 856.39ZM361.778 846.784C361.749 846.756 361.749 846.756 361.749 846.727C361.749 846.699 361.721 846.699 361.721 846.67L363.631 845.273L363.659 845.302C363.688 845.33 363.688 845.359 363.716 845.387L361.778 846.784ZM373.693 856.903L374.805 854.794C374.833 854.823 374.89 854.823 374.919 854.851L373.835 856.96C373.778 856.96 373.721 856.932 373.693 856.903ZM361.122 845.844C361.094 845.815 361.065 845.758 361.037 845.73L363.004 844.39C363.032 844.418 363.032 844.447 363.061 844.475H363.089H363.061L361.122 845.844ZM374.691 857.445L375.717 855.307C375.745 855.307 375.774 855.336 375.802 855.336L375.831 855.364L374.805 857.502L374.776 857.474C374.776 857.474 374.748 857.445 374.691 857.445ZM360.467 844.903C360.467 844.874 360.467 844.846 360.438 844.846L360.41 844.789L362.405 843.506C362.405 843.535 362.434 843.535 362.434 843.563L362.462 843.62L360.467 844.903ZM375.745 857.901L376.686 855.735L376.714 855.763C376.743 855.763 376.772 855.792 376.8 855.792L375.859 857.958H375.831C375.802 857.93 375.774 857.93 375.745 857.901ZM359.897 843.934C359.868 843.877 359.84 843.848 359.84 843.82L361.863 842.622C361.892 842.651 361.892 842.679 361.92 842.736L359.897 843.934ZM376.772 858.357L377.655 856.162C377.684 856.191 377.712 856.191 377.741 856.191H377.769L376.886 858.386C376.857 858.386 376.829 858.357 376.772 858.357ZM359.298 842.965C359.298 842.908 359.298 842.908 359.269 842.879L359.241 842.822L361.322 841.682L361.35 841.71C361.35 841.739 361.379 841.767 361.407 841.796L359.298 842.965ZM377.855 858.756L378.653 856.533C378.681 856.533 378.71 856.561 378.767 856.561L377.969 858.785C377.94 858.785 377.883 858.785 377.855 858.756ZM358.785 841.938C358.756 841.91 358.756 841.853 358.728 841.824L360.837 840.741L360.866 840.77C360.866 840.798 360.894 840.827 360.894 840.827L358.785 841.938ZM378.909 859.127L379.651 856.875C379.679 856.875 379.736 856.903 379.765 856.903L379.023 859.155C378.995 859.155 378.966 859.155 378.909 859.127ZM358.272 840.941C358.243 840.884 358.243 840.855 358.215 840.827L360.353 839.829C360.381 839.857 360.381 839.886 360.41 839.943L358.272 840.941ZM379.993 859.469L380.648 857.189L380.762 857.217L380.107 859.497C380.078 859.497 380.05 859.469 379.993 859.469ZM357.787 839.886L357.759 839.829C357.759 839.8 357.73 839.772 357.73 839.772L359.897 838.831C359.897 838.86 359.925 838.86 359.925 838.888C359.925 838.888 359.925 838.917 359.954 838.945H359.982L359.954 838.974L357.787 839.886ZM381.104 859.754L381.703 857.445L381.731 857.474C381.76 857.474 381.788 857.474 381.817 857.502L381.247 859.811L381.104 859.754ZM357.36 838.831L357.303 838.689L359.498 837.834C359.498 837.862 359.526 837.891 359.526 837.891L359.555 837.948L357.36 838.831ZM382.187 860.01L382.701 857.702L382.843 857.73L382.33 860.039C382.273 860.039 382.244 860.039 382.187 860.01ZM356.961 837.777L356.904 837.634L359.127 836.836V836.864C359.127 836.893 359.155 836.921 359.155 836.95L356.961 837.777ZM383.299 860.239L383.727 857.901C383.784 857.901 383.812 857.93 383.841 857.93L383.413 860.267C383.385 860.267 383.385 860.267 383.356 860.267C383.356 860.267 383.328 860.267 383.299 860.239ZM356.59 836.693C356.561 836.636 356.561 836.608 356.561 836.579L358.813 835.867C358.813 835.895 358.842 835.952 358.842 835.981L356.59 836.693ZM384.411 860.438L384.781 858.101C384.81 858.101 384.867 858.129 384.895 858.129L384.553 860.467H384.496C384.468 860.467 384.439 860.467 384.411 860.438ZM356.248 835.61C356.248 835.553 356.219 835.525 356.219 835.496L358.5 834.841C358.5 834.869 358.5 834.898 358.528 834.926V834.955L356.248 835.61ZM385.551 860.609L385.836 858.243H385.979L385.694 860.609H385.551ZM355.963 834.499V834.47C355.934 834.442 355.934 834.413 355.934 834.385L358.215 833.814C358.215 833.843 358.243 833.9 358.243 833.928L355.963 834.499ZM386.663 860.723L386.862 858.357H387.005L386.805 860.723C386.777 860.723 386.72 860.723 386.663 860.723ZM355.706 833.415L355.678 833.273L357.987 832.788C357.987 832.817 358.015 832.874 358.015 832.902L355.706 833.415ZM387.803 860.809L387.945 858.443C387.974 858.443 388.031 858.443 388.059 858.443L387.945 860.809C387.888 860.809 387.86 860.809 387.803 860.809ZM355.478 832.304V832.247C355.478 832.218 355.478 832.19 355.45 832.161L357.787 831.734C357.787 831.762 357.787 831.819 357.816 831.848L355.478 832.304ZM388.943 860.866L389 858.5C389.029 858.5 389.086 858.5 389.114 858.5L389.057 860.866C389.029 860.866 389 860.866 388.943 860.866ZM355.279 831.163C355.279 831.106 355.279 831.078 355.25 831.049L357.588 830.707C357.588 830.736 357.588 830.793 357.616 830.821L355.279 831.163ZM390.083 860.866L390.055 858.5C390.083 858.5 390.112 858.5 390.14 858.5H390.169L390.197 860.866H390.169C390.14 860.866 390.112 860.866 390.083 860.866ZM355.136 830.052C355.136 829.995 355.136 829.966 355.108 829.909L357.474 829.653V829.795L355.136 830.052ZM391.224 860.837L391.138 858.471C391.167 858.471 391.224 858.471 391.252 858.471L391.366 860.837H391.309C391.281 860.837 391.252 860.837 391.224 860.837ZM355.022 828.912C355.022 828.883 355.022 828.855 355.022 828.826C355.022 828.798 355.022 828.798 355.022 828.769L357.388 828.57C357.388 828.598 357.388 828.655 357.388 828.684L355.022 828.912ZM392.335 860.78L392.164 858.414C392.193 858.414 392.193 858.414 392.221 858.414C392.25 858.414 392.25 858.414 392.278 858.414L392.449 860.78C392.449 860.752 392.392 860.78 392.335 860.78ZM354.937 827.771V827.629L357.303 827.515C357.303 827.572 357.303 827.6 357.303 827.629L354.937 827.771ZM393.475 860.666L393.219 858.329H393.247C393.276 858.329 393.304 858.329 393.333 858.329L393.589 860.666H393.561C393.561 860.666 393.532 860.666 393.475 860.666ZM354.908 826.631C354.908 826.603 354.908 826.574 354.908 826.574C354.908 826.546 354.908 826.517 354.908 826.517L357.274 826.489C357.274 826.517 357.274 826.546 357.274 826.546V826.603L354.908 826.631ZM394.616 860.524L394.274 858.186L394.416 858.158L394.758 860.495H394.701C394.673 860.524 394.644 860.524 394.616 860.524ZM354.908 825.52C354.908 825.491 354.908 825.462 354.908 825.434V825.405L357.274 825.434C357.274 825.462 357.274 825.52 357.274 825.548L354.908 825.52ZM395.727 860.353L395.328 858.015C395.357 858.015 395.414 857.987 395.442 857.987L395.841 860.324C395.813 860.353 395.784 860.353 395.727 860.353ZM354.937 824.379C354.937 824.322 354.937 824.294 354.937 824.237L357.303 824.351C357.303 824.379 357.303 824.436 357.303 824.465L354.937 824.379ZM396.839 860.153L396.354 857.844H396.411C396.44 857.844 396.468 857.844 396.497 857.816L396.982 860.153H396.839ZM354.994 823.239C354.994 823.211 354.994 823.182 354.994 823.154V823.097L357.36 823.296C357.36 823.325 357.36 823.353 357.36 823.382V823.41L354.994 823.239ZM397.951 859.896L397.409 857.588H397.438C397.466 857.588 397.495 857.559 397.552 857.559L398.122 859.868C398.093 859.868 398.065 859.868 398.065 859.896H397.951ZM355.108 822.099V821.956L357.474 822.213C357.474 822.241 357.474 822.298 357.474 822.327L355.108 822.099ZM399.062 859.64L398.435 857.36C398.464 857.36 398.521 857.331 398.549 857.331L399.176 859.611C399.148 859.611 399.119 859.611 399.091 859.64H399.062ZM355.25 820.987C355.25 820.93 355.25 820.902 355.279 820.873L357.616 821.215C357.616 821.244 357.616 821.272 357.616 821.301V821.329H357.645H357.616L355.25 820.987ZM400.146 859.298L399.461 857.046C399.49 857.046 399.49 857.017 399.518 857.017H399.575L400.288 859.269C400.231 859.269 400.203 859.298 400.146 859.298ZM355.421 819.876V819.847C355.421 819.819 355.45 819.79 355.45 819.762L357.787 820.189C357.787 820.218 357.787 820.246 357.759 820.303L355.421 819.876ZM401.229 858.956L400.459 856.704L400.488 856.675C400.516 856.675 400.545 856.647 400.573 856.647L401.343 858.87C401.314 858.927 401.286 858.927 401.229 858.956ZM355.621 818.764C355.649 818.707 355.649 818.678 355.649 818.621L357.958 819.106C357.958 819.134 357.958 819.163 357.93 819.191V819.22L355.621 818.764ZM402.312 858.557L401.457 856.333C401.485 856.333 401.514 856.305 401.571 856.305H401.599V856.333L402.454 858.528H402.426C402.369 858.528 402.34 858.557 402.312 858.557ZM355.877 817.652L355.906 817.51L358.215 818.08C358.215 818.108 358.186 818.165 358.186 818.194L355.877 817.652ZM403.367 858.158L402.454 855.963C402.483 855.963 402.511 855.934 402.54 855.934H402.568L403.481 858.101C403.452 858.101 403.452 858.129 403.424 858.129C403.395 858.129 403.395 858.129 403.367 858.158ZM356.162 816.54C356.191 816.483 356.191 816.455 356.191 816.426L358.471 817.054V817.082C358.471 817.111 358.471 817.139 358.443 817.168L356.162 816.54ZM404.393 857.702L403.395 855.535L403.509 855.478L404.507 857.616C404.478 857.616 404.45 857.645 404.45 857.645L404.393 857.702ZM356.504 815.457C356.504 815.429 356.504 815.429 356.533 815.4C356.533 815.372 356.533 815.343 356.561 815.343L358.813 816.056C358.813 816.084 358.785 816.141 358.785 816.17L356.504 815.457ZM405.419 857.189L404.364 855.051C404.393 855.051 404.45 855.022 404.478 854.994L405.533 857.103L405.419 857.189ZM356.847 814.374C356.847 814.346 356.875 814.317 356.875 814.289V814.26L359.098 815.058C359.098 815.087 359.07 815.115 359.07 815.172V815.201L356.847 814.374ZM406.445 856.675L405.305 854.595L405.362 854.566C405.39 854.566 405.39 854.538 405.419 854.538H405.447L405.419 854.566L406.559 856.647L406.445 856.675ZM357.246 813.319C357.274 813.262 357.274 813.234 357.303 813.205L359.498 814.061C359.469 814.089 359.469 814.146 359.44 814.175L357.246 813.319ZM407.443 856.105L406.246 854.053C406.274 854.053 406.303 854.024 406.331 854.024L406.36 853.996L407.557 856.02L407.443 856.105ZM357.673 812.265C357.702 812.208 357.702 812.179 357.73 812.151L359.897 813.091C359.897 813.12 359.897 813.12 359.868 813.148C359.868 813.177 359.84 813.177 359.84 813.205L357.673 812.265ZM408.412 855.507L407.158 853.511C407.186 853.511 407.186 853.483 407.215 853.483L407.272 853.454L408.526 855.45L408.469 855.478C408.469 855.478 408.441 855.507 408.412 855.507ZM358.129 811.239L358.158 811.182C358.158 811.153 358.186 811.125 358.186 811.096L360.324 812.094C360.324 812.122 360.296 812.151 360.296 812.151L360.267 812.208L358.129 811.239ZM409.353 854.908L408.041 852.941C408.07 852.913 408.098 852.884 408.127 852.884L409.467 854.851C409.438 854.851 409.41 854.88 409.353 854.908ZM358.642 810.212C358.642 810.184 358.642 810.184 358.671 810.155C358.671 810.127 358.699 810.098 358.699 810.098L360.809 811.182C360.809 811.21 360.78 811.21 360.78 811.239C360.78 811.267 360.752 811.267 360.752 811.296L358.642 810.212ZM410.293 854.252L408.897 852.314C408.925 852.286 408.954 852.257 408.982 852.257L410.379 854.167L410.293 854.252ZM359.155 809.186C359.184 809.158 359.212 809.101 359.212 809.072L361.293 810.212C361.265 810.241 361.265 810.269 361.236 810.326L359.155 809.186ZM411.205 853.568L409.752 851.687C409.78 851.659 409.809 851.63 409.837 851.602L411.291 853.483C411.291 853.511 411.262 853.511 411.205 853.568ZM359.726 808.217C359.754 808.16 359.783 808.131 359.783 808.103L361.835 809.329L361.778 809.443L359.726 808.217ZM412.089 852.856L410.578 851.031L410.635 851.003C410.664 851.003 410.664 850.974 410.692 850.974L412.203 852.799C412.175 852.799 412.146 852.827 412.089 852.856ZM360.324 807.248C360.353 807.219 360.381 807.162 360.381 807.134L362.377 808.417V808.417C362.377 808.445 362.348 808.474 362.319 808.502L360.324 807.248ZM412.944 852.115L411.377 850.347C411.405 850.319 411.405 850.319 411.434 850.29L411.462 850.262L413.058 852.029H413.03C413.03 852.058 413.001 852.086 412.944 852.115ZM360.951 806.279C360.98 806.25 361.008 806.222 361.008 806.165L362.947 807.504C362.918 807.533 362.89 807.561 362.89 807.59L360.951 806.279ZM413.799 851.345L412.175 849.635C412.203 849.606 412.232 849.578 412.26 849.549L413.885 851.259L413.799 851.345ZM361.607 805.366C361.635 805.338 361.664 805.281 361.692 805.252L363.602 806.649C363.574 806.678 363.545 806.706 363.517 806.763L361.607 805.366ZM414.626 850.547L412.944 848.894C412.973 848.865 413.001 848.837 413.03 848.808L414.712 850.461L414.683 850.49C414.655 850.518 414.626 850.518 414.626 850.547ZM362.291 804.454C362.319 804.426 362.348 804.369 362.377 804.34L364.229 805.794C364.201 805.823 364.172 805.851 364.144 805.88L362.291 804.454ZM415.396 849.72L413.657 848.095C413.685 848.067 413.714 848.067 413.714 848.038L413.742 848.01L415.481 849.606C415.453 849.663 415.424 849.692 415.396 849.72ZM363.004 803.571C363.004 803.542 363.032 803.542 363.061 803.514L363.089 803.457L364.913 804.967C364.885 804.996 364.856 805.024 364.828 805.053L363.004 803.571ZM416.165 848.894L414.37 847.326C414.398 847.297 414.427 847.269 414.455 847.24C414.484 847.212 414.512 847.183 414.541 847.155L416.336 848.694C416.308 848.723 416.279 848.751 416.251 848.78L416.165 848.894ZM365.512 804.283L363.745 802.716C363.773 802.716 363.773 802.687 363.773 802.659C363.802 802.63 363.802 802.63 363.802 802.602L365.569 804.198L365.541 804.226C365.541 804.255 365.541 804.255 365.512 804.283ZM415.139 846.414C415.168 846.357 415.196 846.357 415.225 846.328L417.078 847.81L417.02 847.867C417.02 847.896 416.992 847.896 416.963 847.924L415.139 846.414ZM366.225 803.514L364.514 801.889C364.543 801.86 364.571 801.832 364.571 801.832L364.6 801.803L366.31 803.428L366.282 803.457C366.253 803.457 366.253 803.485 366.225 803.514ZM415.766 845.587L415.852 845.473L417.762 846.898C417.733 846.927 417.733 846.955 417.705 846.984L417.676 847.012L415.766 845.587ZM366.966 802.744L365.313 801.062C365.341 801.034 365.341 801.005 365.37 801.005L365.398 800.977L367.051 802.659L366.966 802.744ZM416.422 844.732C416.45 844.703 416.479 844.675 416.479 844.646L418.417 846.015C418.389 846.043 418.36 846.072 418.332 846.129L416.422 844.732ZM367.735 802.031L366.111 800.293V800.264C366.139 800.236 366.168 800.207 366.196 800.179L367.792 801.917C367.792 801.974 367.764 801.974 367.735 802.031ZM417.02 843.877L417.049 843.848C417.049 843.82 417.078 843.82 417.078 843.791L419.044 845.074C419.016 845.102 419.016 845.159 418.987 845.188L417.02 843.877ZM368.534 801.319L366.966 799.523C366.994 799.494 367.023 799.466 367.08 799.437L368.619 801.233C368.591 801.262 368.591 801.262 368.562 801.29L368.534 801.319ZM417.591 842.965C417.619 842.936 417.619 842.936 417.619 842.908L417.648 842.851L419.671 844.105C419.671 844.105 419.643 844.133 419.643 844.162C419.643 844.19 419.614 844.19 419.614 844.219L417.591 842.965ZM369.332 800.635L367.821 798.782L367.849 798.753C367.878 798.725 367.906 798.725 367.935 798.696L369.417 800.549C369.389 800.578 369.36 800.606 369.332 800.635ZM418.104 842.052C418.132 842.024 418.132 841.995 418.161 841.938L420.213 843.107C420.185 843.136 420.185 843.193 420.156 843.221L418.104 842.052ZM370.158 799.979L368.733 798.098C368.762 798.069 368.79 798.041 368.819 798.012L370.244 799.894C370.215 799.894 370.215 799.922 370.187 799.922C370.215 799.951 370.187 799.951 370.158 799.979ZM418.617 841.14L418.645 841.083C418.645 841.055 418.674 841.026 418.674 841.026L420.783 842.138C420.755 842.166 420.726 842.223 420.726 842.252L418.617 841.14ZM371.014 799.352L369.645 797.414C369.674 797.385 369.702 797.357 369.759 797.328L371.128 799.266L371.099 799.295C371.071 799.323 371.042 799.323 371.014 799.352ZM419.101 840.2C419.101 840.171 419.13 840.171 419.13 840.143C419.13 840.114 419.13 840.114 419.158 840.086L421.296 841.112C421.268 841.14 421.268 841.197 421.239 841.226L419.101 840.2ZM371.897 798.753L371.84 798.668L370.557 796.73L370.586 796.758C370.614 796.73 370.671 796.701 370.7 796.701L372.011 798.696C371.954 798.696 371.926 798.725 371.897 798.753ZM419.557 839.23C419.586 839.202 419.586 839.145 419.614 839.116L421.781 840.086C421.752 840.114 421.752 840.171 421.724 840.2L419.557 839.23ZM372.781 798.183L371.555 796.159L371.669 796.074L372.895 798.098L372.866 798.126C372.838 798.155 372.809 798.155 372.781 798.183ZM419.957 838.261C419.985 838.204 419.985 838.176 420.014 838.147L422.208 839.031L422.237 839.059L422.208 839.031C422.208 839.059 422.18 839.088 422.18 839.116V839.145L419.957 838.261ZM373.693 797.642L372.524 795.589L372.553 795.561C372.581 795.532 372.61 795.532 372.638 795.504L373.807 797.556C373.778 797.613 373.75 797.613 373.693 797.642ZM420.356 837.264C420.356 837.235 420.384 837.207 420.384 837.207V837.178L420.413 837.15L422.636 837.976C422.607 838.005 422.607 838.062 422.607 838.09L420.356 837.264ZM374.634 797.129L373.522 795.019C373.579 794.991 373.607 794.991 373.636 794.962L374.748 797.072C374.719 797.1 374.662 797.1 374.634 797.129ZM420.698 836.266L420.726 836.152L422.978 836.893V836.95C422.978 836.978 422.95 837.007 422.95 837.036L420.698 836.266ZM375.574 796.644L374.548 794.506C374.577 794.478 374.634 794.478 374.662 794.449L375.688 796.587L375.631 796.615C375.631 796.644 375.603 796.644 375.574 796.644ZM421.04 835.268C421.04 835.24 421.04 835.211 421.068 835.183V835.154L421.04 835.126L423.32 835.81C423.292 835.838 423.292 835.895 423.292 835.924L421.04 835.268ZM376.543 796.216L375.574 794.05C375.603 794.05 375.603 794.022 375.631 794.022C375.66 794.022 375.66 793.993 375.688 793.993L376.629 796.159C376.6 796.159 376.572 796.188 376.572 796.188L376.543 796.216ZM421.296 834.242L421.325 834.128L423.605 834.727L423.577 834.869L421.296 834.242ZM377.513 795.789L376.629 793.594C376.657 793.594 376.657 793.565 376.686 793.565L376.743 793.537L377.627 795.732C377.598 795.76 377.57 795.76 377.513 795.789ZM421.553 833.216C421.553 833.187 421.553 833.159 421.581 833.159C421.581 833.13 421.581 833.13 421.581 833.102L423.89 833.615C423.89 833.643 423.862 833.7 423.862 833.729L421.553 833.216ZM378.51 795.39L377.684 793.166L377.826 793.138L378.653 795.361H378.624C378.567 795.39 378.539 795.39 378.51 795.39ZM421.781 832.19V832.161C421.781 832.133 421.781 832.104 421.781 832.076L424.118 832.503V832.56C424.118 832.589 424.118 832.617 424.09 832.646L421.781 832.19ZM379.508 795.048L378.767 792.796C378.795 792.796 378.852 792.767 378.881 792.767L379.622 795.019C379.593 795.019 379.565 795.048 379.508 795.048ZM421.98 831.163L422.009 831.049L424.346 831.42C424.346 831.449 424.346 831.506 424.318 831.534L421.98 831.163ZM380.534 794.734L379.85 792.454C379.879 792.454 379.936 792.425 379.964 792.425L380.62 794.706C380.591 794.706 380.591 794.706 380.563 794.706C380.563 794.734 380.563 794.734 380.534 794.734ZM422.123 830.109C422.123 830.08 422.123 830.052 422.123 830.023V829.995L424.489 830.28C424.489 830.308 424.489 830.337 424.489 830.365V830.422L422.123 830.109ZM381.532 794.449L380.933 792.14L380.99 792.112C381.019 792.112 381.047 792.112 381.076 792.083L381.674 794.392C381.617 794.421 381.589 794.449 381.532 794.449ZM422.237 829.054C422.237 829.026 422.237 828.997 422.237 828.997C422.237 828.969 422.237 828.969 422.237 828.94L424.603 829.168V829.197C424.603 829.225 424.603 829.282 424.603 829.311L422.237 829.054ZM382.587 794.193L382.073 791.884C382.102 791.884 382.159 791.855 382.187 791.855L382.701 794.164L382.587 794.193ZM422.322 827.999C422.322 827.942 422.322 827.914 422.322 827.885L424.688 828.028V828.056C424.688 828.085 424.688 828.113 424.688 828.17L422.322 827.999ZM383.613 793.965L383.157 791.627C383.185 791.627 383.214 791.627 383.214 791.627C383.242 791.627 383.242 791.627 383.271 791.599L383.698 793.936C383.698 793.965 383.67 793.965 383.613 793.965ZM422.379 826.945C422.379 826.888 422.379 826.859 422.379 826.831L424.774 826.888V827.03L422.379 826.945ZM384.667 793.793L384.297 791.456L384.439 791.428L384.81 793.765C384.753 793.765 384.696 793.793 384.667 793.793ZM422.379 825.89V825.862C422.379 825.833 422.379 825.805 422.379 825.776H424.745C424.745 825.805 424.745 825.862 424.745 825.89H422.379ZM385.722 793.651L385.409 791.285L385.551 791.257L385.836 793.594L385.722 793.651ZM422.351 824.807V824.778C422.351 824.75 422.351 824.721 422.351 824.693L424.717 824.607C424.717 824.636 424.717 824.693 424.717 824.721L422.351 824.807ZM386.748 793.537L386.52 791.171H386.549C386.577 791.171 386.634 791.171 386.663 791.143L386.862 793.508C386.834 793.508 386.805 793.508 386.805 793.508C386.805 793.508 386.777 793.537 386.748 793.537ZM422.322 823.752V823.638V823.61L424.688 823.439C424.688 823.467 424.688 823.524 424.688 823.553V823.581L422.322 823.752ZM387.831 793.451L387.689 791.086C387.717 791.086 387.774 791.086 387.803 791.086L387.945 793.451C387.917 793.451 387.86 793.451 387.831 793.451ZM422.237 822.698C422.237 822.669 422.237 822.641 422.237 822.612V822.583L424.603 822.327C424.603 822.355 424.603 822.412 424.603 822.441L422.237 822.698ZM388.886 793.394L388.829 791.029H388.858C388.886 791.029 388.943 791.029 388.972 791.029L389.029 793.394H388.972C388.915 793.394 388.886 793.394 388.886 793.394ZM422.094 821.643L422.066 821.529L424.403 821.215C424.403 821.272 424.403 821.301 424.432 821.329L422.094 821.643ZM389.941 793.366V791C389.969 791 390.026 791 390.055 791V793.366C390.026 793.366 389.998 793.366 389.998 793.366H389.941ZM421.952 820.617V820.588C421.952 820.56 421.952 820.531 421.952 820.503L424.289 820.104V820.132C424.289 820.161 424.289 820.189 424.318 820.246L421.952 820.617ZM390.995 793.394L391.081 791.029C391.11 791.029 391.138 791.029 391.167 791.029H391.224L391.138 793.394H390.995ZM421.752 819.562L421.724 819.448H421.752L424.061 818.963C424.061 818.992 424.09 819.049 424.09 819.077L421.752 819.562ZM392.05 793.451L392.221 791.086C392.25 791.086 392.307 791.086 392.335 791.086L392.164 793.451C392.136 793.451 392.107 793.451 392.05 793.451ZM421.524 818.536V818.507C421.524 818.479 421.496 818.45 421.496 818.422L423.805 817.88V817.909C423.805 817.937 423.805 817.966 423.833 817.994L421.524 818.536ZM393.105 793.537L393.333 791.171C393.361 791.171 393.418 791.171 393.447 791.171L393.19 793.537C393.162 793.537 393.133 793.537 393.105 793.537V793.537ZM421.268 817.51C421.268 817.453 421.239 817.424 421.239 817.396L423.52 816.768V816.825C423.52 816.854 423.548 816.883 423.548 816.911L421.268 817.51ZM394.16 793.679L394.473 791.314C394.502 791.314 394.559 791.314 394.587 791.342L394.274 793.679H394.16ZM420.983 816.483C420.983 816.455 420.954 816.426 420.954 816.426C420.954 816.426 420.954 816.398 420.954 816.369H420.926L420.954 816.341L423.206 815.657C423.235 815.685 423.235 815.742 423.235 815.771L420.983 816.483ZM395.186 793.822L395.585 791.485C395.613 791.485 395.613 791.485 395.642 791.485C395.67 791.485 395.67 791.485 395.699 791.485L395.3 793.822C395.271 793.822 395.271 793.822 395.243 793.822C395.243 793.822 395.214 793.822 395.186 793.822ZM420.669 815.457L420.612 815.343L422.864 814.574C422.864 814.602 422.893 814.631 422.893 814.659V814.716L420.669 815.457ZM396.24 794.022L396.696 791.684L396.839 791.713L396.354 794.022H396.326C396.297 794.022 396.269 794.022 396.24 794.022ZM420.299 814.46C420.299 814.431 420.27 814.403 420.27 814.374L420.242 814.317L422.436 813.49L422.465 813.519C422.465 813.547 422.493 813.576 422.493 813.604L420.299 814.46ZM397.267 794.221L397.808 791.912C397.837 791.912 397.837 791.912 397.865 791.912C397.894 791.912 397.894 791.912 397.922 791.941L397.381 794.25C397.352 794.25 397.324 794.25 397.267 794.221ZM419.899 813.49C419.871 813.433 419.871 813.405 419.842 813.376L422.037 812.464L422.094 812.607L419.899 813.49ZM398.293 794.506L398.92 792.226C398.977 792.226 399.005 792.254 399.034 792.254L398.407 794.535H398.35C398.35 794.506 398.321 794.506 398.293 794.506ZM419.5 812.493C419.472 812.464 419.472 812.407 419.443 812.379L421.61 811.41C421.638 811.438 421.638 811.495 421.667 811.524L419.5 812.493ZM399.319 794.791L400.003 792.539H400.032C400.06 792.539 400.089 792.568 400.117 792.568L399.404 794.82L399.319 794.791ZM419.044 811.552L418.987 811.438H418.959L418.987 811.41L421.097 810.355C421.125 810.412 421.125 810.44 421.154 810.469L419.044 811.552ZM400.317 795.105L401.086 792.853C401.115 792.881 401.172 792.881 401.2 792.881L400.431 795.133C400.402 795.133 400.374 795.133 400.317 795.105ZM418.56 810.611C418.531 810.583 418.531 810.526 418.503 810.497L420.584 809.357L420.612 809.414C420.612 809.443 420.641 809.471 420.641 809.471L418.56 810.611ZM401.314 795.504L402.169 793.252L402.226 793.28C402.255 793.28 402.283 793.309 402.283 793.309L401.428 795.532L401.314 795.504ZM418.047 809.671C418.018 809.614 417.99 809.585 417.99 809.557L420.042 808.36L420.071 808.417C420.071 808.445 420.099 808.445 420.099 808.474L418.047 809.671ZM402.283 795.846L403.196 793.651C403.224 793.651 403.281 793.679 403.31 793.708L402.397 795.903C402.369 795.874 402.34 795.874 402.283 795.846ZM417.505 808.759C417.477 808.73 417.448 808.702 417.448 808.673L419.472 807.419C419.5 807.447 419.529 807.504 419.529 807.533L417.505 808.759ZM403.281 796.273L404.25 794.107H404.279C404.307 794.136 404.336 794.164 404.364 794.164L403.367 796.33C403.338 796.302 403.31 796.302 403.281 796.273ZM416.906 807.875C416.878 807.846 416.878 807.818 416.849 807.789L416.821 807.761L418.788 806.421C418.816 806.45 418.845 806.478 418.845 806.535L416.906 807.875ZM404.222 796.73L405.276 794.62L405.333 794.649C405.362 794.649 405.362 794.677 405.39 794.677L404.336 796.787C404.307 796.758 404.279 796.758 404.222 796.73ZM416.308 806.991C416.279 806.963 416.251 806.934 416.251 806.906L418.161 805.538C418.189 805.566 418.218 805.595 418.246 805.652L416.308 806.991ZM405.162 797.214L406.274 795.133C406.303 795.133 406.303 795.162 406.331 795.162C406.331 795.162 406.36 795.19 406.388 795.19L405.276 797.271C405.248 797.243 405.219 797.243 405.162 797.214ZM415.681 806.136C415.652 806.108 415.624 806.079 415.624 806.051L415.595 806.022L417.477 804.568C417.505 804.597 417.534 804.625 417.562 804.682L415.681 806.136ZM406.103 797.727L407.3 795.675C407.329 795.703 407.357 795.732 407.414 795.732L406.217 797.784C406.16 797.784 406.132 797.756 406.103 797.727ZM415.025 805.309C414.997 805.252 414.968 805.224 414.94 805.224L416.764 803.713C416.792 803.742 416.821 803.77 416.849 803.799L415.025 805.309ZM407.015 798.269L408.269 796.245C408.298 796.273 408.326 796.273 408.355 796.302L408.384 796.33L407.129 798.326L407.072 798.297C407.044 798.297 407.015 798.297 407.015 798.269ZM414.341 804.511C414.313 804.483 414.313 804.483 414.313 804.454C414.284 804.426 414.284 804.426 414.284 804.397L416.051 802.83C416.08 802.858 416.108 802.887 416.137 802.915L414.341 804.511ZM407.899 798.839L409.21 796.872C409.239 796.901 409.267 796.929 409.324 796.958L408.013 798.924C407.984 798.924 407.984 798.896 407.956 798.896C407.927 798.867 407.899 798.867 407.899 798.839ZM413.628 803.742C413.6 803.713 413.571 803.685 413.543 803.656L415.253 802.031L415.367 802.145L413.628 803.742ZM408.754 799.437L410.122 797.528L410.179 797.556C410.208 797.556 410.208 797.585 410.236 797.585L408.84 799.494C408.84 799.494 408.811 799.494 408.754 799.437ZM412.887 802.972C412.859 802.944 412.83 802.915 412.802 802.887L414.484 801.205C414.512 801.233 414.541 801.262 414.569 801.29L412.887 802.972ZM409.609 800.093L411.063 798.212C411.091 798.24 411.12 798.269 411.177 798.297L409.723 800.179C409.695 800.122 409.638 800.122 409.609 800.093ZM412.146 802.231L412.032 802.145L413.657 800.407C413.685 800.407 413.685 800.435 413.714 800.464C413.742 800.464 413.742 800.492 413.771 800.492L412.146 802.231ZM410.436 800.749L411.947 798.924L412.061 799.01L410.55 800.834L410.436 800.749ZM411.348 801.518L411.262 801.433L412.83 799.637L412.944 799.723L411.348 801.518Z" fill="#F0F4F7" stroke="#F0F4F7" stroke-width="0.3" stroke-linejoin="round"></path><circle cx="1606.16" cy="800.714" r="20" transform="rotate(23.758 1606.16 800.714)" fill="#F0F4F7"></circle><path d="M1526.66 716.499L1526.66 720.582L1530.74 720.588L1530.75 716.506L1526.66 716.499ZM1592.75 782.79L1591.26 777.211L1587.17 781.287L1592.75 782.79ZM1528.35 718.897L1589.21 779.956L1589.92 779.25L1529.06 718.191L1528.35 718.897Z" fill="#F0F4F7"></path><circle cx="1516.36" cy="704.373" r="13" transform="rotate(23.758 1516.36 704.373)" fill="#F0F4F7"></circle><path d="M1489.96 799.88L1492.97 797.118L1495.73 800.124L1492.72 802.886L1489.96 799.88ZM1583.48 803.841L1578.36 806.514L1578.6 800.745L1583.48 803.841ZM1492.86 799.502L1579 803.151L1578.96 804.15L1492.82 800.501L1492.86 799.502Z" fill="#F0F4F7"></path><circle cx="13" cy="13" r="13" transform="matrix(0.915255 0.402875 0.402875 -0.915255 1456.93 807.136)" fill="#F0F4F7"></circle><path d="M1607.87 687.148L1605.01 690.058L1607.92 692.921L1610.78 690.011L1607.87 687.148ZM1608.62 777.759L1611.46 772.735L1605.69 772.782L1608.62 777.759ZM1607.4 690.039L1608.08 773.263L1609.08 773.255L1608.4 690.031L1607.4 690.039Z" fill="#F0F4F7"></path><circle cx="1609.66" cy="671.143" r="13" transform="rotate(23.758 1609.66 671.143)" fill="#F0F4F7"></circle><path d="M1523.63 878.528L1523.85 874.452L1527.92 874.664L1527.71 878.741L1523.63 878.528ZM1590.96 817.879L1589.17 823.371L1585.31 819.081L1590.96 817.879ZM1525.44 876.225L1587.28 820.52L1587.95 821.263L1526.11 876.968L1525.44 876.225Z" fill="#F0F4F7"></path><circle cx="13" cy="13" r="13" transform="matrix(0.915255 0.402875 0.402875 -0.915255 1495.9 897.314)" fill="#F0F4F7"></circle></g><defs><clipPath id="clip0_4163_2"><rect width="1680" height="937" fill="white"></rect></clipPath></defs></svg> 