<?xml version="1.0" encoding="UTF-8"?> <svg xmlns="http://www.w3.org/2000/svg" width="20" height="20" viewBox="0 0 20 20" fill="none"><g clip-path="url(#clip0_3944_4)"><path d="M9.96565 0.508825C9.98693 0.497058 10.0131 0.497058 10.0344 0.508825L10.7734 0.917483C10.7902 0.926752 10.8102 0.928825 10.8286 0.9232L11.6367 0.67637C11.66 0.669245 11.6855 0.674558 11.7037 0.690339L12.3417 1.24333C12.356 1.25573 12.375 1.26182 12.3942 1.26013L13.2365 1.18579C13.2607 1.18365 13.2843 1.19395 13.2986 1.21292L13.8076 1.88654C13.8189 1.90141 13.836 1.91114 13.8549 1.91342L14.695 2.01499C14.7189 2.01787 14.7396 2.03257 14.7495 2.05376L15.107 2.81893C15.1148 2.83553 15.1292 2.84835 15.147 2.85442L15.9485 3.12783C15.971 3.1355 15.9878 3.15379 15.993 3.17625L16.183 3.99966C16.1871 4.01724 16.1983 4.03249 16.2142 4.04195L16.942 4.47571C16.9621 4.48768 16.9744 4.50869 16.9748 4.53147L16.9886 5.37701C16.9889 5.39484 16.9966 5.41181 17.0099 5.42415L17.6319 5.99966C17.6488 6.01529 17.6564 6.03811 17.652 6.06031L17.4886 6.89068C17.4852 6.90808 17.4891 6.92609 17.4994 6.94073L17.988 7.63292C18.0011 7.65151 18.0037 7.67523 17.9948 7.69602L17.6614 8.47449C17.6544 8.49083 17.6544 8.50917 17.6614 8.52551L17.9948 9.30398C18.0037 9.32477 18.0011 9.34849 17.988 9.36708L17.4994 10.0593C17.4891 10.0739 17.4852 10.0919 17.4886 10.1093L17.652 10.9397C17.6564 10.9619 17.6488 10.9847 17.6319 11.0003L17.0099 11.5758C16.9966 11.5882 16.9889 11.6052 16.9886 11.623L16.9748 12.4685C16.9744 12.4913 16.9621 12.5123 16.942 12.5243L16.2142 12.9581C16.1983 12.9675 16.1871 12.9828 16.183 13.0003L15.993 13.8237C15.9878 13.8462 15.971 13.8645 15.9485 13.8722L15.147 14.1456C15.1292 14.1516 15.1148 14.1645 15.107 14.1811L14.7495 14.9462C14.7396 14.9674 14.7189 14.9821 14.695 14.985L13.8549 15.0866C13.836 15.0889 13.8189 15.0986 13.8076 15.1135L13.2986 15.7871C13.2843 15.806 13.2607 15.8163 13.2365 15.8142L12.8153 15.777L12.3942 15.7399C12.375 15.7382 12.356 15.7443 12.3417 15.7567L11.7037 16.3097C11.6855 16.3254 11.66 16.3308 11.6367 16.3236L10.8286 16.0768C10.8102 16.0712 10.7902 16.0732 10.7734 16.0825L10.4039 16.2868L10.0344 16.4912C10.0131 16.5029 9.98693 16.5029 9.96565 16.4912L9.22661 16.0825C9.20984 16.0732 9.18983 16.0712 9.17141 16.0768L8.3633 16.3236C8.33998 16.3308 8.31449 16.3254 8.29628 16.3097L7.65831 15.7567C7.644 15.7443 7.62499 15.7382 7.60584 15.7399L6.76352 15.8142C6.73931 15.8163 6.71572 15.806 6.70139 15.7871L6.19237 15.1135C6.18113 15.0986 6.16403 15.0889 6.14512 15.0866L5.30496 14.985C5.28106 14.9821 5.26044 14.9674 5.25054 14.9462L4.89298 14.1811C4.88522 14.1645 4.87077 14.1516 4.85299 14.1456L4.05147 13.8722C4.029 13.8645 4.01221 13.8462 4.00702 13.8237L3.81698 13.0003C3.81292 12.9828 3.80168 12.9675 3.78581 12.9581L3.058 12.5243C3.03793 12.5123 3.02556 12.4913 3.02518 12.4685L3.01139 11.623C3.0111 11.6052 3.00344 11.5882 2.9901 11.5758L2.3681 11.0003C2.35121 10.9847 2.34365 10.9619 2.34801 10.9397L2.51136 10.1093C2.51478 10.0919 2.5109 10.0739 2.50056 10.0593L2.01201 9.36708C1.99888 9.34849 1.99634 9.32477 2.00525 9.30398L2.3386 8.52551C2.34559 8.50917 2.34559 8.49083 2.3386 8.47449L2.00525 7.69602C1.99634 7.67523 1.99888 7.65151 2.01201 7.63292L2.50056 6.94073C2.5109 6.92609 2.51478 6.90808 2.51136 6.89068L2.34801 6.06031C2.34365 6.03811 2.35121 6.01529 2.3681 5.99966L2.9901 5.42415C3.00344 5.41181 3.0111 5.39484 3.01139 5.37701L3.02518 4.53147C3.02556 4.50869 3.03793 4.48768 3.058 4.47571L3.78581 4.04195C3.80168 4.03249 3.81292 4.01724 3.81698 3.99966L4.00702 3.17625C4.01221 3.15379 4.029 3.1355 4.05147 3.12783L4.85299 2.85442C4.87077 2.84835 4.88522 2.83553 4.89298 2.81893L5.25054 2.05376C5.26044 2.03257 5.28106 2.01787 5.30496 2.01499L6.14512 1.91342C6.16403 1.91114 6.18113 1.90141 6.19237 1.88654L6.70139 1.21292C6.71572 1.19395 6.73931 1.18365 6.76352 1.18579L7.60584 1.26013C7.62499 1.26182 7.644 1.25573 7.65831 1.24333L8.29628 0.690339C8.31449 0.674558 8.33997 0.669245 8.3633 0.67637L9.17141 0.9232C9.18983 0.928825 9.20984 0.926752 9.22661 0.917483L9.96565 0.508825Z" stroke="#D0C018"></path><path d="M15.2233 8.49999C15.2233 11.3719 12.8951 13.7 10.0233 13.7C7.15138 13.7 4.82326 11.3719 4.82326 8.49999C4.82326 5.62811 7.15138 3.29999 10.0233 3.29999C12.8951 3.29999 15.2233 5.62811 15.2233 8.49999Z" stroke="#D0C018"></path><path d="M16.689 12.5L19.5008 17.2798C19.5094 17.2982 19.494 17.3187 19.474 17.3156L16.588 16.8745C16.4868 16.8591 16.3862 16.906 16.3329 16.9935L14.8158 19.4878C14.8073 19.5017 14.7891 19.5035 14.7778 19.4942C14.7721 19.4894 14.7688 19.4824 14.7642 19.4765L11.8281 15.6887" stroke="#D0C018"></path><path d="M3.31431 12.5L0.502424 17.2798C0.49386 17.2982 0.509218 17.3187 0.529249 17.3156L3.41524 16.8745C3.51649 16.8591 3.61711 16.906 3.67033 16.9935L5.1875 19.4878C5.19597 19.5017 5.21417 19.5035 5.22542 19.4942C5.23114 19.4894 5.23447 19.4824 5.23903 19.4765L8.17514 15.6887" stroke="#D0C018"></path></g><defs><clipPath id="clip0_3944_4"><rect width="20" height="20" fill="white"></rect></clipPath></defs></svg> 