<?xml version="1.0" encoding="UTF-8"?> <svg xmlns="http://www.w3.org/2000/svg" width="20" height="20" viewBox="0 0 20 20" fill="none"><g clip-path="url(#clip0_3946_122)"><path d="M5 18.6201H14.5C14.7761 18.6201 15 18.3963 15 18.1201V16.6201" stroke="#D0C018" stroke-linecap="round" stroke-linejoin="round"></path><path d="M12.5 14H8.5C8.22386 14 8 13.7761 8 13.5V5.5" stroke="#D0C018" stroke-linecap="round" stroke-linejoin="round"></path><path d="M0.5 11.5L1.27391 16.318H2.70006L3.5 11.5H0.5ZM2.97071 18.6207C2.97071 18.3708 2.88049 18.1626 2.70006 17.9961C2.51962 17.826 2.2854 17.741 1.99739 17.741C1.70939 17.741 1.4769 17.826 1.29994 17.9961C1.1195 18.1626 1.02928 18.3708 1.02928 18.6207C1.02928 18.8705 1.1195 19.0804 1.29994 19.2505C1.4769 19.417 1.70939 19.5003 1.99739 19.5003C2.2854 19.5003 2.51962 19.417 2.70006 19.2505C2.88049 19.0804 2.97071 18.8705 2.97071 18.6207Z" stroke="#D0C018" stroke-linejoin="round"></path><path d="M15 16.5C16.3807 16.5 17.5 15.3807 17.5 14C17.5 12.6193 16.3807 11.5 15 11.5C13.6193 11.5 12.5 12.6193 12.5 14C12.5 15.3807 13.6193 16.5 15 16.5Z" stroke="#D0C018"></path><path d="M15 11.5V5.5M15 5.5V0.669951C15 0.593703 15.0819 0.545506 15.1486 0.582536L19.3427 2.91258C19.4112 2.95068 19.4112 3.04932 19.3427 3.08742L15 5.5Z" stroke="#D0C018"></path><path d="M9.5 7.07895H10.0263C10.2879 7.07895 10.5 6.86687 10.5 6.60526V2.39474C10.5 1.3483 9.6517 0.5 8.60526 0.5H0.973684C0.712076 0.5 0.5 0.712076 0.5 0.973684V6.60526C0.5 6.86687 0.712076 7.07895 0.973684 7.07895H2.10198C2.13125 7.07895 2.15351 7.10523 2.1487 7.1341L1.96693 8.22474C1.94784 8.3393 2.06677 8.42714 2.17065 8.3752L4.66314 7.12896C4.72892 7.09607 4.80144 7.07895 4.87498 7.07895H6.5" stroke="#D0C018"></path><path d="M3 3.5H7.5C7.77614 3.5 8 3.72386 8 4V6.5" stroke="#D0C018" stroke-linecap="round"></path></g><defs><clipPath id="clip0_3946_122"><rect width="20" height="20" fill="white"></rect></clipPath></defs></svg> 