<?xml version="1.0" encoding="UTF-8"?> <svg xmlns="http://www.w3.org/2000/svg" width="20" height="20" viewBox="0 0 20 20" fill="none"><g clip-path="url(#clip0_3944_32)"><path d="M10 2.28823V16.5M0.5 1.05885C1.35447 1.54712 2.32157 1.80395 3.30571 1.80395L8.5098 1.99019C8.5098 1.7945 8.54835 1.60072 8.62324 1.41992C8.69813 1.23912 8.8079 1.07485 8.94627 0.936468C9.08465 0.79809 9.24893 0.688324 9.42973 0.613434C9.61053 0.538545 9.8043 0.5 10 0.5C10.1957 0.5 10.3895 0.538545 10.5703 0.613434C10.7511 0.688324 10.9154 0.79809 11.0537 0.936468C11.1921 1.07484 11.3019 1.23912 11.3768 1.41992C11.4517 1.60072 11.4902 1.7945 11.4902 1.99019L16.6943 1.80395C17.6784 1.80395 18.6455 1.54712 19.5 1.05885" stroke="#D0C018" stroke-linecap="round" stroke-linejoin="round"></path><path d="M5.52926 4.40601H6.27436L7.76455 13.7197H4.03906L5.52926 4.40601Z" stroke="#D0C018" stroke-linecap="round" stroke-linejoin="round"></path><path d="M13.7255 4.40601H14.4706L15.9608 13.7197H12.2354L13.7255 4.40601Z" stroke="#D0C018" stroke-linecap="round" stroke-linejoin="round"></path><path d="M1.5 16.5H11H18.5V18.5525C18.5 19.0772 18.0747 19.5025 17.55 19.5025H2.45C1.92533 19.5025 1.5 19.0772 1.5 18.5525V16.5Z" stroke="#D0C018" stroke-linecap="round" stroke-linejoin="round"></path></g><defs><clipPath id="clip0_3944_32"><rect width="20" height="20" fill="white"></rect></clipPath></defs></svg> 