<?xml version="1.0" encoding="UTF-8"?> <svg xmlns="http://www.w3.org/2000/svg" width="20" height="20" viewBox="0 0 20 20" fill="none"><g clip-path="url(#clip0_3945_93)"><rect x="5" y="0.5" width="8" height="8" rx="4" stroke="#D0C018"></rect><path d="M17.3319 17.1641C17.4421 17.6689 17.5 18.1917 17.5 18.7273C17.5 19.154 17.1324 19.5 16.679 19.5H1.32102C0.867584 19.5 0.5 19.154 0.5 18.7273C0.5 14.4596 4.17584 11 8.71023 11H9.28977C10.2395 11 11.1515 11.1518 12 11.4309" stroke="#D0C018"></path><path d="M14.7503 13.1497L15.7004 14.0998L17.1256 12.1995M13.785 16.6372C14.3375 17.0862 15.5246 17.5894 15.6828 17.6554C15.6944 17.6603 15.7064 17.6603 15.718 17.6554C15.8762 17.5894 17.0633 17.0862 17.6157 16.6372C18.8261 15.6436 19.4484 14.4874 19.4652 13.2003L19.5004 10.4258C19.5007 10.4035 19.4854 10.384 19.4637 10.3788C18.0054 10.0327 16.6885 9.42037 15.7301 8.66028C15.7126 8.64644 15.6881 8.64644 15.6707 8.66028C14.7123 9.42037 13.3953 10.0327 11.9371 10.3788C11.9154 10.384 11.9001 10.4035 11.9004 10.4258L11.9356 13.2003C11.9524 14.4874 12.5747 15.6436 13.785 16.6372Z" stroke="#D0C018" stroke-linecap="round" stroke-linejoin="round"></path></g><defs><clipPath id="clip0_3945_93"><rect width="20" height="20" fill="white"></rect></clipPath></defs></svg> 