<?xml version="1.0" encoding="UTF-8"?> <svg xmlns="http://www.w3.org/2000/svg" width="20" height="20" viewBox="0 0 20 20" fill="none"><path d="M6.5 0.49992L18.5 0.49992C19.0523 0.49992 19.5 0.947638 19.5 1.49992L19.5 18.5C19.5 19.0523 19.0523 19.5 18.5 19.5L1.5 19.5C0.947715 19.5 0.5 19.0523 0.5 18.5L0.5 6.49992C0.5 3.18621 3.18629 0.49992 6.5 0.49992Z" stroke="#D0C018" stroke-linecap="round" stroke-linejoin="round"></path><path d="M11 5H16" stroke="#D0C018" stroke-linecap="round" stroke-linejoin="round"></path><path d="M11 7H16" stroke="#D0C018" stroke-linecap="round" stroke-linejoin="round"></path><path d="M4 16V13.5" stroke="#D0C018" stroke-linecap="round" stroke-linejoin="round"></path><path d="M6 16V12" stroke="#D0C018" stroke-linecap="round" stroke-linejoin="round"></path><path d="M8 16V13" stroke="#D0C018" stroke-linecap="round" stroke-linejoin="round"></path><circle cx="6" cy="6" r="2" stroke="#D0C018" stroke-linecap="round" stroke-linejoin="round"></circle><path d="M13.5 16C14.8807 16 16 14.8807 16 13.5C16 12.1193 14.8807 11 13.5 11V13.5H11C11 14.8807 12.1193 16 13.5 16Z" stroke="#D0C018" stroke-linecap="round" stroke-linejoin="round"></path></svg> 