<?xml version="1.0" encoding="UTF-8"?> <svg xmlns="http://www.w3.org/2000/svg" width="100" height="46" viewBox="0 0 100 46" fill="none"><g clip-path="url(#clip0_4084_108)"><path d="M11.2246 20.8125C11.2246 20.2602 11.6723 19.8125 12.2246 19.8125H16.0293C17.2598 19.8125 18.2656 19.5977 19.0469 19.168C19.8477 18.7188 20.4434 18.0938 20.834 17.293C21.2246 16.4727 21.4199 15.5059 21.4199 14.3926C21.4199 13.5332 21.2344 12.7422 20.8633 12.0195C20.5117 11.2969 19.9648 10.7207 19.2227 10.291C18.4805 9.8418 17.5332 9.61719 16.3809 9.61719C15.5996 9.61719 14.8379 9.7832 14.0957 10.1152C13.3535 10.4277 12.7383 10.877 12.25 11.4629C11.9778 11.8031 11.7846 12.1862 11.6705 12.6121C11.5275 13.1455 11.0992 13.6016 10.5469 13.6016H2.64453C2.09225 13.6016 1.63961 13.1529 1.68379 12.6024C1.84407 10.6053 2.49504 8.86809 3.63672 7.39062C4.98438 5.65234 6.75195 4.32422 8.93945 3.40625C11.1465 2.46875 13.5195 2 16.0586 2C19.0859 2 21.7422 2.46875 24.0273 3.40625C26.3125 4.32422 28.0898 5.69141 29.3594 7.50781C30.6484 9.30469 31.293 11.5312 31.293 14.1875C31.293 15.6523 30.9512 17.0293 30.2676 18.3184C29.584 19.6074 28.627 20.7402 27.3965 21.7168C26.166 22.6934 24.7207 23.4648 23.0605 24.0312C21.4199 24.5781 19.623 24.8516 17.6699 24.8516H12.2246C11.6723 24.8516 11.2246 24.4038 11.2246 23.8516V20.8125ZM12.2246 27.166C11.6723 27.166 11.2246 26.7183 11.2246 26.166V23.2441C11.2246 22.6919 11.6723 22.2441 12.2246 22.2441H17.6699C19.7988 22.2441 21.7422 22.4883 23.5 22.9766C25.2578 23.4453 26.7715 24.1484 28.041 25.0859C29.3105 26.0234 30.2871 27.1855 30.9707 28.5723C31.6543 29.9395 31.9961 31.5117 31.9961 33.2891C31.9961 35.2812 31.5957 37.0586 30.7949 38.6211C29.9941 40.1836 28.8711 41.502 27.4258 42.5762C25.9805 43.6504 24.291 44.4707 22.3574 45.0371C20.4238 45.584 18.3242 45.8574 16.0586 45.8574C14.2812 45.8574 12.5039 45.623 10.7266 45.1543C8.94922 44.666 7.32812 43.9238 5.86328 42.9277C4.39844 41.9121 3.2168 40.623 2.31836 39.0605C1.57624 37.7247 1.14743 36.1731 1.03193 34.4056C0.99592 33.8545 1.44772 33.4062 2 33.4062H9.90234C10.4546 33.4062 10.889 33.8594 11.0085 34.3986C11.1237 34.9181 11.3324 35.4076 11.6348 35.8672C12.1426 36.5898 12.8164 37.166 13.6562 37.5957C14.4961 38.0254 15.4043 38.2402 16.3809 38.2402C17.5918 38.2402 18.6172 38.0156 19.457 37.5664C20.3164 37.0977 20.9707 36.4727 21.4199 35.6914C21.8691 34.9102 22.0938 34.041 22.0938 33.084C22.0938 31.6387 21.8496 30.4863 21.3613 29.627C20.8926 28.7676 20.1992 28.1426 19.2812 27.752C18.3828 27.3613 17.2988 27.166 16.0293 27.166H12.2246Z" fill="#F0F4F7"></path><path d="M86.9061 25.1871C80.227 25.1871 74.8125 19.7727 74.8125 13.0936C74.8125 6.41447 80.227 1 86.9061 1C93.5852 1 98.9996 6.41447 98.9996 13.0936C98.9996 19.7727 93.5852 25.1871 86.9061 25.1871Z" stroke="#50505A"></path><path d="M89.2224 5.37427L88.2057 14.6405H85.654L84.5908 5.37427H89.2224ZM85.1698 19.2643C85.1698 18.8173 85.3312 18.4448 85.654 18.1468C85.9769 17.8426 86.396 17.6905 86.9113 17.6905C87.4266 17.6905 87.8425 17.8426 88.1592 18.1468C88.482 18.4448 88.6435 18.8173 88.6435 19.2643C88.6435 19.7114 88.482 20.087 88.1592 20.3912C87.8425 20.6892 87.4266 20.8382 86.9113 20.8382C86.396 20.8382 85.9769 20.6892 85.654 20.3912C85.3312 20.087 85.1698 19.7114 85.1698 19.2643Z" stroke="#D0C018" stroke-width="2" stroke-linejoin="round"></path><path d="M64.1754 41.9123C64.1754 40.207 62.793 38.8246 61.0877 38.8246C59.3824 38.8246 58 40.207 58 41.9123C58 43.6176 59.3824 45 61.0877 45C62.793 45 64.1754 43.6176 64.1754 41.9123Z" stroke="#50505A"></path><path d="M47.0877 13.6081C45.3824 13.6081 44 14.9905 44 16.6959C44 18.4012 45.3824 19.7836 47.0877 19.7836C48.793 19.7836 50.1754 18.4012 50.1754 16.6959C50.1754 14.9905 48.793 13.6081 47.0877 13.6081Z" stroke="#50505A"></path><path d="M47.0879 28.0174V38.9099C47.0879 40.5668 48.431 41.9099 50.0879 41.9099H58" stroke="#50505A"></path><path fill-rule="evenodd" clip-rule="evenodd" d="M49.6663 28.0175C49.8621 28.0175 49.9831 27.8038 49.8823 27.6359L47.3042 23.3391C47.2064 23.176 46.97 23.176 46.8722 23.3391L44.2941 27.6359C44.1934 27.8038 44.3143 28.0175 44.5101 28.0175H49.6663Z" fill="#50505A"></path><path d="M61.0877 2.60813C59.3824 2.60813 58 3.99055 58 5.69585C58 7.40115 59.3824 8.78357 61.0877 8.78357C62.793 8.78357 64.1754 7.40115 64.1754 5.69585C64.1754 3.99055 62.793 2.60813 61.0877 2.60813Z" stroke="#50505A"></path><path d="M61.0879 17.0174V30.9099V38.5" stroke="#50505A"></path><path fill-rule="evenodd" clip-rule="evenodd" d="M63.6663 17.0175C63.8621 17.0175 63.9831 16.8038 63.8823 16.6359L61.3042 12.3391C61.2064 12.176 60.97 12.176 60.8722 12.3391L58.2941 16.6359C58.1934 16.8038 58.3143 17.0175 58.5101 17.0175H63.6663Z" fill="#50505A"></path><path d="M86.9121 33.4175V38.9099C86.9121 40.5668 85.569 41.9099 83.9121 41.9099H64" stroke="#50505A"></path><path fill-rule="evenodd" clip-rule="evenodd" d="M84.3337 33.4175C84.1379 33.4175 84.0169 33.2039 84.1177 33.0359L86.6958 28.7391C86.7936 28.576 87.03 28.576 87.1278 28.7391L89.7059 33.0359C89.8066 33.2039 89.6857 33.4175 89.4899 33.4175H84.3337Z" fill="#50505A"></path></g><defs><clipPath id="clip0_4084_108"><rect width="100" height="46" rx="1" fill="white"></rect></clipPath></defs></svg> 