<?xml version="1.0" encoding="UTF-8"?> <svg xmlns="http://www.w3.org/2000/svg" width="100" height="46" viewBox="0 0 100 46" fill="none"><g clip-path="url(#clip0_4084_162)"><path d="M23.4121 2H23.9941C24.5464 2 24.9941 2.44772 24.9941 3V9.23633C24.9941 9.52757 24.758 9.76367 24.4668 9.76367V9.76367C22.5723 9.76367 20.7949 10.0273 19.1348 10.5547C17.4941 11.082 16.0488 11.8828 14.7988 12.957C13.5684 14.0117 12.6016 15.3496 11.8984 16.9707C11.2148 18.5918 10.873 20.4961 10.873 22.6836V30.1543C10.873 31.5215 10.9902 32.7129 11.2246 33.7285C11.459 34.7441 11.8105 35.584 12.2793 36.248C12.748 36.9121 13.3242 37.4102 14.0078 37.7422C14.7109 38.0742 15.5215 38.2402 16.4395 38.2402C17.2012 38.2402 17.9043 38.0645 18.5488 37.7129C19.1934 37.3613 19.75 36.8633 20.2188 36.2188C20.707 35.5742 21.0781 34.8223 21.332 33.9629C21.5859 33.1035 21.7129 32.166 21.7129 31.1504C21.7129 30.0566 21.5762 29.0703 21.3027 28.1914C21.0293 27.3125 20.6387 26.5703 20.1309 25.9648C19.6426 25.3398 19.0469 24.8711 18.3438 24.5586C17.6602 24.2266 16.9082 24.0605 16.0879 24.0605C14.8379 24.0605 13.7734 24.3438 12.8945 24.9102C12.0352 25.457 11.3809 26.1602 10.9316 27.0195C10.8903 27.1023 10.8509 27.1852 10.8135 27.2681C10.4461 28.083 9.20385 28.5303 8.57568 27.8944L8.18904 27.503C8.01225 27.324 7.90666 27.0849 7.91079 26.8334C7.92804 25.7838 8.15374 24.7032 8.58789 23.5918C9.07617 22.3418 9.80859 21.1797 10.7852 20.1055C11.7617 19.0312 12.9824 18.1621 14.4473 17.498C15.9121 16.834 17.6113 16.502 19.5449 16.502C21.498 16.502 23.2168 16.873 24.7012 17.6152C26.2051 18.3574 27.4648 19.3926 28.4805 20.7207C29.5156 22.0488 30.2969 23.6016 30.8242 25.3789C31.3516 27.1562 31.6152 29.0801 31.6152 31.1504C31.6152 33.2402 31.2441 35.1836 30.502 36.9805C29.7793 38.7578 28.7539 40.3105 27.4258 41.6387C26.0977 42.9668 24.5254 44.002 22.709 44.7441C20.8926 45.4863 18.8906 45.8574 16.7031 45.8574C14.457 45.8574 12.377 45.4766 10.4629 44.7148C8.56836 43.9336 6.9082 42.8105 5.48242 41.3457C4.07617 39.8613 2.97266 38.0547 2.17188 35.9258C1.39062 33.7969 1 31.3848 1 28.6895V25.0859C1 21.4336 1.5957 18.1816 2.78711 15.3301C3.99805 12.4785 5.63867 10.0664 7.70898 8.09375C9.79883 6.10156 12.1914 4.58789 14.8867 3.55273C17.582 2.51758 20.4238 2 23.4121 2Z" fill="#F0F4F7"></path><path d="M52.1053 1H45C44.4477 1 44 1.44772 44 2V11.4211" stroke="#50505A" stroke-linecap="round"></path><path d="M52.1053 45H45C44.4477 45 44 44.5523 44 44V34.5789" stroke="#50505A" stroke-linecap="round"></path><path d="M79.8947 1H87C87.5523 1 88 1.44772 88 2V8.42105" stroke="#50505A" stroke-linecap="round"></path><path d="M79.8947 45H87C87.5523 45 88 44.5523 88 44V34.5789" stroke="#50505A" stroke-linecap="round"></path><path fill-rule="evenodd" clip-rule="evenodd" d="M59.5286 11.4455C59.5286 7.87117 62.4261 4.97363 66.0004 4.97363C69.5747 4.97363 72.4722 7.87117 72.4722 11.4455C72.4722 15.0197 69.5747 17.9173 66.0004 17.9173C62.4261 17.9173 59.5286 15.0197 59.5286 11.4455ZM66.0004 3.97363C61.8738 3.97363 58.5286 7.31888 58.5286 11.4455C58.5286 15.572 61.8738 18.9173 66.0004 18.9173C70.1269 18.9173 73.4722 15.572 73.4722 11.4455C73.4722 7.31888 70.1269 3.97363 66.0004 3.97363ZM55.3528 29.086C57.8203 25.7376 61.6796 23.4999 66.0004 23.4999C70.3211 23.4999 74.1804 25.7376 76.648 29.086C76.8908 29.4156 77.12 29.7557 77.3347 30.1052H78.4943C78.1801 29.5459 77.832 29.0072 77.453 28.4928C74.8214 24.9217 70.6778 22.4999 66.0004 22.4999C61.3229 22.4999 57.1794 24.9217 54.5478 28.4928C54.1687 29.0072 53.8206 29.5459 53.5065 30.1052H54.6661C54.8807 29.7557 55.1099 29.4156 55.3528 29.086ZM53.6418 32.1052H52.5642C52.0626 33.4044 51.7351 34.7802 51.6118 36.1957C51.525 37.1916 52.3424 37.9654 53.2838 37.9654H78.717C79.6584 37.9654 80.4757 37.1916 80.3889 36.1957C80.2656 34.7802 79.9381 33.4044 79.4365 32.1052H78.359C78.9097 33.4243 79.2663 34.8322 79.3927 36.2825C79.4236 36.6368 79.1309 36.9654 78.717 36.9654H53.2838C52.8698 36.9654 52.5772 36.6368 52.608 36.2825C52.7344 34.8322 53.0911 33.4243 53.6418 32.1052Z" fill="#50505A"></path><path d="M50 29.12H82" stroke="#D0C018" stroke-width="2" stroke-linecap="round"></path><path fill-rule="evenodd" clip-rule="evenodd" d="M98.9908 13.1776C99.1452 11.4256 97.2948 12.1472 97.2948 12.1472C95.9288 12.7128 94.5201 13.2872 93.0961 13.868C88.6801 15.6692 84.1185 17.53 80.2325 19.3616C78.1253 20.1344 79.3589 20.9072 79.3589 20.9072L82.6993 21.938C84.2413 22.402 85.0633 21.8864 85.0633 21.8864L92.2584 16.9912C94.828 15.2392 94.2112 16.682 93.5944 17.3004L88.1984 22.4532C87.376 23.1748 87.7873 23.7932 88.1469 24.1024C89.1669 25.002 91.6748 26.648 92.7696 27.3664C93.0544 27.5532 93.2436 27.6776 93.2864 27.7096C93.5432 27.9156 94.9308 28.8432 95.856 28.6372C96.7812 28.4308 96.884 27.2456 96.884 27.2456L98.1172 19.1552C98.302 17.7508 98.5144 16.4008 98.684 15.3224C98.844 14.304 98.966 13.5284 98.9908 13.1776Z" stroke="#50505A"></path></g><defs><clipPath id="clip0_4084_162"><rect width="100" height="46" rx="1" fill="white"></rect></clipPath></defs></svg> 