<?xml version="1.0" encoding="UTF-8"?> <svg xmlns="http://www.w3.org/2000/svg" width="100" height="46" viewBox="0 0 100 46" fill="none"><path d="M24.8222 2.34375C25.2516 2.34375 25.5996 2.69179 25.5996 3.12113V44C25.5996 44.5523 25.1519 45 24.5996 45H16.7266C16.1743 45 15.7266 44.5523 15.7266 44V14.8105C15.7266 14.1437 15.0862 13.6637 14.4461 13.8507L7.28044 15.9443C6.64034 16.1313 6 15.6512 6 14.9844V9.53026C6 9.10414 6.27003 8.72482 6.67269 8.58534L24.5678 2.38657C24.6496 2.35822 24.7356 2.34375 24.8222 2.34375Z" fill="#F0F4F7"></path><rect x="44" y="3.5" width="18" height="18" rx="2" stroke="#50505A"></rect><rect x="44" y="24.5" width="18" height="18" rx="2" stroke="#50505A"></rect><rect x="47" y="28.5" width="4" height="4" rx="2" stroke="#50505A"></rect><rect x="47" y="35.5" width="12" height="4" rx="1" stroke="#50505A"></rect><rect x="68" y="10.5" width="2" height="8" rx="1" stroke="#50505A"></rect><rect x="73" y="6.5" width="2" height="12" rx="1" stroke="#50505A"></rect><rect x="78" y="12.5" width="2" height="6" rx="1" stroke="#50505A"></rect><rect x="65" y="3.5" width="18" height="18" rx="2" stroke="#50505A"></rect><path d="M79 24.5H67C65.8954 24.5 65 25.3954 65 26.5V40.5C65 41.6046 65.8954 42.5 67 42.5H81C82.1046 42.5 83 41.6046 83 40.5V28.5" stroke="#50505A"></path><path d="M77.2238 26.2611L90.4521 13.0325L94.7184 17.2987L81.49 30.5274L77.2238 26.2611Z" stroke="#D0C018" stroke-width="2" stroke-linejoin="round"></path><path d="M74.0142 33.8752C74.0069 33.939 74.0609 33.9931 74.1248 33.9858L79.514 33.3745L74.6266 28.4871L74.0142 33.8752Z" stroke="#D0C018" stroke-width="2" stroke-linejoin="round"></path><path d="M97.2744 9.66223C96.3893 8.77926 94.9564 8.77926 94.0713 9.66223L93.1104 10.6231L97.3767 14.8893L98.3375 13.9285C99.2208 13.0434 99.2208 11.6104 98.3375 10.7253L97.2744 9.66223Z" stroke="#D0C018" stroke-width="2" stroke-linejoin="round"></path><path d="M48 9H53" stroke="#50505A" stroke-linecap="round"></path><path d="M54 30.5H59" stroke="#50505A" stroke-linecap="round"></path><path d="M48 13H58" stroke="#50505A" stroke-linecap="round"></path><path d="M48 17H58" stroke="#50505A" stroke-linecap="round"></path></svg> 