<?xml version="1.0" encoding="UTF-8"?> <svg xmlns="http://www.w3.org/2000/svg" width="100" height="46" viewBox="0 0 100 46" fill="none"><g clip-path="url(#clip0_4084_198)"><path d="M79.9184 8.08163L79.779 8.41007C78.0078 12.5852 75.0274 16.1345 71.2216 18.6013L66.7258 21.5152C66.2987 21.7921 66.0408 22.2665 66.0408 22.7755C66.0408 23.2941 66.2654 23.7873 66.6566 24.1278L71.543 28.3807C75.1741 31.5412 78.0383 35.4867 79.9184 39.9184M48.0816 8.08163L48.221 8.41007C49.9922 12.5852 52.9726 16.1345 56.7784 18.6013L61.2742 21.5152C61.7013 21.7921 61.9592 22.2665 61.9592 22.7755C61.9592 23.2941 61.7346 23.7873 61.3434 24.1278L56.457 28.3807C52.8259 31.5412 49.9617 35.4867 48.0816 39.9184M44.0408 8.08163H83.9592C83.9817 8.08163 84 8.06336 84 8.04082V5.22449C84 4.54822 83.4518 4 82.7755 4H45.2245C44.5482 4 44 4.54822 44 5.22449V8.04082C44 8.06336 44.0183 8.08163 44.0408 8.08163ZM45.2245 44H82.7755C83.4518 44 84 43.4518 84 42.7755V39.9592C84 39.9366 83.9817 39.9184 83.9592 39.9184H44.0408C44.0183 39.9184 44 39.9366 44 39.9592V42.7755C44 43.4518 44.5482 44 45.2245 44Z" stroke="#50505A"></path><rect x="68.8975" y="31.7551" width="2.04082" height="2.04082" rx="1.02041" stroke="#50505A"></rect><rect x="58.6943" y="32.1632" width="2.04082" height="2.04082" rx="1.02041" stroke="#50505A"></rect><rect x="64.4082" y="30.9388" width="2.04082" height="2.04082" rx="1.02041" stroke="#50505A"></rect><rect x="61.959" y="34.6122" width="2.04082" height="2.04082" rx="1.02041" stroke="#50505A"></rect><rect x="56.2451" y="35.8368" width="2.04082" height="2.04082" rx="1.02041" stroke="#50505A"></rect><rect x="66.4492" y="35.4286" width="2.04082" height="2.04082" rx="1.02041" stroke="#50505A"></rect><rect x="71.7549" y="35.8368" width="2.04082" height="2.04082" rx="1.02041" stroke="#50505A"></rect><rect x="62.9795" y="19.1021" width="2.04082" height="2.04082" rx="1.02041" stroke="#50505A"></rect><rect x="62.5713" y="26.8571" width="2.04082" height="2.04082" rx="1.02041" stroke="#50505A"></rect><rect x="74" width="26" height="26" rx="13" fill="#D0C018"></rect><path d="M80.09 14.2322L87.2425 4.18841C87.5514 3.75463 88.1889 4.13877 87.9991 4.64432L85.937 10.1361C85.8218 10.443 86.034 10.7768 86.3443 10.7768L93.5606 10.7768C93.9275 10.7768 94.1322 11.2282 93.9042 11.5344L86.247 21.8196C85.9328 22.2416 85.3083 21.8558 85.4961 21.3557L87.6488 15.6226C87.764 15.3157 87.5518 14.9819 87.2416 14.9819L80.4394 14.9818C80.0769 14.9818 79.8709 14.5399 80.09 14.2322Z" fill="#FBFCFD"></path><path d="M30.7363 20.0176V27.8105C30.7363 30.877 30.375 33.543 29.6523 35.8086C28.9492 38.0742 27.9336 39.9492 26.6055 41.4336C25.2969 42.918 23.7344 44.0215 21.918 44.7441C20.1016 45.4668 18.0996 45.8281 15.9121 45.8281C14.1543 45.8281 12.5137 45.6035 10.9902 45.1543C9.4668 44.6855 8.08984 43.9824 6.85938 43.0449C5.64844 42.0879 4.60352 40.8965 3.72461 39.4707C2.8457 38.0449 2.17188 36.3652 1.70312 34.4316C1.23438 32.4785 1 30.2715 1 27.8105V20.0176C1 16.9316 1.35156 14.2656 2.05469 12.0195C2.77734 9.75391 3.80273 7.87891 5.13086 6.39453C6.45898 4.91016 8.03125 3.80664 9.84766 3.08398C11.6641 2.36133 13.666 2 15.8535 2C17.6113 2 19.2422 2.23438 20.7461 2.70312C22.2695 3.15234 23.6465 3.85547 24.877 4.8125C26.1074 5.75 27.1523 6.93164 28.0117 8.35742C28.8906 9.7832 29.5645 11.4727 30.0332 13.4258C30.502 15.3594 30.7363 17.5566 30.7363 20.0176ZM20.8633 29.0117V18.7578C20.8633 17.3906 20.7852 16.1992 20.6289 15.1836C20.4922 14.168 20.2773 13.3086 19.9844 12.6055C19.7109 11.9023 19.3691 11.3359 18.959 10.9062C18.5488 10.457 18.0801 10.1348 17.5527 9.93945C17.0449 9.72461 16.4785 9.61719 15.8535 9.61719C15.0723 9.61719 14.3691 9.7832 13.7441 10.1152C13.1387 10.4277 12.6211 10.9355 12.1914 11.6387C11.7617 12.3418 11.4297 13.2793 11.1953 14.4512C10.9805 15.623 10.873 17.0586 10.873 18.7578V29.0117C10.873 30.3984 10.9414 31.6094 11.0781 32.6445C11.2344 33.6602 11.4492 34.5293 11.7227 35.252C12.0156 35.9551 12.3672 36.5312 12.7773 36.9805C13.1875 37.4102 13.6562 37.7227 14.1836 37.918C14.7109 38.1133 15.2871 38.2109 15.9121 38.2109C16.6738 38.2109 17.3574 38.0547 17.9629 37.7422C18.5684 37.4297 19.0859 36.9219 19.5156 36.2188C19.9648 35.4961 20.2969 34.5488 20.5117 33.377C20.7461 32.1855 20.8633 30.7305 20.8633 29.0117Z" fill="#F0F4F7"></path></g><defs><clipPath id="clip0_4084_198"><rect width="100" height="46" rx="1" fill="white"></rect></clipPath></defs></svg> 