<?xml version="1.0" encoding="UTF-8"?> <svg xmlns="http://www.w3.org/2000/svg" width="100" height="46" viewBox="0 0 100 46" fill="none"><path d="M78.88 29L79.5 31.3973L80.1731 34L80.9189 36.8838C81.0572 37.4185 80.7359 37.964 80.2012 38.1023L54.4984 44.7495C53.9637 44.8878 53.4182 44.5664 53.2799 44.0317L44.2501 9.11597C44.1118 8.58127 44.4331 8.03572 44.9678 7.89744L70.6706 1.25026C71.2053 1.11198 71.7508 1.43333 71.8891 1.96802L73.4188 7.88277" stroke="#50505A" stroke-linecap="round" stroke-linejoin="round"></path><line x1="0.5" y1="-0.5" x2="9.01613" y2="-0.5" transform="matrix(0.968148 -0.25038 -0.25038 -0.968148 56.7568 38.465)" stroke="#50505A" stroke-linecap="round" stroke-linejoin="round"></line><path d="M55.5547 31.8219L66.4662 29" stroke="#50505A" stroke-linecap="round" stroke-linejoin="round"></path><line x1="0.5" y1="-0.5" x2="13.7742" y2="-0.5" transform="matrix(0.968148 -0.25038 -0.25038 -0.968148 51.9434 19.8547)" stroke="#50505A" stroke-linecap="round" stroke-linejoin="round"></line><line x1="0.5" y1="-0.5" x2="16.0581" y2="-0.5" transform="matrix(0.968148 -0.25038 -0.25038 -0.968148 52.5625 22.2501)" stroke="#50505A" stroke-linecap="round" stroke-linejoin="round"></line><line x1="0.5" y1="-0.5" x2="4.06774" y2="-0.5" transform="matrix(-0.25038 -0.968148 -0.968148 0.25038 54.6104 30.1733)" stroke="#50505A" stroke-linecap="round" stroke-linejoin="round"></line><line x1="0.5" y1="-0.5" x2="1.78387" y2="-0.5" transform="matrix(-0.25038 -0.968148 -0.968148 0.25038 56.8223 29.6014)" stroke="#50505A" stroke-linecap="round" stroke-linejoin="round"></line><line x1="0.5" y1="-0.5" x2="4.63871" y2="-0.5" transform="matrix(-0.25038 -0.968148 -0.968148 0.25038 59.0342 29.0297)" stroke="#50505A" stroke-linecap="round" stroke-linejoin="round"></line><line x1="0.5" y1="-0.5" x2="2.92581" y2="-0.5" transform="matrix(-0.25038 -0.968148 -0.968148 0.25038 61.2441 28.4578)" stroke="#50505A" stroke-linecap="round" stroke-linejoin="round"></line><circle cx="52.2161" cy="13.0425" r="1.7129" transform="rotate(-14.5 52.2161 13.0425)" stroke="#50505A" stroke-linecap="round" stroke-linejoin="round"></circle><circle cx="57.1898" cy="11.756" r="1.7129" transform="rotate(-14.5 57.1898 11.756)" stroke="#50505A" stroke-linecap="round" stroke-linejoin="round"></circle><circle cx="62.1653" cy="10.4693" r="1.7129" transform="rotate(-14.5 62.1653 10.4693)" stroke="#50505A" stroke-linecap="round" stroke-linejoin="round"></circle><path d="M72 11V27.8947C72 28.447 72.4477 28.8947 73 28.8947H82.6053H85.4481C85.6034 28.8947 85.7565 28.9309 85.8954 29.0003L93.3678 32.7365C93.5871 32.8462 93.8382 32.6607 93.7979 32.4189L93.2299 29.0112C93.2198 28.9502 93.2668 28.8947 93.3286 28.8947H97C97.5523 28.8947 98 28.447 98 27.8947V17.2632V8C98 7.44772 97.5523 7 97 7H78.1579H76C73.7909 7 72 8.79086 72 11Z" stroke="#50505A"></path><rect width="17.7895" height="4.10526" rx="2.05263" transform="matrix(-1 0 0 1 93.8945 20.6842)" stroke="#D0C018" stroke-width="2"></rect><path d="M93.8944 11.1052H84.3154" stroke="#D0C018" stroke-width="2" stroke-linecap="round"></path><path d="M76.1055 15.2106H85.6844" stroke="#D0C018" stroke-width="2" stroke-linecap="round"></path><path d="M30.6445 37.3828C31.1968 37.3828 31.6445 37.8305 31.6445 38.3828V44C31.6445 44.5523 31.1968 45 30.6445 45H2.87891C2.32662 45 1.87891 44.5523 1.87891 44V38.9543C1.87891 38.6978 1.97752 38.451 2.15435 38.2651L15.5898 24.1406C16.8008 22.7539 17.7773 21.5137 18.5195 20.4199C19.2617 19.3066 19.7988 18.3008 20.1309 17.4023C20.4824 16.5039 20.6582 15.6934 20.6582 14.9707C20.6582 13.7402 20.4727 12.7148 20.1016 11.8945C19.75 11.0547 19.2227 10.4199 18.5195 9.99023C17.8359 9.56055 16.9863 9.3457 15.9707 9.3457C14.9551 9.3457 14.0664 9.63867 13.3047 10.2246C12.543 10.8105 11.9473 11.6113 11.5176 12.627C11.218 13.3689 11.0278 14.1785 10.947 15.056C10.8964 15.6059 10.4546 16.0547 9.90234 16.0547H2C1.44772 16.0547 0.996358 15.6065 1.03155 15.0553C1.17391 12.8253 1.79816 10.7659 2.9043 8.87695C4.19336 6.70898 5.98047 4.98047 8.26562 3.69141C10.5508 2.38281 13.1973 1.72852 16.2051 1.72852C19.3496 1.72852 21.9863 2.2168 24.1152 3.19336C26.2441 4.16992 27.8457 5.58594 28.9199 7.44141C30.0137 9.27734 30.5605 11.4941 30.5605 14.0918C30.5605 15.5762 30.3262 17.002 29.8574 18.3691C29.3887 19.7363 28.7148 21.0938 27.8359 22.4414C26.957 23.7695 25.8828 25.1367 24.6133 26.543C23.3633 27.9492 21.9375 29.4434 20.3359 31.0254L16.2618 35.728C15.7007 36.3756 16.1607 37.3828 17.0176 37.3828H30.6445Z" fill="#F0F4F7"></path></svg> 