<?xml version="1.0" encoding="UTF-8"?> <svg xmlns="http://www.w3.org/2000/svg" width="100" height="46" viewBox="0 0 100 46" fill="none"><g clip-path="url(#clip0_4084_180)"><path d="M30.7617 2C31.314 2 31.7617 2.44772 31.7617 3V7.06917C31.7617 7.20396 31.7345 7.33735 31.6816 7.46134L16.0834 44.0484C15.9262 44.417 15.5642 44.6562 15.1635 44.6562H6.94915C6.22145 44.6562 5.73742 43.9038 6.03917 43.2416L20.7167 11.0318C21.0184 10.3697 20.5344 9.61719 19.8067 9.61719H2C1.44772 9.61719 1 9.16947 1 8.61719V3C1 2.44772 1.44772 2 2 2H30.7617Z" fill="#F0F4F7"></path><path d="M62 10.0321C62.6853 8.99161 63.4759 8.02078 64.361 7.13558C65.977 5.51942 67.8787 4.21867 69.9682 3.2984C69.9806 3.20644 70.004 3.11556 70.0385 3.02784C70.1471 2.75158 70.3573 2.52743 70.6259 2.4014C72.9288 1.39056 78.996 -0.543101 85.8639 3.23627C85.9999 3.31104 86.1195 3.41248 86.2154 3.5345C86.3113 3.6566 86.3816 3.79681 86.422 3.94665C86.4353 3.99722 86.4451 4.04848 86.4516 4.10004C86.4516 4.10259 86.4525 4.10521 86.4525 4.10775C87.9109 4.92921 89.2537 5.94714 90.4423 7.13558C92.1547 8.8481 93.5132 10.8811 94.44 13.1186C95.2432 15.058 95.7088 17.118 95.8185 19.2095L97.2162 19.2221C97.2513 19.2114 97.2865 19.206 97.3222 19.206C98.2151 19.206 98.9385 22.5926 98.9385 26.7626C98.9385 30.9327 98.2151 34.3194 97.3222 34.3194C97.3031 34.3194 97.284 34.3178 97.2649 34.3147L97.2461 34.3111L95.7223 34.2709C95.4158 35.3611 94.5158 38.1998 92.8648 40.6163C91.3046 42.8998 89.081 44.7627 86.2117 44.9087C83.5182 45.046 81.2582 45.0675 79.4406 44.6941C77.4121 44.2749 75.8773 43.3877 74.8308 41.801H73.3885C72.8634 41.801 72.4376 41.3753 72.4376 40.8502V38.9508C72.4376 38.4258 72.8634 38.0001 73.3885 38.0001H78.3867C78.9118 38.0001 79.3376 38.4258 79.3376 38.9508V40.8502C79.3376 41.3753 78.9118 41.801 78.3867 41.801H78.1462C78.6232 41.9747 79.1687 42.0831 79.6108 42.1709L79.8525 42.2195C81.9063 42.6152 84.0146 42.6377 86.0764 42.286C88.0509 41.9426 89.4353 40.4875 90.4419 39.0131C91.5713 37.3573 92.2009 35.3885 92.508 34.1861L91.7872 34.167C89.6067 27.9345 91.6006 19.1717 91.6006 19.1717L92.6295 19.1809C92.3474 15.5303 90.7601 12.0896 88.14 9.50036C87.1586 8.53037 86.0591 7.70676 84.8761 7.04339C84.8671 7.05033 84.8579 7.05711 84.8486 7.06374C84.7475 7.13666 84.6346 7.19347 84.5138 7.23109C84.2428 7.31534 83.9505 7.29745 83.6918 7.18098C81.8206 6.3697 77.3286 4.89745 72.3602 6.65298C72.0809 6.75511 71.7729 6.74517 71.5006 6.62507C71.3847 6.57389 71.2792 6.50444 71.1873 6.42019C69.5282 7.16102 67.9993 8.199 66.6824 9.50036C64.7153 11.4442 63.3305 13.8679 62.6429 16.5" stroke="#50505A" stroke-linejoin="round"></path><path d="M60.9974 14.7277L71.8263 32.6602C72.3067 33.4557 71.7338 34.4708 70.8046 34.4708H45.1954C44.2662 34.4708 43.6933 33.4557 44.1737 32.6602L55.0026 14.7277M62.7743 5L60.3111 20.3984H55.7719L53.2257 5H62.7743ZM54.9104 27.7275C54.9104 26.9324 55.1975 26.2697 55.7719 25.7396C56.3462 25.1984 57.0916 24.9278 58.0083 24.9278C58.925 24.9278 59.665 25.1984 60.2282 25.7396C60.8025 26.2697 61.0897 26.9324 61.0897 27.7275C61.0897 28.5227 60.8025 29.1909 60.2282 29.7321C59.665 30.2622 58.925 30.5273 58.0083 30.5273C57.0916 30.5273 56.3462 30.2622 55.7719 29.7321C55.1975 29.1909 54.9104 28.5227 54.9104 27.7275Z" stroke="#D0C018" stroke-width="2" stroke-linejoin="round"></path></g><defs><clipPath id="clip0_4084_180"><rect width="100" height="46" rx="1" fill="white"></rect></clipPath></defs></svg> 