<?xml version="1.0" encoding="UTF-8"?> <svg xmlns="http://www.w3.org/2000/svg" width="100" height="46" viewBox="0 0 100 46" fill="none"><g clip-path="url(#clip0_4084_144)"><path d="M10.1395 25.1461C9.85072 25.4253 9.44774 25.5828 9.05667 25.4909L2.7194 24.0012C2.2243 23.8848 1.89542 23.4153 1.95516 22.9103L4.32403 2.88254C4.38356 2.3792 4.81026 2 5.31711 2H28.3601C28.9123 2 29.3601 2.44772 29.3601 3V8.67578C29.3601 9.22807 28.9123 9.67578 28.3601 9.67578H13.3774C12.869 9.67578 12.4415 10.0572 12.3838 10.5623L11.7447 16.1598C11.6513 16.9777 12.5752 17.635 13.3514 17.3608C13.5221 17.3005 13.702 17.2389 13.8913 17.1758C15.0241 16.7852 16.2741 16.5898 17.6413 16.5898C19.7507 16.5898 21.6159 16.9121 23.237 17.5566C24.8776 18.1816 26.2644 19.1094 27.3972 20.3398C28.53 21.5508 29.3796 23.0449 29.946 24.8223C30.5319 26.5996 30.8249 28.6309 30.8249 30.916C30.8249 32.752 30.5222 34.5293 29.9167 36.248C29.3308 37.9473 28.4226 39.4805 27.1921 40.8477C25.9811 42.1953 24.4479 43.2695 22.5925 44.0703C20.737 44.8516 18.5397 45.2422 16.0007 45.2422C14.1061 45.2422 12.2604 44.9492 10.4636 44.3633C8.6667 43.7773 7.0456 42.9375 5.60029 41.8438C4.17451 40.7305 3.0417 39.3926 2.20185 37.8301C1.52238 36.5197 1.13101 35.0819 1.02775 33.5169C0.991652 32.9697 1.44235 32.5273 1.99073 32.5273H9.98732C10.5177 32.5273 10.9465 32.9437 11.043 33.4652C11.1632 34.1152 11.3705 34.701 11.6647 35.2227C12.0944 35.9844 12.6706 36.5801 13.3933 37.0098C14.1354 37.4199 14.9851 37.625 15.9421 37.625C16.9186 37.625 17.7292 37.4297 18.3737 37.0391C19.0183 36.6484 19.5261 36.1113 19.8972 35.4277C20.2683 34.7441 20.5319 33.9629 20.6882 33.084C20.8444 32.1855 20.9226 31.2383 20.9226 30.2422C20.9226 29.1875 20.8054 28.2402 20.571 27.4004C20.3561 26.5605 20.0046 25.8477 19.5163 25.2617C19.028 24.6562 18.3933 24.1973 17.612 23.8848C16.8503 23.5723 15.9323 23.416 14.8581 23.416C13.4323 23.416 12.3093 23.6602 11.489 24.1484C10.9377 24.4766 10.4879 24.8091 10.1395 25.1461Z" fill="#F0F4F7"></path><path d="M90.106 34.106L93.0699 37.0699M94.2904 23.6452C94.2904 31.7335 87.7335 38.2904 79.6452 38.2904C71.5569 38.2904 65 31.7335 65 23.6452C65 15.5569 71.5569 9 79.6452 9C87.7335 9 94.2904 15.5569 94.2904 23.6452ZM93.2037 40.0927L95.7748 42.6638C96.2185 43.1075 96.9379 43.1075 97.3817 42.6638L98.6672 41.3782C99.1109 40.9345 99.1109 40.2151 98.6672 39.7713L96.0962 37.2003C95.2974 36.4016 94.0024 36.4016 93.2037 37.2003C92.405 37.999 92.405 39.294 93.2037 40.0927Z" stroke="#50505A" stroke-linecap="round"></path><path d="M77.2313 21.401C76.6954 21.2674 76.1527 21.5935 76.0191 22.1294C75.8855 22.6652 76.2116 23.208 76.7475 23.3416L77.2313 21.401ZM82.6261 23.4248L82.5095 22.4316L82.5058 22.432L82.6261 23.4248ZM85.0177 19.3119L84.0772 19.652L84.0807 19.6612L85.0177 19.3119ZM83.8989 17.9463L83.3307 18.7692L83.3336 18.7712L83.8989 17.9463ZM82.2956 23.6943L82.651 22.7596L82.5953 22.7384L82.5375 22.724L82.2956 23.6943ZM83.7552 24.6895L83.0073 25.3533L83.0115 25.3581L83.7552 24.6895ZM84.5867 26.2113L83.6216 26.4731L83.6231 26.4785L84.5867 26.2113ZM83.5076 29.9165L82.8231 29.1875L82.821 29.1895L83.5076 29.9165ZM81.6377 30.8578L81.8197 31.8412L81.8277 31.8396L81.6377 30.8578ZM76.2848 14.655C75.7489 14.5214 75.2062 14.8475 75.0726 15.3834C74.939 15.9193 75.2651 16.462 75.8009 16.5956L76.2848 14.655ZM72.9249 28.131C72.389 27.9974 71.8463 28.3235 71.7126 28.8593C71.579 29.3952 71.9051 29.938 72.441 30.0716L72.9249 28.131ZM81.242 14.5914C81.3756 14.0555 81.0495 13.5128 80.5136 13.3792C79.9777 13.2456 79.435 13.5717 79.3014 14.1076L81.242 14.5914ZM85.0435 15.5393C85.1771 15.0034 84.851 14.4607 84.3152 14.327C83.7793 14.1934 83.2366 14.5195 83.1029 15.0554L85.0435 15.5393ZM74.8483 31.9681C74.7146 32.504 75.0407 33.0467 75.5766 33.1803C76.1125 33.3139 76.6552 32.9878 76.7888 32.4519L74.8483 31.9681ZM78.6498 32.9159C78.5162 33.4518 78.8423 33.9945 79.3782 34.1281C79.9141 34.2618 80.4568 33.9357 80.5904 33.3998L78.6498 32.9159ZM76.7475 23.3416L80.1481 24.1895L80.632 22.2489L77.2313 21.401L76.7475 23.3416ZM80.1481 24.1895C81.0816 24.4222 81.9552 24.5134 82.7464 24.4175L82.5058 22.432C82.0306 22.4896 81.4135 22.4437 80.632 22.2489L80.1481 24.1895ZM82.7427 24.418C83.5609 24.3219 84.294 24.0187 84.8796 23.4676L83.5088 22.0112C83.283 22.2238 82.9707 22.3775 82.5095 22.4316L82.7427 24.418ZM84.8796 23.4676C85.4585 22.9227 85.8251 22.1998 86.0306 21.3757L84.09 20.8918C83.9521 21.4449 83.7413 21.7924 83.5088 22.0112L84.8796 23.4676ZM86.0306 21.3757C86.2378 20.5445 86.2388 19.725 85.9547 18.9627L84.0807 19.6612C84.1934 19.9638 84.2229 20.3588 84.09 20.8918L86.0306 21.3757ZM85.9581 18.9719C85.6823 18.209 85.1572 17.5963 84.4642 17.1214L83.3336 18.7712C83.7484 19.0554 83.9692 19.3532 84.0773 19.652L85.9581 18.9719ZM77.5472 16.0003L74.1867 29.4761L76.1272 29.9601L79.4878 16.4843L77.5472 16.0003ZM81.9402 24.629C82.3766 24.7949 82.7262 25.0367 83.0073 25.3533L84.5031 24.0257C83.9977 23.4563 83.3742 23.0346 82.651 22.7596L81.9402 24.629ZM83.0115 25.3581C83.308 25.6879 83.5085 26.0563 83.6216 26.4731L85.5518 25.9494C85.3557 25.2266 85.0018 24.5805 84.4989 24.021L83.0115 25.3581ZM83.6231 26.4785C83.7322 26.8722 83.7378 27.2675 83.6345 27.6816L85.5751 28.1654C85.7602 27.4232 85.7536 26.677 85.5503 25.944L83.6231 26.4785ZM83.6345 27.6816C83.4625 28.3717 83.1791 28.8532 82.8231 29.1875L84.1922 30.6455C84.8812 29.9984 85.3293 29.1512 85.5751 28.1654L83.6345 27.6816ZM82.821 29.1895C82.4522 29.5378 82.004 29.7684 81.4476 29.8761L81.8277 31.8396C82.7357 31.6639 83.5342 31.2669 84.1942 30.6435L82.821 29.1895ZM80.1481 24.1895L82.0537 24.6646L82.5375 22.724L80.632 22.2489L80.1481 24.1895ZM78.7595 15.272L76.2848 14.655L75.8009 16.5956L78.2756 17.2126L78.7595 15.272ZM75.3989 28.7478L72.9249 28.131L72.441 30.0716L74.915 30.6884L75.3989 28.7478ZM81.9652 16.0713L79.9666 15.573L79.4828 17.5136L81.4814 18.0119L81.9652 16.0713ZM79.9666 15.573L78.7595 15.272L78.2756 17.2126L79.4828 17.5136L79.9666 15.573ZM80.695 16.7852L81.242 14.5914L79.3014 14.1076L78.7544 16.3014L80.695 16.7852ZM84.4671 17.1234C84.3044 17.011 84.1325 16.9064 83.9523 16.8091L83.0017 18.5687C83.1229 18.6343 83.2323 18.7013 83.3307 18.7692L84.4671 17.1234ZM83.9523 16.8091C83.3792 16.4995 82.7116 16.2574 81.9652 16.0713L81.4814 18.0119C82.1103 18.1687 82.6118 18.3581 83.0017 18.5687L83.9523 16.8091ZM83.1029 15.0554L82.5067 17.447L84.4472 17.9308L85.0435 15.5393L83.1029 15.0554ZM79.4877 29.7673L76.6067 29.049L76.1228 30.9895L79.0039 31.7079L79.4877 29.7673ZM76.6067 29.049L75.3989 28.7478L74.915 30.6884L76.1228 30.9895L76.6067 29.049ZM75.3945 29.7773L74.8483 31.9681L76.7888 32.4519L77.3351 30.2612L75.3945 29.7773ZM81.4556 29.8745C81.1 29.9404 80.7115 29.955 80.2856 29.9105L80.0779 31.8997C80.6752 31.9621 81.2574 31.9452 81.8197 31.8411L81.4556 29.8745ZM80.2856 29.9105C80.0332 29.8842 79.7674 29.837 79.4877 29.7673L79.0039 31.7079C79.3666 31.7983 79.7248 31.8628 80.0779 31.8997L80.2856 29.9105ZM80.5904 33.3998L81.1521 31.1471L79.2115 30.6632L78.6498 32.9159L80.5904 33.3998Z" fill="#D0C018"></path><path fill-rule="evenodd" clip-rule="evenodd" d="M62.0024 1.55799C66.7841 1.19562 70.4648 2.55892 72.9168 4.82035C73.8094 5.6436 74.5443 6.59033 75.1124 7.62455C75.442 7.53149 75.7758 7.44832 76.1133 7.37539C75.4792 6.1589 74.6363 5.04579 73.5948 4.08525C70.91 1.60919 66.9436 0.180667 61.9269 0.560849C58.1469 0.847308 55.3934 2.7333 53.2009 4.82748C52.2139 5.77013 51.3311 6.76452 50.5224 7.67549L50.5224 7.6755L50.264 7.96639C49.3754 8.96504 48.5863 9.82808 47.8168 10.4371C47.6002 10.6084 47.5636 10.9229 47.7349 11.1394C47.9063 11.356 48.2208 11.3926 48.4373 11.2213C49.2868 10.549 50.1323 9.61881 51.0111 8.6311L51.2687 8.34114C52.0807 7.4266 52.9362 6.46313 53.8916 5.55062C55.9991 3.53764 58.5453 1.81998 62.0024 1.55799ZM64.4171 30.3759C64.5583 30.6948 64.7092 31.0084 64.8694 31.3164C62.2956 33.6347 57.8709 36.9263 51.8695 38.5267C50.975 38.7652 50.0763 38.9555 49.1767 39.0987C48.904 39.1422 48.6477 38.9563 48.6043 38.6836C48.5609 38.4109 48.7467 38.1546 49.0195 38.1112C49.8854 37.9733 50.7506 37.7901 51.6119 37.5605C57.5855 35.9675 61.9516 32.6356 64.4171 30.3759ZM63.1056 25.5301C63.153 25.9504 63.216 26.3659 63.2941 26.7761C61.4463 28.6532 57.1055 32.6079 50.7436 34.3044C49.3217 34.6836 47.8878 34.9169 46.4609 35.0119C46.1854 35.0302 45.9471 34.8217 45.9288 34.5462C45.9104 34.2707 46.1189 34.0324 46.3945 34.0141C47.7574 33.9234 49.1271 33.7005 50.486 33.3381C57.2996 31.5212 61.7185 26.9974 63.1056 25.5301ZM63.8004 18.531C63.6247 19.0757 63.4763 19.6326 63.3569 20.2003C63.3119 20.2522 63.2668 20.3043 63.2216 20.3565L63.2216 20.3566L63.0307 20.5771L63.0307 20.5771L63.0287 20.5793C62.5028 21.1867 61.7357 22.0727 60.9257 22.93L60.8052 23.0578L60.805 23.058L60.801 23.0622C59.6587 24.2744 55.7188 28.4551 49.6177 30.0821C47.9051 30.5388 46.1732 30.7324 44.4714 30.6841C44.1953 30.6762 43.9779 30.4461 43.9858 30.1701C43.9936 29.8941 44.2237 29.6766 44.4997 29.6845C46.1064 29.7301 47.7419 29.5473 49.36 29.1158C55.1787 27.5642 58.9564 23.5615 60.0775 22.3719L60.0776 22.3718L60.1986 22.2436L60.1988 22.2433C60.9928 21.4028 61.7476 20.5313 62.2747 19.9225L62.4655 19.702C62.7674 19.3533 63.069 19.0051 63.3411 18.6945C63.4597 18.5592 63.6351 18.5033 63.8004 18.531ZM68.7775 11.0369C68.5102 11.2675 68.2504 11.5064 67.9983 11.7533C67.7606 11.1186 67.3213 10.5726 66.7357 10.1823C65.1308 9.11267 62.2685 9.15832 59.5146 12.2942L59.5062 12.3036L59.4967 12.3136C59.2533 12.5628 58.8933 12.9921 58.5074 13.456L58.4239 13.5564L58.4238 13.5565C58.073 13.9784 57.7111 14.4135 57.4355 14.7112L57.4355 14.7112L57.3193 14.8367L57.3193 14.8367C56.7408 15.4613 56.0379 16.2191 55.3217 16.9278L55.3217 16.9278L55.3041 16.9452L55.3041 16.9452L55.2956 16.9536C54.2583 17.9802 51.5542 20.6563 47.6132 21.6389C46.6424 21.8809 45.6662 21.9785 44.7111 21.9456C44.4351 21.9361 44.2191 21.7047 44.2286 21.4287C44.2381 21.1527 44.4696 20.9367 44.7455 20.9462C45.609 20.976 46.4921 20.8877 47.3713 20.6686C51.0349 19.7552 53.5744 17.2501 54.6007 16.2344L54.6007 16.2344L54.6183 16.217C55.3168 15.5258 56.0056 14.7835 56.5856 14.1572L56.7018 14.0318L56.7018 14.0317C56.9583 13.7548 57.3034 13.3398 57.6619 12.9087L57.7386 12.8164C58.1104 12.3696 58.4949 11.9097 58.7718 11.6246C61.7548 8.23457 65.1562 7.92784 67.2903 9.35014C67.9325 9.77815 68.4457 10.3582 68.7775 11.0369ZM72.0269 8.8417C71.7293 8.99516 71.437 9.15732 71.1502 9.32786C70.9408 9.03293 70.6863 8.74838 70.3749 8.47595C70.1671 8.2941 70.1461 7.97822 70.3279 7.77041C70.5097 7.56259 70.8256 7.54153 71.0334 7.72337C71.4384 8.0777 71.7638 8.45327 72.0269 8.8417ZM52.3747 13.7839C52.9306 13.1956 53.5124 12.4965 54.1148 11.7726C54.4537 11.3653 54.7992 10.9502 55.1503 10.5426C56.1425 9.39038 57.2131 8.25472 58.426 7.34682C59.6357 6.44137 60.9752 5.77136 62.5053 5.53657C64.0325 5.30226 65.7865 5.49568 67.8368 6.37438C68.0906 6.48316 68.3846 6.36559 68.4933 6.11177C68.6021 5.85796 68.4845 5.56402 68.2307 5.45524C66.0326 4.51318 64.0898 4.28176 62.3537 4.54814C60.6206 4.81405 59.1306 5.57029 57.8268 6.54626C56.5262 7.51979 55.3994 8.72074 54.3925 9.89001C54.0141 10.3294 53.6569 10.7589 53.3139 11.1712C52.7286 11.8749 52.1848 12.5288 51.6478 13.0971C51.2828 13.4834 50.4724 14.1807 49.463 14.7525C48.4468 15.3281 47.2955 15.7389 46.2276 15.6473C45.9525 15.6237 45.7103 15.8276 45.6867 16.1027C45.6631 16.3779 45.8671 16.62 46.1422 16.6436C47.502 16.7603 48.8652 16.2405 49.9559 15.6226C51.0534 15.0008 51.9424 14.2414 52.3747 13.7839ZM64.8146 13.6049C65.0723 13.5058 65.2009 13.2165 65.1017 12.9587C65.0026 12.701 64.7133 12.5724 64.4556 12.6715C62.7724 13.3189 61.5953 14.3698 60.4846 15.6027C60.0732 16.0593 59.6639 16.5492 59.2427 17.0533L59.2426 17.0533C59.0998 17.2242 58.9557 17.3967 58.8097 17.5701C58.2286 18.26 57.6067 18.9772 56.8865 19.7075C55.8858 20.7223 52.8763 23.7679 48.3576 24.9202C47.5372 25.1295 45.9311 25.4965 44.037 25.3561C43.7616 25.3356 43.5218 25.5423 43.5014 25.8177C43.481 26.0931 43.6877 26.3329 43.963 26.3533C46.0189 26.5058 47.7495 26.1073 48.6047 25.8892C53.4013 24.666 56.5737 21.4489 57.5933 20.415L57.5985 20.4097C58.346 19.6517 58.9874 18.9114 59.5745 18.2143C59.7267 18.0337 59.8745 17.8568 60.0192 17.6836L60.02 17.6826C60.4376 17.1829 60.8297 16.7136 61.2275 16.272C62.2903 15.0924 63.3417 14.1714 64.8146 13.6049ZM61.5359 38.6131C62.211 38.144 63.0482 38.0473 64.0553 38.2232C65.0687 38.4002 66.1915 38.843 67.3772 39.3784C67.797 39.568 68.2284 39.771 68.663 39.9756L68.663 39.9757L68.6632 39.9757C69.429 40.3363 70.205 40.7015 70.9456 41.0061C72.1115 41.4857 73.2863 41.8586 74.3599 41.8586C74.636 41.8586 74.8599 41.6348 74.8599 41.3586C74.8599 41.0825 74.6361 40.8586 74.3599 40.8586C73.4914 40.8586 72.4679 40.551 71.326 40.0813C70.6042 39.7844 69.8734 39.4402 69.1266 39.0884L69.1265 39.0884L69.1263 39.0883C68.6865 38.8811 68.2412 38.6713 67.7887 38.467C66.594 37.9275 65.3736 37.4383 64.2273 37.2381C63.0747 37.0367 61.9359 37.1174 60.9652 37.792C60.8059 37.9027 60.6522 38.0099 60.5032 38.1138L60.5021 38.1146C59.3361 38.9276 58.4592 39.5391 57.4277 40.0789C56.2725 40.6834 54.9115 41.203 52.7378 41.7827C52.471 41.8538 52.3124 42.1278 52.3835 42.3946C52.4547 42.6614 52.7287 42.8201 52.9955 42.7489C55.2135 42.1574 56.6498 41.6146 57.8914 40.9649C58.9827 40.3938 59.9144 39.7439 61.0724 38.9361C61.2228 38.8312 61.377 38.7236 61.5359 38.6131ZM58.3224 45.4507C59.6888 44.7946 60.674 44.1267 61.458 43.5627C61.6021 43.459 61.7372 43.3607 61.8649 43.2677L61.8654 43.2674C62.4516 42.8407 62.8821 42.5272 63.3112 42.3345C63.7821 42.123 64.2358 42.0681 64.8805 42.2731C65.5616 42.4897 66.4513 42.9958 67.7529 43.947C67.9759 44.11 68.2887 44.0613 68.4516 43.8383C68.6145 43.6154 68.5659 43.3026 68.3429 43.1396C67.025 42.1765 66.0268 41.5883 65.1835 41.3202C64.3039 41.0404 63.5965 41.1102 62.9016 41.4223C62.3684 41.6617 61.8332 42.0523 61.2451 42.4814L61.245 42.4815C61.1238 42.57 61.0003 42.6601 60.8741 42.7509C60.1141 43.2976 59.1821 43.9286 57.8896 44.5492C57.6407 44.6688 57.5357 44.9674 57.6553 45.2164C57.7748 45.4653 58.0735 45.5702 58.3224 45.4507Z" fill="#50505A"></path></g><defs><clipPath id="clip0_4084_144"><rect width="100" height="46" rx="1" fill="white"></rect></clipPath></defs></svg> 