<?xml version="1.0" encoding="UTF-8"?> <svg xmlns="http://www.w3.org/2000/svg" width="100" height="46" viewBox="0 0 100 46" fill="none"><path d="M31.2891 27.9863C31.8413 27.9863 32.2891 28.434 32.2891 28.9863V34.6035C32.2891 35.1558 31.8413 35.6035 31.2891 35.6035H2.49355C1.9787 35.6035 1.54798 35.2126 1.49823 34.7001L1.03272 29.9054C1.0115 29.6868 1.06283 29.4673 1.17878 29.2808L17.8452 2.47203C18.0277 2.17849 18.3488 2 18.6945 2H24.1488C24.9297 2 25.4092 2.85502 25.0021 3.52138L17.4648 15.8574L11.304 26.4848C10.9176 27.1515 11.3986 27.9863 12.1692 27.9863H31.2891ZM26.9824 2C27.5347 2 27.9824 2.44772 27.9824 3V43.6563C27.9824 44.2085 27.5347 44.6562 26.9824 44.6562H19.1094C18.5571 44.6562 18.1094 44.2085 18.1094 43.6562V3C18.1094 2.44772 18.5571 2 19.1094 2H26.9824Z" fill="#F0F4F7"></path><path d="M78.1224 18.5102V12M61.0612 32.4286H48C45.7909 32.4286 44 30.6377 44 28.4286V5C44 2.79086 45.7909 1 48 1H74.1224C76.3316 1 78.1224 2.79086 78.1224 5V7.95918" stroke="#50505A"></path><path d="M92.041 9.47961C92.3172 9.47961 92.541 9.70347 92.541 9.97961C92.541 10.2558 92.3172 10.4796 92.041 10.4796V9.47961ZM64.6531 9.47961H83.8471V10.4796H64.6531V9.47961ZM83.8471 9.47961H92.041V10.4796H83.8471V9.47961Z" fill="#50505A"></path><path fill-rule="evenodd" clip-rule="evenodd" d="M64.6533 12.2289C64.6533 12.3997 64.4669 12.5053 64.3205 12.4174L60.5717 10.1681C60.4294 10.0827 60.4294 9.87654 60.5717 9.79118L64.3205 7.54191C64.4669 7.45402 64.6533 7.55954 64.6533 7.73038V12.2289Z" fill="#50505A"></path><path d="M48.4893 22.9489C48.2131 22.9489 47.9893 23.1727 47.9893 23.4489C47.9893 23.725 48.2131 23.9489 48.4893 23.9489V22.9489ZM56.1219 22.9489H48.4893V23.9489H56.1219V22.9489Z" fill="#50505A"></path><path fill-rule="evenodd" clip-rule="evenodd" d="M56.1221 25.6981C56.1221 25.869 56.3084 25.9745 56.4549 25.8866L60.2037 23.6373C60.346 23.552 60.346 23.3458 60.2037 23.2604L56.4549 21.0112C56.3084 20.9233 56.1221 21.0288 56.1221 21.1996V25.6981Z" fill="#50505A"></path><path d="M74.5309 45.0001C81.9699 45.0001 88.0003 38.9696 88.0003 31.5307C88.0003 24.0917 81.9699 18.0613 74.5309 18.0613C67.092 18.0613 61.0615 24.0917 61.0615 31.5307C61.0615 38.9696 67.092 45.0001 74.5309 45.0001Z" stroke="#50505A"></path><path d="M48.4902 9.97956V9.97956C48.4902 7.49991 50.5004 5.48975 52.98 5.48975V5.48975C55.4597 5.48975 57.4698 7.4999 57.4698 9.97954V9.97954C57.4698 12.4592 55.4597 14.4693 52.98 14.4693V14.4693C50.5004 14.4693 48.4902 12.4592 48.4902 9.97956V9.97956Z" stroke="#50505A"></path><path d="M74.5428 22.4504V24.0807M74.5428 24.0807C77.6941 24.0807 80.2487 26.6353 80.2487 29.7865V36.7151M74.5428 24.0807C71.3916 24.0807 68.837 26.6353 68.837 29.7865V36.7151M80.2487 36.7151H74.5428M80.2487 36.7151H82.694M68.837 36.7151H66.3916M68.837 36.7151H74.5428M74.5428 36.7151V38.7529" stroke="#D0C018" stroke-width="2" stroke-linecap="round"></path><path d="M95.0877 6.89451C93.3824 6.89451 92 8.27693 92 9.98223C92 11.6875 93.3824 13.0699 95.0877 13.0699C96.793 13.0699 98.1754 11.6875 98.1754 9.98223C98.1754 8.27693 96.793 6.89451 95.0877 6.89451Z" stroke="#50505A"></path></svg> 