<?xml version="1.0" encoding="UTF-8"?> <svg xmlns="http://www.w3.org/2000/svg" width="20" height="20" viewBox="0 0 20 20" fill="none"><g clip-path="url(#clip0_3945_108)"><path d="M13.8786 16C13.4149 16.2946 12.9177 16.5361 12.3964 16.7189V19.5H7.60363V16.7189C7.08231 16.5361 6.58507 16.2946 6.12138 16C5.84422 15.8239 5.57905 15.6288 5.32788 15.4158L2.89637 16.8083L0.5 12.6917L2.93072 11.3023C2.77105 10.4413 2.77105 9.55869 2.93072 8.69771L0.5 7.30833L2.89637 3.19167L5.32788 4.58421C5.99923 4.01494 6.7707 3.5732 7.60363 3.28113V0.5H12.3964V3.28113C13.2293 3.5732 14.0008 4.01494 14.6721 4.58421L17.1036 3.19167L19.5 7.30833L17.0693 8.69771C17.229 9.55869 17.229 10.4413 17.0693 11.3023L19.5 12.6917L17.7359 15.7222M7.87868 12.1213C7.13736 11.38 6.86512 10.3472 7.06194 9.39186C7.07748 9.31642 7.16995 9.29127 7.22441 9.34573L8.61158 10.7329C8.81245 10.9338 9.10958 11.0039 9.37908 10.9141L10.1746 10.6489C10.3985 10.5743 10.5743 10.3985 10.6489 10.1746L10.9141 9.37908C11.0039 9.10958 10.9338 8.81245 10.7329 8.61158L9.34573 7.22441C9.29127 7.16995 9.31642 7.07748 9.39186 7.06194C10.3472 6.86512 11.38 7.13736 12.1213 7.87868C12.9202 8.67755 13.1743 9.81489 12.8837 10.8291C12.9902 10.892 13.0905 10.9692 13.182 11.0606L18.8388 16.7175C19.4246 17.3033 19.4246 18.253 18.8388 18.8388C18.253 19.4246 17.3033 19.4246 16.7175 18.8388L11.0606 13.182C10.9692 13.0905 10.892 12.9902 10.8291 12.8837C9.81489 13.1743 8.67755 12.9202 7.87868 12.1213Z" stroke="#D0C018" stroke-linejoin="round"></path></g><defs><clipPath id="clip0_3945_108"><rect width="20" height="20" fill="white"></rect></clipPath></defs></svg> 