<svg width="14" height="14" viewBox="0 0 14 14" fill="none" xmlns="http://www.w3.org/2000/svg">
  <rect width="14" height="14" rx="7" transform="matrix(-1 0 0 1 14 0)" fill="#F0F4F7"/>
  <path d="M4.77988 8.6C6.32628 8.6 7.57988 7.3464 7.57988 5.8C7.57988 4.75322 7.00546 3.84059 6.15463 3.36016C6.01808 3.28305 6.03333 3.0664 6.18846 3.04342C6.38144 3.01482 6.57892 3 6.77986 3C8.98899 3 10.7799 4.79086 10.7799 7C10.7799 9.20914 8.98899 11 6.77986 11C5.04003 11 3.55963 9.88922 3.00916 8.33814C2.95675 8.19046 3.14048 8.07553 3.27247 8.16001C3.70762 8.43853 4.22489 8.6 4.77988 8.6Z" fill="#50505A"/>
</svg>