<svg width="14" height="14" viewBox="0 0 14 14" fill="none" xmlns="http://www.w3.org/2000/svg">
  <path d="M7.08499 0.0607221C7.05725 -0.0202406 6.94275 -0.0202408 6.91501 0.0607219L6.00492 2.717C6.29439 2.6567 6.59436 2.625 6.90173 2.625C7.28546 2.625 7.65764 2.6744 8.01228 2.76719L7.08499 0.0607221Z" fill="#50505A"/>
  <path d="M9.24693 3.30601C9.83315 3.67896 10.3246 4.18762 10.677 4.78775L11.9669 2.15329C12.0045 2.07642 11.9236 1.99546 11.8467 2.03309L9.24693 3.30601Z" fill="#50505A"/>
  <path d="M11.1524 5.96018C11.2337 6.29346 11.2767 6.6417 11.2767 7C11.2767 7.3583 11.2337 7.70654 11.1524 8.03982L13.9393 7.08499C14.0202 7.05725 14.0202 6.94275 13.9393 6.91501L11.1524 5.96018Z" fill="#50505A"/>
  <path d="M10.677 9.21225C10.3246 9.81239 9.83315 10.321 9.24693 10.694L11.8467 11.9669C11.9236 12.0045 12.0045 11.9236 11.9669 11.8467L10.677 9.21225Z" fill="#50505A"/>
  <path d="M8.01228 11.2328C7.65764 11.3256 7.28546 11.375 6.90173 11.375C6.59436 11.375 6.29439 11.3433 6.00492 11.283L6.91501 13.9393C6.94275 14.0202 7.05725 14.0202 7.08499 13.9393L8.01228 11.2328Z" fill="#50505A"/>
  <path d="M4.64326 10.7478C4.07825 10.4065 3.59665 9.94115 3.23625 9.38941L2.03309 11.8467C1.99546 11.9236 2.07642 12.0045 2.15329 11.9669L4.64326 10.7478Z" fill="#50505A"/>
  <path d="M3.70577 8.42894C3.72078 8.38556 3.70034 8.33736 3.65843 8.31812C3.49292 7.91128 3.40173 7.46629 3.40173 7C3.40173 6.53371 3.49292 6.08872 3.65843 5.68188C3.70034 5.66264 3.72078 5.61444 3.70577 5.57106C4.25237 4.3504 5.47774 3.5 6.90173 3.5C8.83473 3.5 10.4017 5.067 10.4017 7C10.4017 8.933 8.83473 10.5 6.90173 10.5C5.47774 10.5 4.25237 9.6496 3.70577 8.42894Z" fill="#50505A"/>
  <path d="M3.23625 4.61059C3.59665 4.05885 4.07825 3.59347 4.64326 3.25225L2.15329 2.03309C2.07642 1.99546 1.99546 2.07642 2.03309 2.15329L3.23625 4.61059Z" fill="#50505A"/>
  <path d="M2.63387 6.0334C2.56375 6.34435 2.52673 6.66786 2.52673 7C2.52673 7.33215 2.56375 7.65565 2.63387 7.9666L0.0607219 7.08499C-0.0202408 7.05725 -0.0202406 6.94275 0.0607221 6.91501L2.63387 6.0334Z" fill="#50505A"/>
</svg>