<?xml version="1.0" encoding="UTF-8"?> <svg xmlns="http://www.w3.org/2000/svg" width="120" height="120" viewBox="0 0 120 120" fill="none"> <g clip-path="url(#clip0_3891_2)"> <path d="M65.4545 83.9684H70.5C71.3284 83.9684 72 84.6399 72 85.4684V115.468C72 116.297 71.3284 116.968 70.5 116.968H49.5C48.6716 116.968 48 116.297 48 115.468L48 85.4684C48 84.6399 48.6716 83.9684 49.5 83.9684H54.5455M55.6604 92.5L55.6604 80.5C55.6604 79.6716 56.332 79 57.1604 79L63.1604 79C63.9888 79 64.6604 79.6716 64.6604 80.5L64.6604 92.5C64.6604 93.3284 63.9888 94 63.1604 94L57.1604 94C56.332 94 55.6604 93.3284 55.6604 92.5Z" stroke="#D0C018" stroke-width="6"></path> <path d="M110.455 56.9684H115.5C116.328 56.9684 117 57.6399 117 58.4684V88.4684C117 89.2968 116.328 89.9684 115.5 89.9684H94.5C93.6716 89.9684 93 89.2968 93 88.4684L93 58.4684C93 57.6399 93.6716 56.9684 94.5 56.9684H99.5455M100.66 65.5L100.66 53.5C100.66 52.6716 101.332 52 102.16 52L108.16 52C108.989 52 109.66 52.6716 109.66 53.5L109.66 65.5C109.66 66.3284 108.989 67 108.16 67L102.16 67C101.332 67 100.66 66.3284 100.66 65.5Z" stroke="#D0C018" stroke-width="6"></path> <path d="M20.4545 56.9684H25.5C26.3284 56.9684 27 57.6399 27 58.4684V88.4684C27 89.2968 26.3284 89.9684 25.5 89.9684H4.5C3.67157 89.9684 3 89.2968 3 88.4684L3 58.4684C3 57.6399 3.67157 56.9684 4.5 56.9684H9.54545M10.6604 65.5L10.6604 53.5C10.6604 52.6716 11.332 52 12.1604 52L18.1604 52C18.9888 52 19.6604 52.6716 19.6604 53.5L19.6604 65.5C19.6604 66.3284 18.9888 67 18.1604 67L12.1604 67C11.332 67 10.6604 66.3284 10.6604 65.5Z" stroke="#D0C018" stroke-width="6"></path> <circle cx="60" cy="28" r="25" stroke="#D0C018" stroke-width="6"></circle> <path d="M61.1667 13L54.6414 26.034C54.3085 26.6989 54.792 27.4817 55.5356 27.4817H64.1328C64.9312 27.4817 65.4077 28.3713 64.9652 29.0359L56.3333 42" stroke="#D0C018" stroke-width="6" stroke-linecap="round"></path> </g> <defs> <clipPath id="clip0_3891_2"> <rect width="120" height="120" fill="white"></rect> </clipPath> </defs> </svg> 