<?xml version="1.0" encoding="UTF-8"?> <svg xmlns="http://www.w3.org/2000/svg" width="120" height="120" viewBox="0 0 120 120" fill="none"> <g clip-path="url(#clip0_3891_103)"> <path d="M48.3077 54.1078V65.5593C48.3077 65.7069 48.3911 65.8419 48.5231 65.9079L60 71.6463M60 71.6463L71.4769 65.9079C71.6089 65.8419 71.6923 65.7069 71.6923 65.5593V54.7385C71.6923 54.4487 71.3874 54.2603 71.1283 54.3899L60.2154 59.8463C60.0834 59.9123 60 60.0473 60 60.1949V71.6463ZM45.3846 8.80015V20.2516C45.3846 20.3992 45.468 20.5342 45.6001 20.6002L57.0769 26.3386M57.0769 26.3386L68.5538 20.6002C68.6858 20.5342 68.7692 20.3992 68.7692 20.2516V9.43077C68.7692 9.14104 68.4643 8.9526 68.2052 9.08217L57.2924 14.5386C57.1603 14.6046 57.0769 14.7396 57.0769 14.8872V26.3386ZM89.2308 24.8771V36.3285C89.2308 36.4761 89.3142 36.6111 89.4462 36.6771L100.923 42.4155M100.923 42.4155L112.4 36.6771C112.532 36.6111 112.615 36.4761 112.615 36.3285V25.5077C112.615 25.218 112.31 25.0295 112.051 25.1591L101.139 30.6155C101.006 30.6815 100.923 30.8165 100.923 30.9641V42.4155ZM3 30.7232V42.1747C3 42.3223 3.08341 42.4572 3.21544 42.5233L14.6923 48.2617M14.6923 48.2617L26.1692 42.5233C26.3012 42.4572 26.3846 42.3223 26.3846 42.1747V31.3538C26.3846 31.0641 26.0797 30.8757 25.8206 31.0053L14.9078 36.4617C14.7757 36.5277 14.6923 36.6626 14.6923 36.8103V48.2617ZM93.6154 77.4925V88.9439C93.6154 89.0915 93.6988 89.2265 93.8308 89.2925L105.308 95.0309M105.308 95.0309L116.785 89.2925C116.917 89.2265 117 89.0915 117 88.9439V78.1231C117 77.8334 116.695 77.6449 116.436 77.7745L105.523 83.2309C105.391 83.2969 105.308 83.4319 105.308 83.5795V95.0309ZM7.38462 83.3386V94.7901C7.38462 94.9377 7.46802 95.0726 7.60006 95.1387L19.0769 100.877M19.0769 100.877L30.5538 95.1387C30.6858 95.0726 30.7692 94.9377 30.7692 94.7901V83.9692C30.7692 83.6795 30.4643 83.4911 30.2052 83.6206L19.2924 89.0771C19.1603 89.1431 19.0769 89.278 19.0769 89.4257V100.877ZM54.1538 99.4155V110.867C54.1538 111.015 54.2373 111.15 54.3693 111.216L65.8462 116.954M65.8462 116.954L77.323 111.216C77.4551 111.15 77.5385 111.015 77.5385 110.867V100.046C77.5385 99.7564 77.2336 99.568 76.9744 99.6976L66.0616 105.154C65.9296 105.22 65.8462 105.355 65.8462 105.503V116.954ZM40.6346 49.7692L37.3462 48.3077L34.0577 46.8462M41.7308 71.6923L39.5385 74.6154L37.3462 77.5385M64.3846 85.2115L62.9231 82.6538L61.4615 80.0962M85.9423 73.1539L82.6538 71.6923L79.3654 70.2308M77.1731 47.2115L79.7308 44.6539L82.2885 42.0962M59.2692 39.9039L58.5385 37.3462L57.8077 34.7885M59.8257 48.3488L49.0049 53.7593C48.7176 53.9029 48.7176 54.3128 49.0049 54.4564L59.8257 59.8669C59.9354 59.9217 60.0646 59.9217 60.1743 59.8669L70.9951 54.4564C71.2824 54.3128 71.2824 53.9029 70.9951 53.7593L60.1743 48.3488C60.0646 48.294 59.9354 48.294 59.8257 48.3488ZM56.9026 3.04115L46.0818 8.45155C45.7946 8.59518 45.7946 9.00512 46.0818 9.14875L56.9026 14.5592C57.0123 14.614 57.1415 14.614 57.2512 14.5592L68.072 9.14875C68.3593 9.00512 68.3593 8.59518 68.072 8.45155L57.2512 3.04115C57.1415 2.98628 57.0123 2.98628 56.9026 3.04115ZM100.749 19.1181L89.928 24.5285C89.6407 24.6721 89.6407 25.082 89.928 25.2257L100.749 30.6361C100.859 30.6909 100.988 30.6909 101.097 30.6361L111.918 25.2257C112.205 25.082 112.205 24.6721 111.918 24.5285L101.097 19.1181C100.988 19.0632 100.859 19.0632 100.749 19.1181ZM14.518 24.9642L3.69719 30.3746C3.40993 30.5183 3.40993 30.9282 3.69719 31.0718L14.518 36.4822C14.6277 36.5371 14.7569 36.5371 14.8666 36.4822L25.6874 31.0718C25.9747 30.9282 25.9747 30.5183 25.6874 30.3746L14.8666 24.9642C14.7569 24.9094 14.6277 24.9094 14.518 24.9642ZM105.133 71.7335L94.3126 77.1439C94.0253 77.2875 94.0253 77.6974 94.3126 77.8411L105.133 83.2515C105.243 83.3063 105.372 83.3063 105.482 83.2515L116.303 77.8411C116.59 77.6974 116.59 77.2875 116.303 77.1439L105.482 71.7335C105.372 71.6786 105.243 71.6786 105.133 71.7335ZM18.9026 77.5796L8.08181 82.99C7.79455 83.1337 7.79455 83.5436 8.08181 83.6872L18.9026 89.0976C19.0123 89.1525 19.1415 89.1525 19.2512 89.0976L30.072 83.6872C30.3593 83.5436 30.3593 83.1337 30.072 82.99L19.2512 77.5796C19.1415 77.5248 19.0123 77.5248 18.9026 77.5796ZM65.6719 93.6565L54.851 99.067C54.5638 99.2106 54.5638 99.6205 54.851 99.7641L65.6719 105.175C65.7816 105.229 65.9107 105.229 66.0205 105.175L76.8413 99.7641C77.1285 99.6205 77.1285 99.2106 76.8413 99.067L66.0205 93.6565C65.9107 93.6017 65.7816 93.6017 65.6719 93.6565Z" stroke="#D0C018" stroke-width="6" stroke-linecap="round" stroke-linejoin="round"></path> </g> <defs> <clipPath id="clip0_3891_103"> <rect width="120" height="120" fill="white"></rect> </clipPath> </defs> </svg> 