<?xml version="1.0" encoding="UTF-8"?> <svg xmlns="http://www.w3.org/2000/svg" width="120" height="120" viewBox="0 0 120 120" fill="none"> <g clip-path="url(#clip0_3891_71)"> <path d="M3 54.4C3 48.104 8.10395 43 14.4 43H56.8909C58.608 43 60 44.392 60 46.1091C60 63.2801 46.0801 77.2 28.9091 77.2H12.5C7.25329 77.2 3 72.9467 3 67.7V54.4Z" stroke="#D0C018" stroke-width="6" stroke-linecap="round" stroke-linejoin="round"></path> <path d="M26.94 54.4C23.1722 54.4 18.5155 57.583 15.54 60.1C18.5155 62.617 23.1722 65.8 26.94 65.8C30.7078 65.8 35.3645 62.617 38.34 60.1C35.3645 57.583 30.7078 54.4 26.94 54.4Z" stroke="#D0C018" stroke-width="6" stroke-linecap="round" stroke-linejoin="round"></path> <path d="M117 54.4C117 48.104 111.896 43 105.6 43H63.1091C61.392 43 60 44.392 60 46.1091C60 63.2801 73.9199 77.2 91.0909 77.2H107.5C112.747 77.2 117 72.9467 117 67.7V54.4Z" stroke="#D0C018" stroke-width="6" stroke-linecap="round" stroke-linejoin="round"></path> <path d="M93.06 54.4C96.8278 54.4 101.485 57.583 104.46 60.1C101.485 62.617 96.8278 65.8 93.06 65.8C89.2922 65.8 84.6355 62.617 81.66 60.1C84.6355 57.583 89.2922 54.4 93.06 54.4Z" stroke="#D0C018" stroke-width="6" stroke-linecap="round" stroke-linejoin="round"></path> <circle cx="9" cy="9" r="6" stroke="#D0C018" stroke-width="6"></circle> <circle cx="66" cy="97" r="6" stroke="#D0C018" stroke-width="6"></circle> <circle cx="49" cy="18" r="11" stroke="#D0C018" stroke-width="6"></circle> <circle cx="96" cy="17" r="8" stroke="#D0C018" stroke-width="6"></circle> <circle cx="28" cy="101" r="10" stroke="#D0C018" stroke-width="6"></circle> <circle cx="106" cy="106" r="11" stroke="#D0C018" stroke-width="6"></circle> </g> <defs> <clipPath id="clip0_3891_71"> <rect width="120" height="120" fill="white"></rect> </clipPath> </defs> </svg> 