<?xml version="1.0" encoding="UTF-8"?> <svg xmlns="http://www.w3.org/2000/svg" width="120" height="120" viewBox="0 0 120 120" fill="none"> <g clip-path="url(#clip0_3891_62)"> <path d="M61.8413 99.1875L59.0393 102.75L48.6175 116.001C48.2171 116.51 47.4458 116.51 47.0455 116.001L3.48623 60.6182C3.20091 60.2554 3.20092 59.7445 3.48623 59.3818L47.0455 3.99936C47.4458 3.49031 48.2171 3.49031 48.6175 3.99936L59.0393 17.25L61.8413 20.8125M58.1587 99.1875L71.3825 116.001C71.7829 116.51 72.5542 116.51 72.9546 116.001L116.514 60.6182C116.799 60.2555 116.799 59.7446 116.514 59.3818L72.9546 3.99936C72.5542 3.49031 71.7829 3.49031 71.3825 3.99936L58.1587 20.8125" stroke="#D0C018" stroke-width="6" stroke-linecap="round"></path> <path d="M28 68.3242C27.4477 68.3242 27 67.8765 27 67.3242L27 52.6758C27 52.1235 27.4477 51.6758 28 51.6758H35.9515C36.3764 51.6758 36.753 51.4066 36.9047 51.0098C37.8302 48.5898 39.1238 46.3299 40.7388 44.3117C41.0018 43.9831 41.0453 43.5273 40.8362 43.1621L36.8432 36.1858C36.5702 35.709 36.7331 35.1012 37.208 34.8248L49.7789 27.5071C50.2589 27.2277 50.8746 27.3929 51.1502 27.8751L55.1239 34.8271C55.3349 35.1963 55.756 35.3896 56.1762 35.3241C58.7103 34.9287 61.2897 34.9287 63.8238 35.3241C64.244 35.3896 64.6651 35.1963 64.8761 34.8271L68.8498 27.8751C69.1254 27.3929 69.7411 27.2277 70.2211 27.5071L82.7918 34.8247C83.2668 35.1011 83.4296 35.709 83.1565 36.1859L79.1613 43.1618C78.9521 43.5272 78.9957 43.9832 79.2588 44.3119C80.8747 46.33 82.169 48.5898 83.0952 51.0101C83.247 51.4067 83.6236 51.6758 84.0483 51.6758L92 51.6758C92.5523 51.6758 93 52.1235 93 52.6758V67.3242C93 67.8765 92.5523 68.3242 92 68.3242H84.0483C83.6236 68.3242 83.247 68.5933 83.0952 68.99C82.169 71.4102 80.8747 73.67 79.2588 75.6881C78.9957 76.0168 78.9521 76.4728 79.1614 76.8382L83.1565 83.8141C83.4296 84.291 83.2668 84.8989 82.7918 85.1753L70.2211 92.4929C69.7411 92.7723 69.1254 92.6071 68.8498 92.1249L64.8761 85.1729C64.6651 84.8037 64.244 84.6104 63.8238 84.6759C61.2897 85.0713 58.7103 85.0713 56.1762 84.6759C55.756 84.6104 55.3349 84.8037 55.1239 85.1729L51.1502 92.1249C50.8746 92.6071 50.2589 92.7723 49.7789 92.4929L37.2082 85.1753C36.7332 84.8989 36.5704 84.291 36.8435 83.8141L40.8386 76.8382C41.0479 76.4728 41.0043 76.0168 40.7412 75.6881C39.1253 73.67 37.831 71.4102 36.9048 68.99C36.753 68.5933 36.3765 68.3242 35.9517 68.3242H28Z" stroke="#D0C018" stroke-width="6"></path> <path d="M60 48C53.3726 48 48 53.3726 48 60C48 66.6274 53.3726 72 60 72C66.6274 72 72 66.6274 72 60C72 53.3726 66.6274 48 60 48Z" stroke="#D0C018" stroke-width="6"></path> </g> <defs> <clipPath id="clip0_3891_62"> <rect width="120" height="120" fill="white"></rect> </clipPath> </defs> </svg> 